<?xml version="1.0" encoding="utf-8"?>
<!-- Generator: Adobe Illustrator 23.0.2, SVG Export Plug-In . SVG Version: 6.00 Build 0)  -->
<svg version="1.1" id="Слой_1" xmlns="http://www.w3.org/2000/svg" xmlns:xlink="http://www.w3.org/1999/xlink" x="0px" y="0px"
	 viewBox="0 0 24 24" style="enable-background:new 0 0 24 24;" xml:space="preserve">
<style type="text/css">
	.st0{stroke:#FFFFFF;stroke-width:0.95;stroke-miterlimit:10;}
</style>
<path class="st0" d="M12,0.6C5.7,0.6,0.6,5.7,0.6,12c0,5,3.3,9.3,7.8,10.8c0.6,0.1,0.8-0.2,0.8-0.5v-2.1c-3.2,0.7-3.8-1.3-3.8-1.3
	c-0.5-1.3-1.3-1.7-1.3-1.7c-1-0.7,0.1-0.7,0.1-0.7c1.1,0.1,1.7,1.2,1.7,1.2c1,1.7,2.7,1.2,3.3,0.9c0.1-0.7,0.4-1.2,0.7-1.5
	c-2.5-0.3-5.2-1.3-5.2-5.6c0-1.2,0.4-2.3,1.2-3.1C5.8,8,5.4,6.9,6,5.3c0,0,1-0.3,3.1,1.2C10.1,6.2,11,6.1,12,6.1
	c1,0,1.9,0.1,2.9,0.4C17,5,18,5.3,18,5.3c0.6,1.6,0.2,2.7,0.1,3c0.7,0.8,1.2,1.8,1.2,3.1c0,4.4-2.7,5.3-5.2,5.6
	c0.4,0.4,0.8,1,0.8,2.1v3.1c0,0.3,0.2,0.7,0.8,0.5c4.5-1.5,7.8-5.8,7.8-10.8C23.4,5.7,18.3,0.6,12,0.6z"/>
</svg>
