<?xml version="1.0" encoding="utf-8"?>
<!-- Generator: Adobe Illustrator 23.0.2, SVG Export Plug-In . SVG Version: 6.00 Build 0)  -->
<svg version="1.1" id="Слой_1" xmlns="http://www.w3.org/2000/svg" xmlns:xlink="http://www.w3.org/1999/xlink" x="0px" y="0px"
	 viewBox="0 0 22 22" style="enable-background:new 0 0 22 22;" xml:space="preserve">
<style type="text/css">
	.st0{fill:#FFFFFF;}
</style>
<path class="st0" d="M11,5.6c-1,0-1.9,0.2-2.7,0.8c-0.8,0.5-1.5,1.1-2,2C5.8,9.1,5.6,10,5.6,11s0.2,1.9,0.7,2.7c0.5,0.8,1.2,1.5,2,2
	c0.8,0.5,1.7,0.7,2.7,0.7s1.9-0.2,2.7-0.7c0.8-0.5,1.5-1.2,2-2c0.5-0.8,0.8-1.8,0.8-2.7s-0.3-1.9-0.8-2.7c-0.5-0.8-1.1-1.5-2-2
	C12.9,5.9,12,5.6,11,5.6z M11,14.5c-1,0-1.8-0.3-2.5-1s-1-1.5-1-2.5s0.3-1.8,1-2.5s1.5-1,2.5-1s1.8,0.3,2.5,1s1,1.5,1,2.5
	s-0.3,1.8-1,2.5S12,14.5,11,14.5z M17.9,5.4c0,0.3-0.2,0.6-0.4,0.9c-0.2,0.3-0.5,0.4-0.8,0.4S16,6.5,15.7,6.3
	c-0.3-0.2-0.4-0.5-0.4-0.9s0.1-0.6,0.4-0.9c0.3-0.3,0.5-0.4,0.9-0.4s0.6,0.1,0.9,0.4C17.8,4.7,17.9,5,17.9,5.4z M21.5,6.6
	C21.4,5.7,21.3,5,21,4.3c-0.3-0.8-0.7-1.5-1.3-2c-0.6-0.6-1.2-1-2-1.3c-0.7-0.2-1.4-0.3-2.3-0.4C14.5,0.5,13,0.5,11,0.5
	c-2,0-3.5,0-4.4,0.1C5.7,0.6,5,0.8,4.3,1C3.5,1.3,2.8,1.7,2.2,2.3c-0.6,0.6-1,1.2-1.3,2C0.8,5,0.6,5.7,0.5,6.6c0,0.9,0,2.3,0,4.4
	c0,2,0,3.5,0,4.4C0.6,16.3,0.8,17,1,17.7c0.3,0.8,0.7,1.5,1.3,2.1c0.6,0.6,1.3,1,2.1,1.2c0.7,0.3,1.4,0.4,2.3,0.4
	c0.9,0.1,2.4,0.1,4.4,0.1c2,0,3.5,0,4.4-0.1c0.9,0,1.7-0.2,2.3-0.4c0.8-0.3,1.5-0.7,2-1.3c0.6-0.6,1-1.3,1.3-2.1
	c0.2-0.7,0.3-1.4,0.4-2.3c0.1-0.9,0.1-2.4,0.1-4.4C21.5,9,21.5,7.5,21.5,6.6z M19.2,17.2c-0.4,0.9-1,1.6-2,2
	c-0.5,0.2-1.3,0.3-2.5,0.4c-0.7,0-1.6,0-2.9,0h-1.5c-1.3,0-2.2,0-2.9,0c-1.2-0.1-2-0.2-2.5-0.4c-0.9-0.4-1.6-1-2-2
	c-0.2-0.5-0.3-1.4-0.4-2.5c0-0.7,0-1.7,0-2.9v-1.5c0-1.3,0-2.2,0-2.9c0.1-1.2,0.2-2,0.4-2.5c0.4-1,1-1.6,2-2
	c0.5-0.2,1.4-0.3,2.5-0.4c0.7,0,1.7,0,2.9,0h1.5c1.3,0,2.2,0,2.9,0c1.2,0.1,2,0.2,2.5,0.4c1,0.4,1.6,1,2,2c0.2,0.5,0.3,1.3,0.4,2.5
	c0,0.7,0,1.6,0,2.9v1.5c0,1.3,0,2.2,0,2.9C19.5,15.8,19.4,16.7,19.2,17.2z"/>
</svg>
