<?xml version="1.0" encoding="utf-8"?>
<!-- Generator: Adobe Illustrator 23.0.2, SVG Export Plug-In . SVG Version: 6.00 Build 0)  -->
<svg version="1.1" xmlns="http://www.w3.org/2000/svg" xmlns:xlink="http://www.w3.org/1999/xlink" x="0px" y="0px"
	 viewBox="0 0 450 450" style="enable-background:new 0 0 450 450;" xml:space="preserve">
<style type="text/css">
	.st0{display:none;}
	.st1{display:inline;}
	.st2{fill:none;stroke:#FFFFFF;stroke-miterlimit:10;}
	.st3{fill:#F9F7F7;}
	.st4{fill:none;stroke:#FFFFFF;stroke-linecap:round;stroke-linejoin:round;stroke-miterlimit:10;}
	.st5{fill:#FFFFFF;}
	.st6{fill:none;stroke:#FFFFFF;stroke-width:0.5;stroke-linecap:round;stroke-linejoin:round;stroke-miterlimit:10;}
	.st7{fill:#EC3500;stroke:#FFFFFF;stroke-miterlimit:10;}
	.st8{fill:none;stroke:#FFFFFF;stroke-width:0.75;stroke-linecap:round;stroke-linejoin:round;stroke-miterlimit:10;}
	.st9{fill:#F9F9F9;}
	.st10{fill:#F7F5F5;stroke:#FFFFFF;stroke-miterlimit:10;}
	.st11{fill:#F9F9F9;stroke:#FFFFFF;stroke-miterlimit:10;}
	.st12{fill:#F9F7F7;stroke:#FFFFFF;stroke-miterlimit:10;}
	.st13{fill:#F7F5F5;}
	.st14{fill:none;stroke:#F2F2F2;stroke-miterlimit:10;}
	.st15{display:inline;fill:none;stroke:#FFFFFF;stroke-width:2;stroke-linecap:round;stroke-linejoin:round;stroke-miterlimit:10;}
	.st16{display:inline;fill:#FFFFFF;}
	.st17{display:inline;fill:none;stroke:#FFFFFF;stroke-linecap:round;stroke-linejoin:round;stroke-miterlimit:10;}
</style>
<g id="Слой_4" class="st0">
	<rect x="-3" class="st1" width="456" height="450"/>
</g>
<g id="Слой_1" class="st0">
	<image style="display:inline;overflow:visible;" width="450" height="450" xlink:href="brain_earth.png" >
	</image>
</g>
<g id="Слой_2">
	<line class="st2" x1="143.1" y1="31.8" x2="160.5" y2="45.4"/>
	<line class="st2" x1="164.6" y1="37.7" x2="146.2" y2="32.8"/>
	<path class="st3" d="M104.6,41.7c-0.8,0-1.4,0.6-1.4,1.4l-10.7,9.1c-0.2-0.1-0.5-0.1-0.8-0.1c-0.9,0-1.6,0.3-1.8,0.8L74,65.6
		c0,0,0,0-0.1,0.1c0,0-0.1,0-0.1,0c-0.8,0-1.4,0.4-1.4,0.9c0,0.1,0.1,0.3,0.1,0.4l-9.1,9l-19.9,27.4c-0.1,0-0.1-0.1-0.2-0.1
		c-0.4,0-0.8,0.6-0.8,1.3c0,0,0,0.1,0,0.1c0,0.1,0,0.2,0,0.3c0.1,0.5,0.4,0.8,0.7,0.8c0.4,0,0.8-0.6,0.8-1.3c0-0.1,0-0.1,0-0.2
		l9.7-12.3L63,84c0.1,0,0.1,0,0.2,0c0.5,0,1-0.4,1.2-0.8l10.8-4.8c0,0,0.1,0,0.1-0.1l2.1-1.9c0.3,0.3,0.7,0.5,1.1,0.5
		c0.8,0,1.5-0.7,1.5-1.5c0-0.6-0.4-1.2-0.9-1.4l3.7-9.9c0.5,0,0.9-0.4,0.9-1c0-0.1,0-0.2-0.1-0.3l8.4-8.8c0.8-0.1,1.5-0.5,1.5-0.9
		c0-0.1,0-0.2-0.1-0.3l10.2-8.6c0.3,0.3,0.6,0.5,1.1,0.5c0.8,0,1.4-0.6,1.4-1.4C106,42.3,105.4,41.7,104.6,41.7z M62.3,83.7
		c0,0,0-0.1-0.1-0.1c0.1,0.1,0.1,0.1,0.2,0.2C62.4,83.8,62.3,83.7,62.3,83.7z M63.6,81.7c-0.1,0-0.3-0.1-0.4-0.1
		c-0.7,0-1.2,0.6-1.2,1.2c0,0.1,0,0.3,0.1,0.4c0,0,0,0,0,0l-7.9,7.2l10.1-13.9l9.2-9h2.9l-9.6,9.8L63.6,81.7z M82.8,62.1
		c0,0-0.1,0-0.1,0c-0.5,0-1,0.4-1,1c0,0.2,0.1,0.3,0.2,0.5L78,73.9c-0.6,0.2-1.1,0.8-1.1,1.5c0,0,0,0,0,0.1l-2.3,2.1l-10,4.5
		l2.8-4.1l10-10.2c0.1,0.1,0.2,0.1,0.4,0.1c0.3,0,0.5-0.1,0.7-0.4c0.1-0.1,0.3-0.2,0.3-0.4c0-0.1,0-0.2-0.1-0.3
		c-0.1-0.4-0.4-0.8-0.9-0.8c-0.4,0-0.7,0.2-0.8,0.5h-1.7c0-0.2-0.1-0.3-0.2-0.4l15.4-12.4c0.1,0,0.2,0.1,0.2,0.1L82.8,62.1z"/>
	<polyline class="st4" points="15.8,209.1 11.4,225.9 23.9,223.6 27.5,224.3 41.9,214.6 	"/>
	<path class="st4" d="M24.3,220.3"/>
	<polyline class="st4" points="42.3,235.6 27.5,224.3 15.8,240.2 11.4,225.9 7.4,234.4 7.4,225 	"/>
	<polyline class="st4" points="26.1,229 15.8,250.1 10.6,229 	"/>
	<path class="st5" d="M39,247.4c-0.1,0-0.2,0-0.3,0.1c-2.1-3.2-8.4-12.9-11.6-17.9c0-0.1,0-0.2,0-0.2c0-0.7-0.3-1.2-0.8-1.2
		c-0.3,0-0.5,0.2-0.6,0.5c0,0-0.1,0.1-0.1,0.1l-9.4,19.4c-0.1-0.1-0.3-0.1-0.4-0.1c0,0,0,0,0,0L11,228.9c-0.1-0.3-0.3-0.4-0.6-0.4
		c-0.3,0.1-0.4,0.3-0.4,0.6l4.8,19.5c-0.1,0.2-0.2,0.5-0.2,0.8c0,0.8,0.5,1.4,1.1,1.4s1.1-0.6,1.1-1.4c0-0.1,0-0.2,0-0.3l9.1-18.7
		c0.1,0.1,0.2,0.2,0.4,0.2c0,0,0.1,0,0.1,0c2.8,4.3,9.6,14.7,11.6,17.8c-0.1,0.2-0.1,0.4-0.1,0.7c0,0.9,0.5,1.6,1.1,1.6
		s1.1-0.7,1.1-1.6C40.1,248.1,39.6,247.4,39,247.4z"/>
	<polyline class="st4" points="13.4,172.6 19.8,165.6 23.1,172.6 	"/>
	<path class="st4" d="M9.8,195.5"/>
	<path class="st4" d="M7.4,225"/>
	<path class="st4" d="M13.4,206.3"/>
	<path class="st4" d="M7.6,235.3"/>
	<path class="st4" d="M44.1,268.6c-0.1-0.1-18.1-2-18.1-2l-9,5.4l-6.3-1.1l4.1-5.3"/>
	<path class="st4" d="M61.2,361.5"/>
	<polyline class="st4" points="90.1,396.6 76.4,380.5 96.3,395.6 	"/>
	<path class="st4" d="M59.3,368"/>
	<path class="st5" d="M75.6,195.1c-1.3-0.3-2.8,0.5-3.7,1.9l-13.4-10.8c0.6-1,0.6-2.1-0.1-2.6c-0.7-0.5-2-0.1-2.8,1
		c-0.8,1.1-0.9,2.4-0.1,3c0.6,0.5,1.6,0.2,2.4-0.6l13.5,10.9c-0.1,0.3-0.2,0.6-0.3,0.9c-0.4,1.5-0.2,2.9,0.4,3.9l-17.1,22.8
		c-0.2-0.3-0.5-0.5-0.9-0.5c-0.8,0-1.5,1.1-1.5,2.4s0.7,2.4,1.5,2.4s1.5-1.1,1.5-2.4c0-0.3,0-0.7-0.1-1l17.2-22.9
		c0.3,0.3,0.7,0.5,1.1,0.6c1.8,0.5,3.8-1.2,4.5-3.7C78.3,198,77.4,195.5,75.6,195.1z"/>
	<path class="st5" d="M71,188.8l-7.3-28.6c0.1-0.3,0.2-0.7,0.2-1.1c0-1.3-0.6-2.4-1.3-2.4c-0.7,0-1.3,1.1-1.3,2.4
		c0,1.3,0.6,2.4,1.3,2.4c0.2,0,0.3-0.1,0.4-0.1l7,27.2c-0.5,0.3-0.9,1-0.9,1.9c0,0,0,0,0,0l-15-1.1c0-0.7-0.3-1.2-0.8-1.3
		c-0.6-0.2-1.3,0.4-1.5,1.3c-0.2,0.9,0.1,1.7,0.7,1.8c0.5,0.1,1-0.2,1.3-0.8c0,0,0.1,0,0.1,0l15.3,1.1c0.2,0.6,0.7,1,1.1,1
		c0.5,0,1-0.4,1.2-1.1c0-0.1,0.1-0.1,0.1-0.2c0.1-0.2,0.1-0.5,0.1-0.7C71.6,189.8,71.4,189.2,71,188.8z"/>
	<path class="st4" d="M123.7,293.2"/>
	<path class="st5" d="M96.7,394.9c-0.1,0-0.3,0-0.4,0l-18.8-14.2l3.8-1.4c0.4,0.4,1,0.6,1.8,0.6c1.2,0,2.1-0.6,2.1-1.4
		c0-0.8-0.9-1.4-2.1-1.4c-1.1,0-1.9,0.5-2.1,1.2l-4.4,1.6l-10.5-10.2l9,2.9c0.2,0.5,0.7,0.8,1.3,0.8c0.8,0,1.5-0.7,1.5-1.5
		c0-0.8-0.7-1.5-1.5-1.5c-0.7,0-1.2,0.4-1.4,1l-9.6-3.1l-3.2-6.4c0.4-0.1,0.7-0.4,0.7-0.7c0-0.4-0.6-0.8-1.4-0.8S60,361,60,361.4
		c0,0.4,0.5,0.7,1.1,0.7l2.6,5.2c-10.9-11.8-15.2-16.2-17-17.8c0-0.1,0.1-0.3,0.1-0.4c0-0.7-0.5-1.3-1-1.3s-1,0.6-1,1.3
		c0,0.7,0.5,1.3,1,1.3c0.1,0,0.3,0,0.4-0.1c2.8,2.6,11.6,12,17.2,18.1l12.8,12.4l8.2,9.6l-24.3-22.6c0-0.1,0-0.1,0-0.2
		c0-0.8-0.3-1.5-0.7-1.5c-0.4,0-0.7,0.7-0.7,1.5c0,0.8,0.3,1.5,0.7,1.5c0.1,0,0.3-0.1,0.4-0.2l29.5,27.4c-0.2,0.2-0.3,0.5-0.3,0.7
		c0,0.9,1.1,1.7,2.4,1.7s2.4-0.7,2.4-1.7s-1.1-1.7-2.4-1.7c-0.4,0-0.9,0.1-1.2,0.2l-10.2-12l15.5,11.7c-0.2,0.2-0.3,0.4-0.3,0.6
		c0,0.6,0.8,1.1,1.7,1.1s1.7-0.5,1.7-1.1C98.4,395.4,97.6,394.9,96.7,394.9z"/>
	<path class="st5" d="M112.7,396.6c-0.4-0.2-0.8-0.4-1.1-0.5l-0.5-8.4c0.4-0.2,0.6-0.6,0.6-1.1c0-0.7-0.5-1.2-1.2-1.2
		c-0.7,0-1.2,0.5-1.2,1.2c0,0.5,0.3,1,0.8,1.1l0.5,8.2c-0.5,0-1,0.1-1.4,0.3l-20.4-14.8c0,0,0,0,0-0.1c0-0.5-0.4-0.9-0.9-0.9
		s-0.9,0.4-0.9,0.9s0.4,0.9,0.9,0.9c0.1,0,0.2,0,0.3-0.1l20.4,14.8c-0.2,1,0.6,2.2,2,3c1.6,0.9,3.3,0.9,3.9-0.1
		C115.1,399,114.3,397.5,112.7,396.6z"/>
	<path class="st5" d="M159.3,232.3c-1.5,0-2.7,0.7-2.7,1.5c0,0.7,0.8,1.2,2,1.4l-26,24.8c-0.7-1.2-1.8-1.9-3-1.9
		c-2.1,0-3.8,2-3.8,4.6c0,2.5,1.7,4.6,3.8,4.6c0.1,0,0.1,0,0.2,0l3.1,39.8c-1,0.4-1.8,1.3-1.8,2.5c0,0.6,0.2,1.2,0.6,1.7l-18.9,19.2
		c-0.5-0.3-1.1-0.4-1.7-0.4c-0.6,0-1.2,0.2-1.7,0.4l-37-69.2c0.3-0.4,0.5-0.9,0.5-1.5c0-1.2-0.8-2.1-1.7-2.1c-0.9,0-1.6,0.8-1.7,1.9
		H55.7c-0.2-0.7-0.7-1.2-1.3-1.2c-0.8,0-1.4,0.8-1.4,1.8c0,1,0.6,1.8,1.4,1.8c0.7,0,1.2-0.6,1.4-1.3h13.7c0.1,0.4,0.4,0.8,0.7,1
		l-6.6,28.4c-0.7-0.3-1.3-0.3-1.7,0.1c-0.5,0.6-0.2,1.7,0.7,2.5c0.9,0.8,2,1,2.6,0.4c0.5-0.6,0.2-1.7-0.7-2.5l6.7-28.7
		c0.1,0,0.2,0,0.3,0l37.1,69.2c-1,0.9-1.7,2.4-1.7,4c0,2.8,1.9,5,4.2,5c1.1,0,2.1-0.5,2.8-1.3l28.9,33.6c-0.2,0.2-0.3,0.5-0.3,0.8
		c0,0.7,0.5,1.2,1.2,1.2s1.2-0.5,1.2-1.2c0-0.6-0.5-1.1-1.1-1.2l-29.3-34.1c0.5-0.8,0.8-1.8,0.8-2.9c0-1.6-0.7-3.1-1.7-4l18.9-19.2
		c0.4,0.2,0.8,0.3,1.2,0.3c1.4,0,2.6-1.2,2.6-2.6c0-1.4-1.1-2.5-2.5-2.6l-3.1-39.9c1.5-0.6,2.6-2.3,2.6-4.3c0-0.6-0.1-1.2-0.3-1.7
		l27-25.8c1.2-0.2,2.1-0.7,2.1-1.4C162.1,233,160.9,232.3,159.3,232.3z"/>
	<path class="st5" d="M243.1,344c-0.4,0-0.7,0.1-1,0.2l-30-27.4c1.1-0.8,1.9-1.9,1.9-3.3c0-1.6-1.1-3-2.7-3.7l24.6-31.6
		c0.4,0.3,1,0.6,1.6,0.6c1.4,0,2.6-1.2,2.6-2.6c0-1.4-1.2-2.6-2.6-2.6c-1.4,0-2.6,1.2-2.6,2.6c0,0.5,0.1,0.9,0.4,1.3l-24.9,32.1
		c-0.4-0.1-0.8-0.1-1.2-0.1c-2.2,0-4.1,1.2-4.7,2.9l-53.3-11.1c0,0,0-0.1,0-0.1c0-1.2-0.8-2.3-2-2.8l17.9-24.8c0,0,0,0,0,0
		c0.8,0,1.4-0.6,1.4-1.4c0-0.8-0.6-1.4-1.4-1.4c-0.8,0-1.4,0.6-1.4,1.4c0,0.4,0.2,0.8,0.5,1.1l-17.9,24.9c-0.3-0.1-0.6-0.1-0.9-0.1
		l-2.3-25.4c0.4-0.2,0.7-0.7,0.7-1.2c0-0.8-0.6-1.4-1.4-1.4s-1.4,0.6-1.4,1.4c0,0.7,0.5,1.2,1.1,1.4l2.3,25.2
		c-1.9,0.3-3.4,1.6-3.4,3.3c0,1.5,1.2,2.7,2.9,3.2l-14.6,34.6c0,0,0,0,0,0l-28.8-52.9c1.5-1,2.4-3,2.2-5.1c-0.3-3-2.7-5.2-5.4-4.9
		c-1.9,0.2-3.4,1.6-4,3.4l-32.9-7.9c-0.1-1-0.7-1.8-1.4-1.8c-0.8,0-1.5,1-1.5,2.3c0,1.3,0.7,2.3,1.5,2.3c0.7,0,1.3-0.7,1.4-1.7
		l32.7,7.9c0,0.3-0.1,0.7-0.1,1l-31.2,16c-0.2-0.4-0.6-0.6-1-0.6c-0.7,0-1.3,0.8-1.3,1.8s0.6,1.8,1.3,1.8s1.3-0.8,1.3-1.8
		c0-0.1,0-0.2,0-0.3l31-15.9c0.2,1.1,0.7,2,1.4,2.7c-5.7,8.9-19,29.6-19.6,30.6c-0.1,0-0.2-0.1-0.3-0.1c-1.6-0.3-3,0.5-3.2,1.6
		c-0.2,1.2,0.9,2.3,2.5,2.6c1.6,0.3,3-0.5,3.2-1.6c0.1-0.8-0.4-1.6-1.2-2.1c1.5-2.3,13.9-21.7,19.4-30.3c0.9,0.7,2,1,3.2,0.9
		c0.4,0,0.8-0.2,1.2-0.3l28.7,52.7c-1.1,0.5-1.9,1.3-2.2,2.4c-0.6,2.1,0.9,4.5,3.4,5.2c1.2,0.4,2.5,0.2,3.5-0.2l23.4,28.4
		c-0.6,0.3-1,0.9-1,1.6c0,1.1,1.1,1.9,2.4,1.9c1.3,0,2.4-0.9,2.4-1.9s-1.1-1.9-2.4-1.9c-0.1,0-0.2,0-0.3,0l-23.6-28.6
		c0.6-0.5,1.1-1.1,1.3-1.9c0.1-0.3,0.1-0.5,0.1-0.8h26.6c0.4,0.7,1.3,1.2,2.4,1.2c1.4,0,2.6-0.8,2.6-1.8c0-0.3-0.1-0.5-0.3-0.8
		l36.7-25.9c0.9,1,2.3,1.7,3.9,1.7c0.8,0,1.5-0.2,2.1-0.4l30,27.4c-0.5,0.4-0.8,0.9-0.8,1.5c0,1.2,1.2,2.1,2.8,2.1s2.8-1,2.8-2.1
		C245.9,345,244.7,344,243.1,344z M163.6,342.3H137c-0.4-1.5-1.6-2.9-3.5-3.4c-0.4-0.1-0.9-0.2-1.3-0.2l14.5-34.4c0.1,0,0.1,0,0.2,0
		c0.3,0,0.6,0,0.9-0.1l17.1,36.8C164.3,341.3,163.7,341.7,163.6,342.3z M167.7,341.2c-0.4-0.2-1-0.4-1.6-0.4c-0.1,0-0.1,0-0.2,0
		l-17.1-36.9c0.9-0.4,1.7-1,2-1.8l53.3,11.1c0,0.1,0,0.2,0,0.2c0,0.6,0.2,1.2,0.4,1.7L167.7,341.2z"/>
	<path class="st6" d="M-68.5,147.5"/>
	<circle class="st7" cx="204.7" cy="295.6" r="1.7"/>
	<path class="st4" d="M269.5,422.7"/>
	<path class="st4" d="M293.6,420.1"/>
	<path class="st4" d="M291.3,425.7"/>
	<path class="st4" d="M267.5,425.7"/>
	<polyline class="st4" points="301.2,427.8 293.6,420.1 272.1,433.2 	"/>
	<path class="st4" d="M270.6,437.8"/>
	<path class="st4" d="M301.2,427.8"/>
	<path class="st4" d="M269.5,422.7"/>
	<polyline class="st8" points="345.1,405.3 359.2,397.4 372,381.4 	"/>
	<path class="st4" d="M366.3,377.3"/>
	<path class="st4" d="M201.2,376.2"/>
	<path class="st8" d="M397,358.8"/>
	<line class="st8" x1="412.2" y1="335.6" x2="425.6" y2="315.5"/>
	<polyline class="st8" points="398.8,294.2 412.2,281.8 421.7,292.2 433.7,273.5 439.1,271.4 433.5,292.2 	"/>
	<polyline class="st8" points="405.9,267.7 425.6,267.7 411.1,282.8 	"/>
	<polyline class="st8" points="433.7,271.4 436.6,237.9 444,244.3 	"/>
	<polyline class="st8" points="425.6,265.7 436.6,237.9 424.1,249.4 415.7,224.7 	"/>
	<path class="st8" d="M413.6,250.2c0.3-1.8,2.2-27.6,2.2-27.6l-11.6,4.9"/>
	<polyline class="st8" points="444,212.8 438.9,226.4 434.7,212.8 	"/>
	<path class="st4" d="M305.2,303.1"/>
	<polyline class="st8" points="426.1,173.3 417.7,203.3 426.1,223.6 	"/>
	<polyline class="st8" points="438.9,172.1 429.4,165.9 417.7,140.6 	"/>
	<polyline class="st8" points="385.7,266.4 398.8,226.6 346.7,256 	"/>
	<path class="st5" d="M144.3,379.2c-0.5,0-0.9,0.3-1,0.7l-32.8-12.5c0,0,0,0,0,0c0-0.3-0.1-0.5-0.2-0.8l8.4-7.4c0.1,0,0.2,0,0.2,0
		c1.1,0,2-0.6,2-1.4c0-0.8-0.9-1.4-2-1.4c-1.1,0-2,0.6-2,1.4c0,0.4,0.3,0.8,0.7,1.1l-8,7c-0.3-0.2-0.6-0.3-1-0.3
		c-0.8,0-1.6,0.6-1.8,1.4l-18.1-0.4c-0.1-0.9-0.9-1.6-1.8-1.6c-1,0-1.9,0.8-1.9,1.9s0.8,1.9,1.9,1.9c0.8,0,1.4-0.5,1.7-1.1l18.2,0.4
		c0.2,0.5,0.5,0.9,1,1.1l-1.1,6.9c-1.1,0.1-2,0.7-2,1.4c0,0.8,1,1.4,2.2,1.4s2.2-0.6,2.2-1.4c0-0.6-0.6-1.1-1.5-1.3l1.1-6.8
		c0.6-0.1,1-0.4,1.3-0.8l33.2,12.6c0,0,0,0,0,0c0.2,0.3,0.5,0.5,0.9,0.5c0.6,0,1.1-0.5,1.1-1.1S144.9,379.2,144.3,379.2z"/>
	<path class="st8" d="M366.3,281.3c0.6,1.3,10.2,25.6,10.2,25.6l27.6-1.3l20-36.3l-1.6,36.3h-18.4l-2.3,13.5"/>
	<path class="st9" d="M258.4,360.7c-0.9,0-1.6,0.7-1.6,1.6c0,0.1,0,0.3,0,0.4l-25.7,17.9c-0.5-0.2-1-0.3-1.6-0.3
		c-1.1,0-2.1,0.3-2.6,0.9l-24.1-5.2c-0.2-1.3-2-2.3-4.2-2.3c-0.7,0-1.4,0.1-2,0.3l-42.3-36.1c0.1-0.2,0.1-0.4,0.1-0.6
		c0-1.1-1.1-2-2.4-2c-1.3,0-2.4,0.9-2.4,2s1.1,2,2.4,2c0.7,0,1.3-0.2,1.7-0.6l41.8,35.7c-0.7,0.4-1.2,1-1.2,1.7
		c0,1.3,1.9,2.4,4.2,2.4c1.8,0,3.4-0.7,4-1.6l23.9,5.1c0,0.1,0,0.1,0,0.2c0,1.1,1.4,1.9,3.2,1.9c0.8,0,1.4-0.2,2-0.4
		c3.4,3.2,10.1,9.4,13,11.8c-0.1,0.1-0.1,0.2-0.1,0.3c0,0.6,0.9,1.1,2,1.1s2-0.5,2-1.1c0-0.6-0.9-1.1-2-1.1c-0.4,0-0.7,0.1-1,0.1
		c-2.6-2.1-9.5-8.5-13.1-11.8c0.2-0.3,0.4-0.6,0.4-0.9c0-0.4-0.2-0.8-0.6-1.2l25.3-17.6c0.3,0.2,0.6,0.4,1,0.4
		c0.9,0,1.6-0.7,1.6-1.6C260,361.4,259.3,360.7,258.4,360.7z"/>
	<circle class="st9" cx="425.8" cy="315.3" r="0.8"/>
	<circle class="st9" cx="419.1" cy="322.6" r="1"/>
	<circle class="st9" cx="422.4" cy="305.5" r="0.7"/>
	<circle class="st9" cx="376.7" cy="307" r="1.5"/>
	<circle class="st9" cx="366.4" cy="281.1" r="1.2"/>
	<circle class="st10" cx="398.5" cy="294.3" r="1.5"/>
	<circle class="st10" cx="406.2" cy="267.8" r="1.4"/>
	<ellipse class="st10" cx="433.4" cy="272.6" rx="1.5" ry="2"/>
	<ellipse class="st10" cx="424.6" cy="267.7" rx="1.5" ry="2.6"/>
	<circle class="st10" cx="412.5" cy="282.2" r="1.1"/>
	<circle class="st10" cx="427.5" cy="300.2" r="1"/>
	<path class="st11" d="M302.5,425.9"/>
	<path class="st9" d="M361.8,379.9c-0.6,0-1.1,0.5-1.2,1.1c-0.1,0-0.2,0-0.2,0.1l-19.6,14.4l13.8-16c0.1,0,0.2,0,0.3,0
		c0.5,0,0.9-0.5,0.8-1c0-0.5-0.5-0.9-1-0.8c-0.5,0-0.9,0.5-0.8,1c0,0,0,0,0,0l-14.9,17.2l-0.6-6.1c0.6-0.2,1-0.8,0.9-1.4
		c-0.1-0.7-0.7-1.3-1.5-1.2c-0.7,0.1-1.3,0.7-1.2,1.5c0,0.5,0.3,0.9,0.7,1.1l0.6,6.3c-1,0.1-1.8,0.5-2,1.1l-29.8,7.5
		c-0.3-0.5-0.8-0.8-1.3-0.8c-0.9,0-1.5,0.7-1.5,1.5c0,0.1,0,0.2,0,0.4l-17.9,8.7l-3.8-2.5c0.1-0.2,0.2-0.4,0.2-0.6c0-0.6-0.5-1-1-1
		c-0.6,0-1,0.5-1,1c0,0.2,0.1,0.4,0.2,0.6l-10.3,9.7l-0.2-14.4c0.4-0.1,0.8-0.5,0.8-1c0-0.6-0.5-1.1-1.1-1.1c-0.6,0-1.1,0.5-1.1,1.1
		c0,0.3,0.2,0.6,0.4,0.8l0.2,15c-0.5,0.2-0.9,0.4-0.9,0.8c0,0.5,0.8,0.9,1.7,0.9c0.9,0,1.7-0.4,1.7-0.9c0-0.1-0.1-0.3-0.2-0.4
		l14.2-6.9l6.5,4.3c-0.1,0.1-0.1,0.3-0.1,0.5c0,0.1,0,0.2,0.1,0.3l-19.8,12.1l-6.5-7.2c0.1-0.2,0.2-0.3,0.2-0.5
		c0-0.5-0.4-0.9-0.9-0.9c-0.4,0-0.7,0.3-0.9,0.6l-21.1-5.9l4.9-2.6c0.1,0,0.2,0,0.3,0c0.8,0,1.5-0.3,1.5-0.7s-0.7-0.7-1.5-0.7
		c-0.8,0-1.5,0.3-1.5,0.7c0,0.1,0,0.1,0.1,0.2l-5.1,2.7l-10.6-3c7.3-1.1,29.2-4.4,34-7.2c0.2,0.2,0.4,0.3,0.7,0.3c0.6,0,1-0.5,1-1
		s-0.5-1-1-1c-0.5,0-0.9,0.4-1,0.8c0,0,0,0,0,0c-4.9,3.1-32.7,7-35.8,7.5l-5.9-8.6c0.9-0.6,1.8-1,2.4-1.4c0.3,0.4,0.9,0.6,1.5,0.6
		c1,0,1.8-0.6,1.8-1.4s-0.8-1.4-1.8-1.4c-1,0-1.7,0.6-1.8,1.3c-0.6,0.4-1.5,0.9-2.6,1.6l-1.5-2.2c0.3-0.3,0.6-0.7,0.6-1.2
		c0-0.8-0.7-1.5-1.5-1.5s-1.5,0.7-1.5,1.5c0,0.8,0.7,1.5,1.5,1.5l1.6,2.4c-4.9,2.8-12.7,7.3-18.5,10.6c-0.2,0.1-0.3,0.3-0.3,0.4
		s0.1,0.3,0.3,0.4l6.1,3.4l-8.5,2.6c-0.4-0.2-0.9-0.4-1.5-0.4c-1.1,0-2,0.6-2,1.4c0,0.8,0.9,1.4,2,1.4c0.6,0,1.1-0.2,1.5-0.5
		l2.4,2.1l-17.8-0.2c-0.3-0.6-0.9-1-1.7-1c-0.7,0-1.3,0.3-1.6,0.8l-5-0.4l25.2-8.9c0.2-0.1,0.3-0.2,0.3-0.4c0-0.2,0-0.4-0.2-0.5
		L180.7,397c0.1-0.2,0.1-0.3,0.1-0.5c0-0.9-0.9-1.6-2-1.6s-2,0.7-2,1.6s0.9,1.6,2,1.6c0.5,0,0.9-0.1,1.3-0.4l21.1,18.9l-26.3,9.2
		c-0.3-0.4-0.8-0.6-1.4-0.6c-0.2,0-0.3,0-0.5,0.1c0-0.1,0-0.2-0.1-0.3l-6.7-11.5l4.2-3.7c0.4,0.2,0.8,0.4,1.3,0.4c1.1,0,2-0.7,2-1.6
		s-0.9-1.6-2-1.6c-1.1,0-2,0.7-2,1.6c0,0.1,0,0.3,0.1,0.4l-4.1,3.6l-3.9-6.7c0.6-0.3,0.9-0.7,0.9-1.2c0-0.8-1-1.5-2.2-1.5
		c-0.5,0-0.9,0.1-1.2,0.3c-27.6-14.9-27.8-14.9-28-14.9c-0.3,0-0.5,0.2-0.5,0.5c0,0.2,0.1,0.4,0.4,0.5c0.9,0.4,18.6,9.9,27.3,14.7
		c-0.1,0.2-0.2,0.4-0.2,0.5c0,0.2,0.1,0.4,0.2,0.6l-10.6,7.9l-13.2-10.4c0.2-0.2,0.3-0.4,0.3-0.6c0-0.6-0.8-1-1.8-1s-1.8,0.5-1.8,1
		c0,0.6,0.8,1,1.8,1l6.3,11.6l-15.7-14c-0.2-0.2-0.5-0.2-0.7,0c-0.2,0.2-0.2,0.5,0,0.7l16.7,14.9c-0.1,0.1-0.2,0.2-0.3,0.3l-21-5.7
		l-3.1-6c0.2-0.2,0.4-0.5,0.4-0.8c0-0.2-0.1-0.5-0.3-0.6l6-5.1c0.1,0,0.1,0.1,0.2,0.1c1.3,0.7,2.6,0.8,3,0.1
		c0.4-0.7-0.3-1.8-1.6-2.5c-0.9-0.5-1.8-0.7-2.4-0.5L96.3,383c0-0.1,0-0.1,0-0.2c0-0.8-0.6-1.4-1.4-1.4c-0.8,0-1.4,0.6-1.4,1.4
		c0,0.8,0.6,1.4,1.4,1.4c0.4,0,0.7-0.1,0.9-0.4l24.1,12.6c0,0.4,0.2,0.9,0.7,1.4l-6.3,5.3c0,0,0,0,0,0c-0.8,0-1.4,0.5-1.4,1.1
		c0,0.6,0.6,1.1,1.4,1.1l3.3,6.4c0.1,0.1,0.2,0.2,0.3,0.3l21.6,5.9c0.1,0.2,0.2,0.4,0.4,0.6l-5.1,5.2l-20.3-11.8
		c-0.2-0.1-0.5-0.1-0.7,0.2c-0.1,0.2-0.1,0.5,0.2,0.7l15,8.7l-14.5-5.7l-10.8-9.6c-0.2-0.2-0.5-0.2-0.7,0c-0.2,0.2-0.2,0.5,0,0.7
		l10.9,9.6c0,0,0.1,0.1,0.1,0.1l20.6,8.1c0.1,0,0.1,0,0.2,0c0.1,0,0.2,0,0.2-0.1c0,0,0,0,0.1,0c0,0,0,0,0.1,0l5.4-5.5
		c0.3,0.2,0.7,0.5,1,0.6c1.6,0.8,3.3,0.8,3.7,0c0,0,0,0,0-0.1l8,4.8l-3,3.2c-0.1,0-0.3-0.1-0.4-0.1c-0.5,0-0.9,0.2-1.1,0.5l-8.8-4.3
		c-0.3-0.1-0.5,0-0.7,0.2c-0.1,0.2,0,0.5,0.2,0.7l8.9,4.4c0,0.8,0.7,1.4,1.4,1.4c0.8,0,1.4-0.6,1.4-1.4c0-0.3-0.1-0.5-0.2-0.8l3-3.3
		l5,3c0.1,0,0.2,0.1,0.3,0.1c0.2,0,0.3-0.1,0.4-0.2c0.1-0.2,0.1-0.5-0.2-0.7l-4.8-2.9l1.5-1.6c1.5,0.9,3,1,3.5,0.3c0,0,0,0,0,0
		l8.4,6l-2.2,1.2l-11.4,1.7c-0.3,0-0.5,0.3-0.4,0.6c0,0.3,0.3,0.5,0.6,0.4l11.2-1.7c0,0,0.1,0.1,0.1,0.1l5.3,4.6
		c-0.4,0.1-0.7,0.3-0.7,0.6c0,0.4,0.8,0.7,1.7,0.7c0.9,0,1.7-0.3,1.7-0.7c0-0.4-0.6-0.7-1.5-0.7l-5.7-5l2.2-1.2l12.9,11.9
		c0.1,0.1,0.2,0.1,0.3,0.1c0.1,0,0.3-0.1,0.4-0.2c0.2-0.2,0.2-0.5,0-0.7L170.2,429l2.1-1.2c0.3,0.2,0.7,0.4,1.1,0.4
		c0.4,0,0.8-0.1,1-0.3l8.2,8.8c0.1,0.1,0.2,0.2,0.4,0.2h29.7c0.1,0.1,0.2,0.3,0.4,0.4l-5.1,4.4c-0.2,0-0.3-0.1-0.5-0.1
		c-0.5,0-0.9,0.2-1.2,0.4l-8.3-1.3c-0.2-0.3-0.4-0.5-0.8-0.5c-0.5,0-0.9,0.4-0.9,0.9c0,0.5,0.4,0.9,0.9,0.9c0.3,0,0.5-0.1,0.7-0.3
		l8.2,1.3c0.2,0.4,0.7,0.7,1.4,0.7c0.8,0,1.5-0.5,1.5-1.1c0-0.2,0-0.3-0.1-0.4l5.3-4.5c0.3,0.1,0.5,0.1,0.9,0.1c0,0.1,0,0.3,0.2,0.4
		l5.2,4.5c-0.3,0.1-0.6,0.1-0.6,0.3c0,0.2,0.6,0.3,1.4,0.3s1.4-0.1,1.4-0.3c0-0.1-0.4-0.3-1-0.3c0-0.1,0-0.3-0.2-0.4l-5.2-4.5
		c1.3-0.1,2.2-0.6,2.2-1.2c0-0.7-1.3-1.3-2.9-1.3c-0.4,0-0.7,0-1,0.1l-8.7-7.5l15.5,0.1c0,0,0,0.1,0,0.1c0,0.8,0.8,1.5,1.8,1.6v8.1
		c0,0.2,0.1,0.4,0.3,0.4l9.8,4.9c0.1,0,0.1,0.1,0.2,0.1c0.1,0,0.2,0,0.2-0.1c0.3,0.1,0.6,0.2,1,0.2c1,0,1.8-0.5,1.8-1.2
		s-0.8-1.2-1.8-1.2c-0.9,0-1.6,0.4-1.8,1l-8.8-4.4v-7.8c1.1-0.2,1.8-0.8,1.8-1.6c0-0.2-0.1-0.4-0.2-0.6l15.9-8.3l22.9,6.4
		c0,0,0,0,0.1,0l6.9,7.6l-1.3,4.1l-25.7,4.6c-0.2,0-0.5-0.1-0.7-0.1c-0.2,0-0.3,0-0.4,0l-7.1-5c0-0.1,0.1-0.3,0.1-0.4
		c0-0.2,0-0.3-0.1-0.4l14.3-10.4c0.4-0.1,0.7-0.5,0.7-0.9c0-0.5-0.4-0.9-0.9-0.9s-0.9,0.4-0.9,0.9c0,0.1,0,0.3,0.1,0.4l-13.9,10.2
		c-0.2-0.1-0.3-0.1-0.5-0.1c-0.7,0-1.3,0.6-1.3,1.3c0,0.7,0.6,1.3,1.3,1.3c0.2,0,0.4,0,0.5-0.1l6.6,4.7c-0.1,0.1-0.2,0.2-0.2,0.4
		c0,0.4,0.8,0.8,1.7,0.8c0.9,0,1.6-0.3,1.7-0.7l25.2-4.5c0,0,0,0,0,0c0,0,0,0,0,0l29.1-9.5c0.2,0.2,0.5,0.3,0.7,0.3
		c0.5,0,1-0.4,1.1-0.9l26.4-9.2c0.1,0.1,0.3,0.1,0.5,0.1c0.6,0,1-0.5,1-1s-0.5-1-1-1c-0.6,0-1,0.5-1,1l-26.2,9.1l-6.7-6.6
		c0-0.1,0.1-0.2,0.1-0.4c0-0.6-0.6-1.1-1.4-1.1c-0.1,0-0.3,0-0.4,0.1l-6.3-4.1l17.4-8.5c0.2,0.2,0.5,0.3,0.8,0.3l0.4,12.3
		c-0.6,0.1-1,0.5-1,1.1c0,0.6,0.5,1.1,1.1,1.1c0.5,0,0.9-0.3,1.1-0.8l15-1.7c0.2,0.1,0.4,0.2,0.6,0.2c0.5,0,0.9-0.3,1-0.8l9-7.6
		c0.1-0.1,0.2-0.2,0.2-0.4c0.1,0,0.2,0,0.3,0c1,0,1.8-0.3,1.8-0.8c0-0.3-0.3-0.5-0.8-0.6l3.5-10.4c0.4,0.2,0.9,0.2,1.4,0.2
		c1.3,0,2.4-0.6,2.5-1.3l11.9-0.3c0.1,0.5,0.5,0.8,1,0.8c0.5,0,1-0.4,1-1c0-0.5-0.4-1-1-1c-0.2,0-0.3,0.1-0.5,0.1l-12.3,0.3
		l19.8-14.6c0.2,0.2,0.5,0.4,0.9,0.4c0.7,0,1.2-0.5,1.2-1.2S362.5,379.9,361.8,379.9z M272.2,420.9l8.8-8.4l3.6,2.3L272.2,420.9z
		 M143.1,416.7c-0.6-0.3-1.2-0.5-1.8-0.5l-6.6-12.1l12.3,9.7L143.1,416.7z M154.1,423.7l-9-5.4c-0.3-0.3-0.6-0.7-1.1-1l3.8-2.9
		l6.5,5.1c-0.2,0.7,0.3,1.7,1.3,2.5L154.1,423.7z M158,419.5c-1-0.6-2.1-0.9-2.8-0.7l-6.5-5.1l10.5-7.8c0.4,0.2,0.8,0.3,1.2,0.3
		c0.1,0,0.2,0,0.3,0l4.2,7.2L158,419.5z M171.7,427l-2.4,1.3l-9.4-6.7c-0.2-0.5-0.6-1-1.1-1.5l6.7-6l6.6,11.3c0,0.1,0.1,0.1,0.2,0.2
		c-0.3,0.3-0.5,0.6-0.5,1.1C171.7,426.8,171.7,426.9,171.7,427z M204.3,416.5c4.7-2.7,12.7-7.2,17.8-10.2l5.8,8.4l-17.3,5.2
		L204.3,416.5z M183.3,435.9l-8.2-8.8c0,0,0-0.1,0-0.1l6.7,0.5c0.2,0.6,0.9,1.1,1.8,1.1c0.6,0,1.2-0.2,1.5-0.6l26.4,7.9H183.3z
		 M212.9,435.2l-25.2-7.5l16.6,0.1L212.9,435.2z M204.7,426.9l-3.5-3c0,0,0,0,0,0c0,0,0-0.1,0-0.1l9.2-2.8l11,6L204.7,426.9z
		 M225.1,426.8c-0.4-0.2-0.9-0.3-1.4-0.3c-0.3,0-0.7,0.1-0.9,0.1l-11-6l16.9-5.1l11.7,3.3L225.1,426.8z M293.4,421.3
		c0.2,0,0.4,0,0.6-0.1l5.9,5.9c-0.2,0.2-0.4,0.4-0.4,0.7l-28.1,9.2l1.2-3.5l20.2-12.3C292.9,421.3,293.1,421.3,293.4,421.3z
		 M332.7,408.6c0,0.1,0,0.1,0,0.2c0,0,0,0,0,0c-1,0-1.8,0.3-1.8,0.8c0,0.2,0.2,0.4,0.5,0.5l-8.6,7.2c-0.2-0.1-0.4-0.2-0.6-0.2
		c-0.5,0-0.9,0.4-1,0.8l-14.8,1.7c0,0,0,0,0-0.1l-0.4-12.9c0.4-0.2,0.6-0.6,0.7-1.1l29.7-7.5L332.7,408.6z"/>
	<ellipse class="st11" cx="344.7" cy="405.3" rx="0.4" ry="0.8"/>
	<circle class="st11" cx="358.7" cy="397.5" r="0.5"/>
	<path class="st9" d="M248.5,123.3c-1.2,0-2.1,0.9-2.1,2.1c0,0.3,0.1,0.6,0.2,0.9l-29.8,31c-0.3-0.2-0.8-0.4-1.2-0.4
		c-0.4,0-0.8,0.1-1.1,0.3L188,131.3c1.4-1.2,2.1-2.9,1.6-4.3c-0.7-2-3.5-2.9-6.2-1.9c-2.7,1-4.3,3.4-3.6,5.5
		c0.2,0.4,0.4,0.8,0.8,1.1c-7.5,6.5-21.7,18.7-26.9,23.4c-0.3-0.2-0.6-0.4-1-0.5l1.5-86.8c0.1,0,0.2,0,0.4,0c1.1,0,2-0.5,2-1.1
		c0-0.6-0.9-1.1-2-1.1c-1.1,0-2,0.5-2,1.1c0,0.2,0.1,0.3,0.2,0.5l-42.3,13c-0.4-0.6-1-0.9-1.7-0.9c-1.1,0-1.9,0.8-2,1.9l-17.5,1.7
		c0,0,0,0,0,0c0-0.7-0.9-1.2-2-1.2c-1.1,0-2,0.6-2,1.2c0,0.6,0.7,1.1,1.7,1.2c0,0,0,0,0,0c0,0,0,0,0,0h0c0.1,0,0.1,0,0.2,0
		c0.3,0,0.6,0,0.8-0.1l18.4-1.7l-23.2,25.2V89.6c0.3-0.2,0.5-0.6,0.5-1c0-0.7-0.6-1.3-1.3-1.3c-0.7,0-1.3,0.6-1.3,1.3
		c0,0.7,0.5,1.2,1.2,1.3v17.6c0,0,0,0,0,0c-0.7,0.1-1.2,0.6-1.2,1.3c0,0.5,0.3,0.9,0.7,1.1L74,130.1c-0.1-0.1-0.3-0.1-0.4-0.1
		c-1,0-1.8,1.1-1.8,2.4c0,1.3,0.8,2.4,1.8,2.4s1.8-1.1,1.8-2.4c0-0.7-0.2-1.3-0.5-1.7c0,0,0,0,0,0l7.8-20.6c0.6-0.2,1-0.6,1-1.2
		c0-0.1,0-0.3-0.1-0.4l23.7-25.8c0.4,0.4,0.9,0.6,1.5,0.6c1.1,0,2-0.9,2-2c0-0.1,0-0.1,0-0.2l41.4-12.7l-35.6,42.7L132,79.1
		c0.2,0.1,0.4,0.1,0.6,0.1c0.9,0,1.6-0.7,1.6-1.6s-0.7-1.6-1.6-1.6s-1.6,0.7-1.6,1.6c0,0.3,0.1,0.5,0.2,0.8l-16.4,33.9
		c-1-0.4-2.3-0.4-3.6-0.1l-1.8-23.8c0.8-0.2,1.3-0.8,1.3-1.5c0-0.9-0.9-1.6-2-1.6c-1.1,0-2,0.7-2,1.6c0,0.8,0.8,1.5,1.8,1.6
		l1.8,24.1c0,0,0,0,0,0c-0.5,0.2-1,0.6-1.4,0.9l-21-4.6c0,0,0,0,0-0.1c0-0.7-0.6-1.3-1.3-1.3c-0.7,0-1.3,0.6-1.3,1.3
		c0,0.7,0.6,1.3,1.3,1.3c0.3,0,0.6-0.1,0.8-0.3l20.6,4.5c-1,1.2-1.3,2.5-0.8,3.7c0.2,0.3,0.4,0.6,0.7,0.9l-23,24.8
		c-0.3-0.5-0.7-0.7-1.1-0.6c-0.7,0.1-1.1,1.3-0.9,2.6c0.2,1.3,1,2.3,1.7,2.2s1.1-1.3,0.9-2.6c0-0.2-0.1-0.4-0.1-0.5l23.4-25.3
		c1.2,0.5,2.9,0.4,4.5-0.3c1.6,1.8,6,6.1,17.5,17.1c-0.6,0.8-1,1.9-1,3.1c0,0.3,0,0.7,0.1,1l-16.3,11.2c-0.3-0.1-0.5-0.2-0.8-0.2
		c-0.9,0-1.6,0.5-1.9,1.3L69,153.6c0,0,0,0-0.1,0c-0.2-0.6-0.8-1.1-1.5-1.1c-0.9,0-1.6,0.7-1.6,1.6s0.7,1.6,1.6,1.6
		c0.7,0,1.3-0.5,1.5-1.1c0,0,0.1,0,0.1,0c0,0,0,0,0,0l41.8-0.9c0,0.2,0.1,0.4,0.1,0.5l-23.2,30.4c-0.3-0.5-0.6-0.7-1-0.7
		c-0.8,0-1.4,1.1-1.4,2.5s0.6,2.5,1.4,2.5c0.8,0,1.4-1.1,1.4-2.5c0-0.2,0-0.5-0.1-0.7c0.1,0,0.1-0.1,0.2-0.1l23.3-30.6
		c0.3,0.3,0.8,0.4,1.2,0.4c0,0,0,0,0,0l12.3,28.5c-0.3,0.6-0.5,1.2-0.6,1.8c-0.2,0.8-0.2,1.5-0.1,2.2L87,220.6
		c-0.5-1-1.1-1.6-1.7-1.6c-1.5,0-2.7,3-2.7,6.6c0,0.2,0,0.4,0,0.6l-22.3,9.2c-0.3-1-0.9-1.6-1.6-1.6c-1,0-1.8,1.3-1.8,2.9
		s0.8,2.9,1.8,2.9s1.8-1.3,1.8-2.9c0-0.1,0-0.1,0-0.2l22.2-9.2c0.1,1.5,0.5,2.7,1,3.6L78.4,255c0,0.1,0,0.1,0,0.2
		c-0.7,0.3-1.3,1.2-1.3,2.3c0,1.3,0.8,2.4,1.8,2.4s1.8-1.1,1.8-2.4c0-1.1-0.6-2-1.3-2.3l5-23.3c0.3,0.2,0.6,0.3,0.9,0.3
		c1,0,1.8-1.3,2.3-3.2l36.3,20c0.2,0.9,1,1.6,2,1.6c1.1,0,2-0.9,2-2c0-1-0.8-1.9-1.8-2l1-21.9c0.3,0.1,0.6,0.2,0.8,0
		c0.4-0.3,0.4-1.2-0.1-2c-0.5-0.8-1.3-1.2-1.7-0.9c-0.4,0.3-0.4,1.2,0.1,2c0,0,0.1,0.1,0.1,0.1c-0.1,0.1-0.1,0.2-0.1,0.3l-1,22.6
		c-0.5,0.2-0.9,0.6-1.1,1.2l-36.1-19.9c0.1-0.8,0.2-1.6,0.2-2.4c0-1-0.1-1.9-0.2-2.7l35.2-19.3c0.2,1.1,0.8,1.8,1.4,1.8
		c0.4,0,0.8-0.3,1-0.8l28,24.6c0.1,0.1,0.2,0.1,0.3,0.1c0,0,0,0,0.1,0c0.1,0.6,0.5,1.1,0.9,1.1c0.5,0,1-0.8,1-1.7
		c0-0.9-0.4-1.7-1-1.7c-0.4,0-0.8,0.5-0.9,1.2l-28-24.6c0.1-0.4,0.1-0.7,0.1-1.2c0-1.6-0.7-2.9-1.5-2.9c-0.8,0-1.5,1.3-1.5,2.9
		c0,0,0,0,0,0l-35.3,19.3c0-0.1-0.1-0.2-0.1-0.3l37.3-32.6c0.4,1.4,1.3,2.4,2.5,2.7c1.2,0.2,2.4-0.4,3.3-1.5l26.9,25.1
		c0.1,0.1,0.2,0.1,0.3,0.1c0.1,0,0.3-0.1,0.4-0.2c0.2-0.2,0.2-0.5,0-0.7l-27-25.2c0.4-0.6,0.7-1.4,0.8-2.2c0.4-2-0.1-3.9-1.1-5
		l20-22.7c0.4,0.2,0.8,0.4,1.3,0.4c0.4,0,0.7-0.1,1-0.2l12.7,18.5c-0.6,0.4-0.9,1.1-0.9,1.8c0,1.3,1.3,2.4,2.9,2.4
		c1.6,0,2.9-1.1,2.9-2.4s-1.3-2.4-2.9-2.4c-0.4,0-0.7,0.1-1.1,0.2L154,159c0.3-0.3,0.6-0.8,0.7-1.3l58.8,1.8c0.2,1,1.1,1.7,2.1,1.7
		c0.2,0,0.3,0,0.5,0l18.2,42.6c0.1,0.2,0.3,0.3,0.5,0.3c0.1,0,0.1,0,0.2,0c0.3-0.1,0.4-0.4,0.3-0.7L217,160.8c0.5-0.4,0.8-1,0.8-1.7
		c0-0.4-0.1-0.8-0.3-1.1l29.8-31c0.3,0.2,0.8,0.4,1.2,0.4c1.2,0,2.1-0.9,2.1-2.1S249.6,123.3,248.5,123.3z M125.8,182.8l-12-27.7
		c0.6-0.3,1-1,1-1.8c0-0.4-0.1-0.9-0.4-1.2l15.7-10.8c0.4,1,1,1.7,1.7,2.1l-3.9,37.8C127.2,181.5,126.4,182,125.8,182.8z
		 M151.6,154.6c-1.2,0.2-2.2,1.3-2.2,2.6c0,0.6,0.2,1.2,0.6,1.6l-20.1,22.7c-0.2-0.1-0.5-0.2-0.7-0.3c-0.1,0-0.1,0-0.2,0l3.9-37.4
		c0.1,0,0.2,0,0.4,0c1.9,0,3.4-2,3.4-4.5s-1.5-4.5-3.4-4.5c-0.6,0-1.2,0.2-1.7,0.7c-6.6-6.3-14.7-14.1-17.4-16.8
		c2-1.3,3-3.3,2.3-4.9c-0.1-0.2-0.2-0.4-0.3-0.5l37-44.3L151.6,154.6z M213.5,158.6l-58.8-1.8c-0.1-0.3-0.2-0.7-0.3-0.9
		c5-4.4,18.6-16.2,27-23.5c1.2,0.7,3,0.8,4.7,0.1c0.4-0.1,0.8-0.3,1.1-0.5l26.6,26C213.6,158.1,213.5,158.3,213.5,158.6z"/>
	<circle class="st11" cx="158.1" cy="215.3" r="2.5"/>
	<path class="st3" d="M248,13.8L217.5,6c0-0.5-0.7-1-1.6-1c-0.8,0-1.5,0.4-1.6,0.8l-27.9,6.9L198.9,6c0.3,0.1,0.6,0.1,0.9,0.1
		c1.1,0,2-0.4,2-0.9s-0.9-0.9-2-0.9c-1.1,0-2,0.4-2,0.9c0,0.1,0,0.1,0.1,0.2l-14.4,7.9c-0.3-0.1-0.7-0.2-1.1-0.2
		c-0.3,0-0.6,0-0.8,0.1l-6.8-2.8c-0.1-0.4-0.4-0.8-0.9-0.8c-0.3,0-0.6,0.2-0.7,0.4c-0.1,0.1-0.1,0.1-0.2,0.2c0,0.1,0,0.2,0,0.3
		c0,0,0,0.1,0,0.1c0,0.5,0.4,0.9,0.9,0.9c0.2,0,0.4-0.1,0.5-0.2l6,2.5c-0.2,0.2-0.4,0.5-0.4,0.8c0,0.4,0.3,0.8,0.7,1l-7.6,7.6
		c-0.1,0.1-0.2,0.3-0.1,0.5c0,0.2,0.2,0.3,0.3,0.4l22.6,7c0,0,0.1,0,0.1,0c0.2,0,0.4-0.1,0.5-0.4c0.1-0.3-0.1-0.5-0.3-0.6l-21.8-6.7
		l7.4-7.4c0.2,0,0.4,0.1,0.7,0.1c1.3,0,2.4-0.7,2.4-1.5c0-0.1,0-0.2-0.1-0.3l30.1-7.5c0.3,0.2,0.7,0.3,1.1,0.3c0.4,0,0.7-0.1,1-0.2
		l30.9,7.8c0,0,0.1,0,0.1,0c0.2,0,0.4-0.2,0.5-0.4C248.4,14.1,248.3,13.8,248,13.8z"/>
	<ellipse class="st12" cx="164.7" cy="37.9" rx="1.9" ry="0.7"/>
	<path class="st3" d="M173.5,22.7c-0.4,0-0.7,0-1,0.1l-13.1-4.9c0.2-0.2,0.3-0.4,0.3-0.6c0-0.7-1.2-1.2-2.6-1.2s-2.6,0.5-2.6,1.2
		c0,0.1,0,0.2,0.1,0.3L135.3,25c-0.1-0.2-0.3-0.3-0.6-0.3c-0.4,0-0.8,0.3-0.8,0.8c0,0,0,0,0,0.1l-12.6,6.2c-0.1,0-0.2,0-0.3,0
		c-1.2,0-2.2,0.4-2.2,0.9c0,0.3,0.3,0.5,0.7,0.7l-1.2,1.6c0,0,0,0,0,0l-2.3,3.1c0,0,0,0.1-0.1,0.1l-2.4,6.4
		c-0.5,0.2-0.9,0.7-0.9,1.2c0,0.1,0,0.2,0.1,0.3L93.5,65.3c-1.1,0.1-2,0.8-2,1.7c0,0.9,1,1.7,2.3,1.7s2.3-0.8,2.3-1.7
		c0-0.1,0-0.2,0-0.3l24.1-12.1c0.3,0.1,0.6,0.1,0.9,0.1c1.2,0,2.2-0.6,2.2-1.4c0,0,0,0,0,0l19.6-4.9c0,0,0,0,0,0l17.7-2.6
		c0.1,0,0.3-0.1,0.4-0.2l12.4-20.8c0.1,0,0.1,0,0.2,0c1.5,0,2.6-0.5,2.6-1.1S174.9,22.7,173.5,22.7z M157.1,18.5
		c0.3,0,0.6,0,0.9-0.1l13,4.9c-0.2,0.1-0.3,0.3-0.3,0.5c-6.5,1.6-23.7,6-25,6.4c-0.1,0-0.1,0.1-0.2,0.1c0,0-0.1,0-0.2,0l10.7-11.8
		C156.5,18.5,156.8,18.5,157.1,18.5z M154.8,18.5L144.3,30c-0.3,0-0.6-0.1-1-0.1c-0.4,0-0.9,0-1.3,0.1l-6.1-4.3L154.8,18.5z
		 M120.7,33.6c0.1,0,0.3,0,0.4,0c1.2,0,2.2-0.4,2.2-0.9c0-0.2-0.1-0.4-0.4-0.5l12-5.9l5.9,4.1c-1,0.3-1.7,0.8-1.7,1.4L120,34.6
		L120.7,33.6z M117,38.7l2.2-2.9l19.8-3l-24,12.1c-0.1-0.1-0.2-0.1-0.2-0.2L117,38.7z M118.9,53.4c0,0.4,0.3,0.7,0.7,1L95.9,66.3
		c-0.3-0.5-0.9-0.8-1.6-0.9l18.9-18.7c0.2,0.3,0.6,0.5,1,0.5c0.2,0,0.4-0.1,0.6-0.2l5.8,5.1C119.6,52.3,118.9,52.8,118.9,53.4z
		 M122.1,52.2c-0.3-0.1-0.6-0.1-0.9-0.2l-6.1-5.3c0.2-0.2,0.3-0.5,0.3-0.8c0,0,0-0.1,0-0.1l24.3-12.2L122.1,52.2z M123.4,52.3
		l17.8-19c0.1,0,0.2,0.1,0.4,0.1l0.7,14.1L123.4,52.3z M160.2,44.9l-16.9,2.4l-0.7-13.8c0.3,0,0.5,0,0.8,0c2.4,0,4.3-0.8,4.3-1.8
		c0-0.4-0.3-0.7-0.7-1c4-1.1,19.4-4.9,24.7-6.3c0.1,0.1,0.3,0.1,0.5,0.1L160.2,44.9z"/>
	<ellipse class="st12" cx="142" cy="47" rx="1.6" ry="0.9"/>
	<circle class="st12" cx="160" cy="45.3" r="1.4"/>
	<circle class="st12" cx="164.4" cy="46.1" r="1.5"/>
	<ellipse class="st12" cx="197.3" cy="30.3" rx="1.3" ry="2.1"/>
	<path class="st13" d="M328.9,31.8c-0.3-0.2-0.7-0.2-1-0.2c-4.7-2.4-30.5-13.6-33.6-15c0,0-0.1,0-0.1,0c-0.1-0.3-0.4-0.5-0.8-0.5
		c-0.5,0-0.8,0.4-0.8,0.8c0,0.5,0.4,0.8,0.8,0.8c0.2,0,0.3-0.1,0.5-0.2l8.8,9.7c-0.3,0.1-0.5,0.4-0.5,0.6c-0.2,0.8,0.5,1.6,1.6,2
		c1.1,0.3,2.1,0,2.4-0.6l11.6,2.5c0.1,0.4,0.4,0.8,0.8,1.1c0.7,0.4,1.5,0.2,1.8-0.4s0-1.3-0.8-1.7c-0.6-0.3-1.2-0.2-1.5,0.1
		l-12.1-2.6c-0.3-0.4-0.8-0.8-1.4-1c-0.3-0.1-0.5-0.1-0.7-0.1l-7.7-8.5c11.8,5.1,27.5,12,31.2,13.9c0.1,0.3,0.5,0.7,1,0.9
		c0.7,0.3,1.5,0.3,1.7-0.1S329.6,32.1,328.9,31.8z"/>
	
		<ellipse transform="matrix(0.5715 -0.8206 0.8206 0.5715 98.8648 288.9395)" class="st10" cx="326.1" cy="49.8" rx="1.2" ry="2.2"/>
	<path class="st13" d="M359.2,72.2c-0.3,0-0.6,0.2-0.8,0.4L338,55.5c-0.1-0.2-0.1-0.4-0.2-0.6c-0.2-0.4-0.5-0.6-0.8-0.8
		c-0.8-2.8-1.5-5.8-1.7-7.3c0.6,0.1,1.1-0.1,1.3-0.5c0.2-0.5-0.3-1.3-1.2-1.7c-0.9-0.4-1.9-0.3-2.1,0.2c-0.2,0.5,0.2,1.2,1,1.6
		c0.1,1.1,0.4,3.2,1.6,7.5c0,0,0,0,0,0c-0.5,0.3-0.6,1.2-0.2,2l-4.8,8.2c-0.3,0-0.6,0.4-0.6,0.9c0,0.5,0.3,0.9,0.6,0.9
		s0.6-0.4,0.6-0.9c0,0,0,0,0-0.1l4.8-8.2c0.4,0.3,0.9,0.4,1.3,0.2c0.1-0.1,0.2-0.2,0.3-0.3l20.3,17c0.2,0.4,0.5,0.6,1,0.6
		c0.6,0,1.1-0.5,1.1-1.1S359.8,72.2,359.2,72.2z"/>
	<circle class="st10" cx="367.9" cy="119.7" r="1.5"/>
	<ellipse class="st10" cx="327.7" cy="109.4" rx="1.6" ry="1.1"/>
	<ellipse class="st5" cx="386.7" cy="154" rx="1.3" ry="2"/>
	<ellipse class="st5" cx="404" cy="133.3" rx="1.4" ry="2"/>
	<path class="st5" d="M397.6,98.5c0.1,0,0.2,0,0.3-0.1c0.5-0.2,0.6-0.9,0.3-1.5c-0.3-0.6-0.9-0.9-1.4-0.7c-0.4,0.2-0.6,0.9-0.3,1.5
		l1.7,11.6l-11.3,1.4l-7.1-4.8c0-0.1,0-0.2,0-0.2c0-0.7-0.6-1.3-1.3-1.3c-0.5,0-0.9,0.3-1.1,0.6c-1.7-0.7-4.7-2.4-8.3-4.4l-0.6-10.6
		c0.4-0.3,0.7-0.8,0.7-1.5c0-0.9-0.5-1.7-1.1-1.7s-1.1,0.7-1.1,1.7c0,0.6,0.3,1.2,0.6,1.5l0.6,10.1c-4.5-2.6-9.6-5.7-13.6-8.1
		c-0.2-0.4-0.6-0.7-1-0.7c-0.6,0-1.1,0.6-1.1,1.4c0,0.8,0.5,1.4,1.1,1.4c0.2,0,0.4-0.1,0.5-0.1l13,25l-38.5-9.8
		c-0.3-0.1-0.5,0.1-0.6,0.4c-0.1,0.3,0.1,0.5,0.4,0.6l39.6,10.1c0,0,0.1,0,0.1,0c0.2,0,0.3-0.1,0.4-0.2c0.1-0.2,0.1-0.4,0.1-0.5
		l-13.5-26c2.7,1.7,8.2,5,13.3,7.9l0.4,6.9c-0.4,0.3-0.7,0.8-0.7,1.3c0,0.7,0.5,1.4,1.2,1.5l17,42.7c0.1,0.2,0.3,0.3,0.5,0.3
		c0.1,0,0.1,0,0.2,0c0.3-0.1,0.4-0.4,0.3-0.6l-16.9-42.4c0.5-0.3,0.9-0.8,0.9-1.4c0-0.1,0-0.2,0-0.3l6.6-2.5
		c0.2,0.3,0.5,0.4,0.9,0.4c0.3,0,0.5-0.1,0.7-0.2l7.3,4.9c0.1,0.1,0.2,0.1,0.3,0.1c0,0,0,0,0.1,0l12-1.5c0.1,0,0.3-0.1,0.3-0.2
		c0.1-0.1,0.1-0.2,0.1-0.4L397.6,98.5z M370.6,108.1c-0.1,0-0.1,0.1-0.1,0.1c-0.3-0.2-0.6-0.4-0.9-0.4l-0.4-6.1c3,1.7,5.8,3.2,7.6,4
		L370.6,108.1z"/>
	<circle class="st5" cx="417.4" cy="140.7" r="1.2"/>
	<path class="st5" d="M419.1,121.4c-0.3-0.6-0.8-1-1.1-0.8c-0.1,0-0.1,0.1-0.2,0.2l-5.4-2.3c0-0.5-0.4-0.9-0.8-1
		c-0.3-3.3-0.4-6.8-0.1-7.4c0.1,0,0.1-0.1,0.2-0.2c0.1-0.1,0.1-0.2,0.1-0.3c0-0.3-0.3-0.6-0.6-0.6s-0.6,0.3-0.6,0.6
		c0,0.2,0.1,0.3,0.2,0.5c-0.3,1.3-0.1,5.1,0.1,7.5l-5.8-4.6c0-0.1,0-0.2,0-0.3c0-0.7-0.4-1.3-0.9-1.3c-0.3,0-0.5,0.2-0.7,0.6
		l-3.8-2.1l6.8-5.3c0.3,0.4,0.6,0.6,0.9,0.5c0.3-0.2,0.3-0.8,0-1.4c-0.3-0.6-0.8-1-1.1-0.8c-0.2,0.1-0.2,0.4-0.2,0.8l-7.6,5.9
		c-0.1,0.1-0.2,0.3-0.2,0.4c0,0.2,0.1,0.3,0.3,0.4l4.8,2.7c0,0,0,0,0,0.1l-6.2,6.4c0,0,0,0,0,0l-12.9-23.8c0.1-0.2,0-0.5-0.1-0.7
		c-0.3-0.5-0.9-0.7-1.4-0.4c-0.5,0.3-0.7,0.9-0.4,1.4c0.2,0.4,0.7,0.6,1.1,0.5l12.8,23.6c-0.1,0.3-0.1,0.7,0.1,1.2
		c0.3,0.7,1,1,1.4,0.8c0.4-0.2,0.5-1,0.2-1.6c0-0.1-0.1-0.1-0.1-0.1l6-6.2c0.1,0,0.2,0.1,0.3,0.1c0.1,0,0.3-0.1,0.4-0.1l5.5,4.3
		c-0.1,0.2-0.1,0.3-0.1,0.5c0,0.7,0.5,1.2,1.2,1.2l5.4,18.9l-14-15.1c0,0,0-0.1,0-0.1c0-0.9-0.4-1.7-1-1.7c-0.5,0-1,0.7-1,1.7
		s0.4,1.7,1,1.7c0.2,0,0.5-0.2,0.6-0.4l15,16.2c0.1,0.1,0.2,0.2,0.4,0.2c0.1,0,0.2,0,0.2-0.1c0.2-0.1,0.3-0.4,0.2-0.6l-6.1-21.1
		c0.1-0.1,0.1-0.1,0.1-0.2l5.6,2.3c0,0,0,0,0.1,0c0,0.1,0.1,0.3,0.2,0.4c0.3,0.6,0.8,1,1.1,0.8C419.4,122.7,419.4,122.1,419.1,121.4
		z"/>
	<path class="st5" d="M434.2,177.1L421.3,158c0.1-0.2,0.2-0.4,0.2-0.7c0-0.8-0.6-1.4-1.4-1.4c-0.8,0-1.4,0.6-1.4,1.4
		c0,0.2,0.1,0.5,0.2,0.6l-9.4,10.2c-0.2,0.2-0.2,0.5,0,0.7c0.2,0.2,0.5,0.2,0.7,0l9.4-10.2c0.1,0,0.3,0.1,0.4,0.1
		c0.1,0,0.2,0,0.4-0.1l12.8,19.1c0.1,0.1,0.3,0.2,0.4,0.2c0.1,0,0.2,0,0.3-0.1C434.3,177.7,434.3,177.4,434.2,177.1z"/>
	<ellipse class="st5" cx="409.7" cy="168.6" rx="0.6" ry="0.9"/>
	<ellipse class="st5" cx="434.7" cy="181.1" rx="0.8" ry="0.9"/>
	<path class="st5" d="M440.8,182.5c-0.2,0-0.4,0.3-0.5,0.7l-6.2-6.1c-0.1-0.1-0.2-0.1-0.4-0.1c-0.1,0-0.3,0.1-0.4,0.2l-4.6,6.1
		c-0.1,0-0.2-0.1-0.4-0.1c-0.6,0-1,0.5-1,1c0,0.3,0.2,0.6,0.4,0.8l-5.6,13.9c-0.1,0.2,0,0.4,0.1,0.5l11.9,13.8
		c0.1,0.1,0.2,0.2,0.4,0.2c0.1,0,0.1,0,0.2,0c0.2-0.1,0.3-0.3,0.3-0.5v-2.1c0-0.1,0-0.2,0-0.2l0-0.1V181c0-0.3-0.2-0.5-0.5-0.5
		s-0.5,0.2-0.5,0.5v25l-4-17.7c0.2-0.2,0.3-0.4,0.3-0.6c0-0.5-0.4-0.9-0.9-0.9s-0.9,0.4-0.9,0.9c0,0.4,0.2,0.7,0.5,0.8l5,22v1
		L423.3,199l5.6-13.9c0.3-0.2,0.5-0.5,0.5-0.9c0,0,0-0.1,0-0.1l4.4-5.9l6.5,6.3c0.1,0.5,0.3,0.9,0.5,0.9c0.3,0,0.6-0.6,0.6-1.4
		C441.4,183.2,441.1,182.5,440.8,182.5z"/>
	<path class="st5" d="M444.2,235.6l-4.6-8.7c0-0.1,0-0.3,0-0.4c0-0.2,0-0.4-0.1-0.6l4.5-12.1c0.4,0,0.7-0.4,0.7-0.9
		c0-0.5-0.3-0.9-0.7-0.9c-0.4,0-0.6,0.4-0.7,0.9l-4.6,12.1l-3.6-11.9l7.2-8.2c0.1,0,0.1,0.1,0.2,0.1c0.4,0,0.8-0.6,0.8-1.3
		c0-0.7-0.4-1.3-0.8-1.3s-0.8,0.6-0.8,1.3c0,0.1,0,0.2,0,0.3l-7.5,8.7c-0.1,0.1-0.2,0.3-0.1,0.5l3.8,12.5c0,0.1-0.1,0.2-0.1,0.3
		l-10.9-2.4c-0.2-0.4-0.6-0.7-1-0.7c-0.6,0-1.1,0.7-1.1,1.5c0,0.6,0.3,1.1,0.6,1.3c-0.3,5.6-0.7,13-0.5,15.7c-0.2,0.2-0.4,0.6-0.4,1
		c0,0.7,0.4,1.2,0.8,1.2c0.5,0,0.8-0.6,0.8-1.2c0-0.4-0.1-0.7-0.3-1c-0.1-2,0.2-9.8,0.6-15.7c0.3-0.2,0.6-0.6,0.6-1.1l10.6,2.3
		c0.1,0.7,0.5,1.3,1,1.3c0.1,0,0.2,0,0.3-0.1l4.4,8.4c0,0.1,0,0.2,0,0.2c0,0.6,0.3,1,0.7,1c0.4,0,0.7-0.5,0.7-1
		C444.8,236,444.5,235.6,444.2,235.6z"/>
	<ellipse class="st5" cx="435.9" cy="238" rx="1.2" ry="1.5"/>
	<ellipse class="st5" cx="444.4" cy="244.3" rx="0.4" ry="1.4"/>
	<path class="st5" d="M439,170.3c-0.3,0-0.5,0.4-0.6,0.9l-8.4-5.5c0.5-1.6,2.8-8.4,3.8-11.1c0.1,0.1,0.2,0.1,0.3,0.1
		c0.5,0,0.9-0.6,0.9-1.3s-0.4-1.3-0.9-1.3c-0.5,0-0.9,0.6-0.9,1.3c-0.7,1.5-3,8.5-3.9,11.2l-11.2-24.1c-0.1-0.2-0.2-0.3-0.4-0.3
		c-0.2,0-0.3,0.1-0.5,0.2l-12.8,17.8c-0.1-0.1-0.3-0.2-0.5-0.2c-0.7,0-1.2,0.9-1.2,2.1s0.5,2.1,1.2,2.1c0.5,0,1-0.6,1.1-1.5
		l19.4,12.2c-0.1,0.2-0.1,0.4-0.1,0.6c0,0.5,0.3,1,0.7,1.3l-7.5,26.4c-0.3,0-0.5,0.2-0.7,0.4l-10.7-13c0,0,0,0,0,0c0,0,0-0.1,0-0.1
		c0-0.5-0.4-0.9-0.9-0.9c-0.5,0-0.9,0.4-0.9,0.9c0,0.5,0.4,0.9,0.9,0.9c0.1,0,0.1,0,0.2,0l11,13.4c0,0.1,0,0.1,0,0.2
		c0,0.2,0,0.4,0.1,0.6l-18.3,22.6c-0.2,0.2-0.1,0.5,0.1,0.7c0.1,0.1,0.2,0.1,0.3,0.1c0.1,0,0.3-0.1,0.4-0.2l18.1-22.3
		c0.1,0.1,0.3,0.2,0.5,0.2l7.9,19c0.1,0.2,0.3,0.3,0.5,0.3c0.1,0,0.1,0,0.2,0c0.3-0.1,0.4-0.4,0.3-0.7l-8-19.2
		c0.2-0.3,0.3-0.7,0.3-1.1c0-0.4-0.1-0.8-0.3-1.1l7.6-26.8c0.8-0.1,1.4-0.7,1.4-1.5c0-0.4-0.2-0.9-0.5-1.1l2.5-5.8l8.7,5.7
		c0.1,0.8,0.3,1.4,0.7,1.4c0.4,0,0.7-0.8,0.7-1.7S439.4,170.3,439,170.3z M426.2,172.1c0,0-0.1,0-0.1,0c-0.3,0-0.5,0.1-0.7,0.2
		l-20.1-12.6c0-0.2-0.1-0.4-0.1-0.6l12.5-17.4l11.3,24.3L426.2,172.1z"/>
	<ellipse class="st5" cx="415.9" cy="223.2" rx="1.1" ry="1.8"/>
	<circle class="st5" cx="413.5" cy="250.6" r="1"/>
	<ellipse class="st5" cx="424.1" cy="250" rx="1.1" ry="1.6"/>
	<ellipse class="st7" cx="439.3" cy="271.1" rx="0.4" ry="0.8"/>
	<ellipse class="st5" cx="433.1" cy="292.9" rx="0.7" ry="1.3"/>
	<ellipse class="st5" cx="412.2" cy="335.8" rx="0.7" ry="1"/>
	<path class="st5" d="M406.1,345.6c-0.5,0-1,0.2-1,0.5c0,0.1,0,0.1,0.1,0.2l-8.2,11.6c0,0-0.1,0-0.1,0c-0.6,0-1,0.5-1,1
		c0,0.2,0,0.3,0.1,0.4l-16.2,14.5c0,0,0-0.1-0.1-0.1l9.4-12.4c0.1,0,0.1,0,0.2,0c0.4,0,0.7-0.5,0.7-1s-0.3-1-0.7-1s-0.7,0.5-0.7,1
		c0,0,0,0,0,0.1l-9.6,12.6l-0.3-4.4c0.2-0.2,0.3-0.5,0.3-0.8c0-0.6-0.5-1.1-1.1-1.1s-1.1,0.5-1.1,1.1c0,0.5,0.4,1,0.9,1.1l0.3,5.6
		c0,0,0,0,0,0c0,0,0,0.1-0.1,0.1l-10.4,2.1c-0.2-0.4-0.6-0.6-1.1-0.6c-0.7,0-1.3,0.6-1.3,1.3c0,0.7,0.6,1.3,1.3,1.3
		c0.6,0,1.1-0.4,1.2-0.9l10.1-2l-6.3,5.6L358.9,397l-14,7.9c-0.2,0.1-0.3,0.4-0.2,0.7c0.1,0.2,0.3,0.3,0.4,0.3c0.1,0,0.2,0,0.2-0.1
		l14-7.9c0.1,0,0.1-0.1,0.1-0.1l12.7-15.9l6.4-5.7c0.1,0,0.2,0.1,0.3,0.1c0.6,0,1.1-0.5,1.1-1.1c0-0.1,0-0.1,0-0.2l16.8-15
		c0,0,0,0,0,0c0.6,0,1-0.5,1-1c0-0.2,0-0.3-0.1-0.4l8.4-11.9c0.4,0,0.8-0.2,0.8-0.5C407.1,345.8,406.6,345.6,406.1,345.6z"/>
	<path class="st5" d="M390.4,367.4c-0.5,0-1,0.5-1,1.2l-10.8,11.8c0,0-0.1,0-0.1,0c-0.9,0-1.6,0.4-1.6,0.9c0,0.2,0.1,0.3,0.2,0.4
		l-10.3,8.4c-0.1-0.1-0.2-0.2-0.3-0.2c-0.3,0-0.6,0.5-0.6,1.1c0,0.6,0.3,1.1,0.6,1.1c0.3,0,0.5-0.4,0.5-0.9l11.2-9
		c0.1,0,0.2,0,0.3,0c0.9,0,1.6-0.4,1.6-0.9c0-0.2-0.2-0.4-0.4-0.6l10.1-11c0.2,0.2,0.4,0.4,0.7,0.4c0.6,0,1-0.6,1-1.4
		C391.4,368.1,391,367.4,390.4,367.4z"/>
	<ellipse class="st5" cx="162.2" cy="291.1" rx="2" ry="1.4"/>
	<circle class="st5" cx="215.1" cy="280.4" r="1.7"/>
	<path class="st5" d="M361.2,78.2c0-0.6-0.5-1-1-1s-1,0.5-1,1c0,0.2,0.1,0.4,0.2,0.6c-1.1,1.8-4.6,6.5-6.4,8.8
		c-0.3-0.5-0.9-0.9-1.5-0.9c-0.1,0-0.3,0-0.4,0l-13.7-18c0-0.1,0-0.1,0-0.2c0-0.7-0.6-1.3-1.3-1.3c-0.7,0-1.3,0.6-1.3,1.3
		c0,0.7,0.6,1.3,1.3,1.3c0.2,0,0.5-0.1,0.6-0.2l13.3,17.5L318.3,75c-0.1-1-0.6-1.7-1.3-1.7c-0.7,0-1.3,0.9-1.3,2c0,0,0,0,0,0.1
		c-12.4,8.4-30,20.3-33.6,22.4c-0.1,0-0.2,0-0.3,0c-0.8,0-1.4,0.5-1.4,1s0.6,1,1.4,1c0.8,0,1.4-0.5,1.4-1c0-0.2,0-0.3-0.1-0.4
		c4.7-2.8,19.7-12.9,32.9-21.9c0.2,0.5,0.6,0.8,1.1,0.8c0.5,0,1-0.5,1.2-1.2l31.4,12.1c0,0.1-0.1,0.3-0.1,0.5c0,1,0.8,1.8,1.8,1.8
		c0.9,0,1.6-0.6,1.8-1.5c1.5-2,5.9-7.7,7.1-9.7C360.8,79.1,361.2,78.7,361.2,78.2z"/>
	<path class="st5" d="M428.8,299.9l-6.6-8c-0.1-0.1-0.3-0.2-0.4-0.2c-0.2,0-0.3,0.1-0.4,0.2l-19.9,26.9c0,0.1-0.1,0.1-0.1,0.2
		l-2.8,18.2c-0.3,0.1-0.5,0.3-0.7,0.5L386,332c0,0,0-0.1,0-0.1c0-1.1-0.9-1.9-1.9-1.9s-1.9,0.9-1.9,1.9c0,0.6,0.3,1.1,0.7,1.5
		c-3.2,2.3-15.5,13.7-21.1,18.9c0,0,0,0,0,0l6.4-21.5c1,0,1.7-0.8,1.7-1.8c0-1-0.8-1.8-1.8-1.8s-1.8,0.8-1.8,1.8
		c0,0.7,0.4,1.2,0.9,1.5l-6.4,21.3c-0.1,0-0.1,0-0.2,0c-0.7,0-1.3,0.5-1.4,1.2L321.5,341c0-0.5-0.2-1-0.5-1.3
		c7.4-6.9,17.8-16.3,21.6-19.2c0.3,0.1,0.7,0.2,1.1,0.2c1.4,0,2.6-1.2,2.6-2.6c0-1.3-0.9-2.3-2.1-2.6l-2.5-29.3c0.6-0.2,1-0.7,1-1.3
		c0-0.8-0.6-1.4-1.4-1.4c-0.7,0-1.3,0.5-1.4,1.2c-8.8,4.6-27.7,14.4-33.4,17.2c-0.3-0.4-0.6-0.8-1.1-1l8.8-55.3
		c0.2,0.1,0.5,0.1,0.7,0.1c1.3,0,2.4-1.2,2.4-2.7c0-1.5-1.1-2.7-2.4-2.7c-1.2,0-2.2,1.1-2.4,2.4l-24.3,6.5c-0.3-0.6-0.9-1-1.6-1
		c-1,0-1.8,0.8-1.8,1.8s0.8,1.8,1.8,1.8c1,0,1.8-0.8,1.8-1.7l24.1-6.5c0.1,0.5,0.3,0.9,0.6,1.2l-8.8,55.4c-0.4-0.1-0.7-0.2-1.1-0.2
		c-0.2,0-0.3,0-0.5,0l-36.6-54.4c0.9-0.9,1.4-2.1,1.4-3.4c0-2.7-2.2-4.9-4.9-4.9c-0.7,0-1.4,0.2-2,0.4l-21-26.6
		c0.9-0.9,1.4-2,1.4-3.4c0-2.6-2.1-4.8-4.8-4.8s-4.8,2.1-4.8,4.8c0,2.2,1.6,4.1,3.7,4.6l-4.6,10.9c-0.8,0.1-1.4,0.7-1.4,1.5
		c0,0.9,0.7,1.6,1.6,1.6c0.9,0,1.6-0.7,1.6-1.6c0-0.6-0.3-1-0.7-1.3l4.6-11c0,0,0,0,0.1,0c1,0,1.8-0.3,2.6-0.8l20.9,26.4
		c-1.2,0.9-2.1,2.3-2.1,4c0,2,1.2,3.6,2.8,4.4l-19.9,62.6c-0.5,0-1,0.1-1.5,0.3l-23.1-29.7c-0.2-0.2-0.5-0.3-0.7-0.1
		c-0.2,0.2-0.3,0.5-0.1,0.7l22.9,29.4c-1.4,0.7-2.3,2-2.3,3.4c0,2.3,2.3,4.1,5.2,4.1c2.3,0,4.2-1.2,4.9-2.8l35.2,26.8
		c-0.3,0.3-0.5,0.6-0.5,1c0,0.9,1.1,1.6,2.5,1.8c-1.4,4.5-11.8,37.5-13.2,43.7c-0.1,0-0.1,0-0.1,0c-1.3,0-2.3,0.5-2.3,1
		c0,0.6,1,1,2.3,1s2.3-0.5,2.3-1c0-0.4-0.5-0.7-1.2-0.9c1-4.6,8.2-27.9,13.2-43.6c0-0.1,0-0.1,0-0.2c1.2-0.1,2.2-0.7,2.4-1.5
		l29.8-1.5c0.1,0.7,0.4,1.3,1,1.7c-9.3,10.9-22.3,25.8-25.8,29.4c-0.1,0-0.3-0.1-0.4-0.1c-1,0-1.7,0.8-1.7,1.7c0,1,0.8,1.7,1.7,1.7
		c1,0,1.7-0.8,1.7-1.7c0-0.4-0.2-0.8-0.4-1.1c4.7-4.8,20.7-23.4,25.9-29.4c0.2,0,0.3,0,0.5,0c0,0,0,0,0,0l10,24.1
		c-0.4,0.3-0.6,0.7-0.6,1.2c0,0.9,0.7,1.6,1.6,1.6c0.8,0,1.5-0.6,1.6-1.4l21.5-9.2c0.1,0.1,0.2,0.2,0.3,0.3l-20.8,22.5
		c-0.5,0-0.9,0.4-0.9,0.9c0,0.5,0.4,0.9,0.9,0.9c0.5,0,0.9-0.4,0.9-0.9c0-0.1,0-0.3-0.1-0.4l21-22.7c0,0,0.1,0,0.1,0l6.5,12.6
		c0.1,0.2,0.4,0.3,0.7,0.2c0.2-0.1,0.3-0.4,0.2-0.7l-6.6-12.7c0.2-0.2,0.3-0.5,0.3-0.8c0-0.8-0.6-1.4-1.4-1.4
		c-0.7,0-1.2,0.5-1.4,1.1l-21.5,9.2c-0.3-0.5-0.8-0.8-1.4-0.8c0,0,0,0,0,0l-10-24c0.6-0.3,1-0.8,1.2-1.4l38.1,11.9
		c0.3,0.3,0.7,0.6,1.1,0.6c0.1,0,0.1,0,0.2,0l10,6.6c0.1,0.1,0.2,0.1,0.3,0.1c0.2,0,0.3-0.1,0.4-0.2c0.2-0.2,0.1-0.5-0.1-0.7
		l-9.6-6.3c0,0,0.1-0.1,0.1-0.1l17.7-8.9c0.2,0.4,0.7,0.7,1.2,0.7c0.8,0,1.4-0.6,1.4-1.4s-0.6-1.4-1.4-1.4c-0.7,0-1.3,0.5-1.4,1.2
		c-0.1,0-0.2,0-0.2,0l-15.5,7.8c8.3-7.7,19-17.4,20.1-17.9c0.1,0,0.1-0.1,0.2-0.1c0,0,0.1,0,0.1,0c0.7,0,1.3-0.3,1.6-0.9l10.9,5.3
		h-8.5c-0.2-0.5-0.6-0.8-1.1-0.8c-0.7,0-1.2,0.6-1.2,1.2s0.6,1.2,1.2,1.2c0.5,0,0.9-0.3,1.1-0.7h9.6c0,0,0,0,0,0.1
		c-2.9,3.7-14,17.6-16.5,20.5c0,0,0,0-0.1,0c-0.6,0-1.1,0.5-1.1,1.1c0,0.6,0.5,1.1,1.1,1.1c0.6,0,1.1-0.5,1.1-1.1
		c0-0.2-0.1-0.4-0.2-0.5c2.7-3.1,12.8-15.8,16.1-20c-0.5,4.8-1,9.7-1.3,11.3c-0.5,0.1-0.8,0.5-0.8,1c0,0.6,0.5,1.1,1.1,1.1
		s1.1-0.5,1.1-1.1c0-0.3-0.2-0.6-0.4-0.8c0.3-1.3,0.7-4.5,1.4-11.8c0.5-0.2,0.8-0.8,0.8-1.4c0,0,0-0.1,0-0.1
		c5.8-3.9,12-7.8,13.4-8.1c0.2,0.1,0.3,0.2,0.6,0.2c0.5,0,0.9-0.4,0.9-0.9s-0.4-0.9-0.9-0.9c-0.4,0-0.8,0.3-0.9,0.7
		c-1.9,0.6-6.4,3.2-13.4,8.1c0,0-0.1-0.1-0.1-0.1l2.8-18.2l19.5-26.3l6,7.3l-8.8,21.4c-0.1,0.3,0,0.5,0.3,0.7c0.3,0.1,0.5,0,0.7-0.3
		l8.9-21.7C428.9,300.2,428.9,300,428.8,299.9z M307.2,304c0-0.4-0.1-0.8-0.2-1.2c6.2-3.1,27.4-14.1,33.1-17.1
		c0.1,0.2,0.3,0.4,0.5,0.5l2.5,29.4c-0.6,0.1-1.2,0.5-1.6,1l-35.4-10C306.9,305.8,307.2,305,307.2,304z M241.9,309.5l19.8-62.3
		c0.4,0.1,0.7,0.1,1.1,0.1c1,0,1.9-0.3,2.7-0.8l36.4,54c-1.2,0.5-2.1,1.7-2.2,3.1l-54.1,7.7C244.8,310.3,243.5,309.7,241.9,309.5z
		 M284,340.8C284,340.8,284,340.8,284,340.8c-0.6,0-1.1,0.1-1.6,0.3l-35.9-27.3c0-0.1,0-0.2,0-0.3c0-0.5-0.1-0.9-0.3-1.4l53.6-7.6
		c0.2,1,0.7,1.9,1.5,2.4L284,340.8z M316.8,340.4l-30.1,1.5c-0.3-0.5-0.9-0.8-1.7-1l17.1-33.4c0.4,0.2,0.8,0.2,1.3,0.2
		c0.4,0,0.8-0.1,1.2-0.2l13.2,31.6C317.4,339.4,317,339.9,316.8,340.4z M320.2,339.1c-0.3-0.2-0.7-0.3-1.1-0.3c-0.1,0-0.2,0-0.3,0
		l-13.1-31.4l35.5,10c-0.1,0.2-0.1,0.4-0.1,0.7c0,0.7,0.3,1.3,0.7,1.8C337.2,323.4,326.4,333.3,320.2,339.1z"/>
	<circle class="st5" cx="347" cy="255.8" r="1.3"/>
	<circle class="st5" cx="404.3" cy="227.5" r="0.8"/>
	<circle class="st5" cx="385.8" cy="266.8" r="1"/>
	<path class="st5" d="M409.2,168.1l-34.7-3.7c-0.1-0.9-0.9-1.5-1.8-1.5c-0.3,0-0.7,0.1-0.9,0.3l-26.4-28.8c0.1-0.6-0.2-1.3-0.9-1.7
		c-0.8-0.5-1.8-0.5-2.2,0l-60-0.8c-0.4-0.8-1.1-1.3-1.8-1c-0.6,0.2-0.8,1-0.6,1.8L236.1,159c-0.2-1-1.1-1.7-2.1-1.7
		c-1.2,0-2.2,1-2.2,2.2c0,0.3,0.1,0.5,0.1,0.8l-26.1,23.5c-0.3-0.4-0.7-0.6-1.1-0.6c-0.9,0-1.6,0.9-1.6,2.1c0,1.1,0.7,2,1.6,2.1
		l1.4,21.8c0,0,0,0,0,0c-1,0.1-1.9,0.5-2.6,1.1c0,0,0,0,0-0.1l-26.1-22.5c0.2-0.3,0.3-0.7,0.3-1.1c0-1.4-1.1-2.5-2.5-2.5
		c-1.4,0-2.5,1.1-2.5,2.5c0,1.4,1.1,2.5,2.5,2.5c0.6,0,1.1-0.2,1.6-0.6l26.1,22.5c0,0,0,0,0,0c-0.7,0.8-1.1,1.9-1.1,3
		c0,1.6,0.8,3.1,2.1,4L190.8,239c-0.9-0.8-2-1.3-3.3-1.3c-2.7,0-4.8,2.2-4.8,4.8c0,1.6,0.8,3.1,2.1,3.9l-11.3,11.9
		c-0.2-0.1-0.3-0.1-0.5-0.1c-0.8,0-1.4,0.6-1.4,1.4c0,0.8,0.6,1.4,1.4,1.4c0.8,0,1.4-0.6,1.4-1.4c0-0.3-0.1-0.5-0.2-0.7l11.4-12
		c0.6,0.2,1.2,0.4,1.9,0.4c0.2,0,0.3,0,0.5,0l10,30.2l-36.1,12.8c-0.3,0.1-0.4,0.4-0.3,0.6c0.1,0.3,0.4,0.4,0.6,0.3l36.1-12.8
		l5.3,15.9c0.1,0.2,0.3,0.3,0.5,0.3c0.1,0,0.1,0,0.2,0c0.3-0.1,0.4-0.4,0.3-0.6l-5.3-16l37.4-13.3c0.8,1.7,2.6,2.9,4.6,2.9
		c1.6,0,2.9-0.7,3.9-1.8l36.3,24.9c0,0.1,0,0.2,0,0.2c0,1,1,1.9,2.2,1.9c1.2,0,2.2-0.8,2.2-1.9s-1-1.9-2.2-1.9
		c-0.7,0-1.3,0.3-1.7,0.7l-36.1-24.8c0.4-0.7,0.6-1.5,0.6-2.4c0-2.8-2.3-5.1-5.1-5.1c-0.9,0-1.8,0.3-2.5,0.7l-29.5-40.2
		c1.3-0.9,2.3-2.4,2.3-4.1c0-2.5-1.9-4.5-4.4-4.8c0,0,0-0.1,0-0.1l-1.4-22.1c0.4-0.4,0.6-1,0.6-1.6c0-0.2,0-0.4-0.1-0.5l26.2-23.7
		c0.4,0.4,0.9,0.6,1.5,0.6c0.1,0,0.1,0,0.2,0l6,21c-0.1,0.1-0.2,0.1-0.3,0.2c-1.8,1.2-2.2,3.5-1.1,5.3c1.2,1.8,3.5,2.2,5.3,1.1
		c1.8-1.2,2.2-3.5,1.1-5.3c-0.9-1.4-2.5-2-4-1.6l-6-20.9c0.5-0.3,0.8-0.7,1-1.3l33,33.9c0,0,0.1,0,0.1,0.1c-0.1,0.2-0.1,0.3-0.1,0.5
		c0,0.8,0.7,1.5,1.5,1.5c0.8,0,1.4-0.6,1.5-1.4l21.8-13.9c0.3,0.4,0.8,0.6,1.3,0.8v38c-0.8,0.2-1.4,0.9-1.4,1.8c0,1,0.8,1.8,1.8,1.8
		s1.8-0.8,1.8-1.8c0-0.8-0.5-1.5-1.3-1.7v-37.9c0.3,0,0.6-0.1,0.9-0.2l33.3,39.8c-0.7,0.6-0.9,1.4-0.6,1.8c0.4,0.5,1.3,0.3,2.1-0.3
		c0.8-0.6,1.1-1.5,0.8-2c-0.3-0.3-0.8-0.3-1.4-0.1L297.9,181c0.4-0.4,0.7-0.9,0.7-1.5c0-0.7-0.4-1.3-1-1.7l45-43
		c0.1,0.1,0.1,0.1,0.2,0.2c0,0,0,0,0,0c-1.2,9.1-6,47.1-6.6,55c-0.7,0.2-1.2,0.8-1.2,1.4c0,0.8,0.9,1.5,2,1.5c0.3,0,0.6,0,0.8-0.1
		l40,30.5c0.1,0.7,0.6,1.2,1.3,1.2c0.6,0,1.2-0.5,1.3-1.2l16.6,3.4c0.2,0.7,0.8,1.3,1.5,1.3c0.9,0,1.6-0.9,1.6-1.9
		c0-1.1-0.7-1.9-1.6-1.9c-0.5,0-0.9,0.2-1.2,0.6l-19.9-21.2c0.1-0.2,0.1-0.5,0-0.7c-0.1-0.4-0.2-0.7-0.4-0.9l-3.7-35.4
		c0.5-0.2,0.8-0.6,1-1l34.7,3.7c0.3,0,0.5-0.2,0.5-0.4C409.7,168.4,409.5,168.2,409.2,168.1z M208.3,218.5l29.6,40.3
		c-1.1,0.9-1.8,2.3-1.8,3.8c0,0.4,0.1,0.8,0.2,1.2L199,277.1l-10-30c1.9-0.6,3.4-2.4,3.4-4.6c0-1-0.3-2-0.9-2.8l13.2-21.4
		c0.6,0.3,1.2,0.4,1.9,0.4C207.3,218.8,207.8,218.7,208.3,218.5z M296.6,177.4c-0.2,0-0.4-0.1-0.6-0.1c-1.5,0-2.6,1-2.6,2.2
		c0,0.1,0,0.3,0,0.4l-21.6,13.8c-0.3-0.4-0.7-0.6-1.2-0.6c-0.3,0-0.6,0.1-0.8,0.2L237,159.6l43.4-26.1c0.4,0.5,1,0.7,1.5,0.6
		c0.4-0.2,0.6-0.6,0.7-1.2l59.5,0.8c0,0.1,0,0.2,0.1,0.3L296.6,177.4z M396.9,225.6l-16.6-3.4c-0.2-0.3-0.5-0.5-0.8-0.5l-2.1-16.9
		L396.9,225.6z M376,201.7c-0.4,0.2-0.7,0.8-0.6,1.4c0.1,0.5,0.4,1,0.8,1.2l2.2,17.7c-0.1,0.1-0.2,0.2-0.2,0.2l-39.4-30
		c0.2-0.2,0.3-0.5,0.3-0.8c0-0.8-0.8-1.4-1.9-1.5c0.7-8,5.4-45.2,6.5-54.5c0.3,0,0.7,0,0.9-0.2l26.3,28.7c-0.1,0.3-0.2,0.6-0.2,0.9
		c0,0.9,0.7,1.7,1.5,1.8L376,201.7z"/>
	<path class="st5" d="M356.9,66.6C356.9,66.6,356.9,66.6,356.9,66.6l-24.8-29.8c0.1-0.2,0.2-0.4,0.2-0.7c0-0.7-0.5-1.2-1.2-1.2
		c-0.4,0-0.7,0.2-1,0.5l-23.6-3.3c-0.2-0.3-0.5-0.5-0.9-0.7c-0.5-0.2-1.1-0.3-1.5-0.1l-22.5-11.6c0-0.1,0-0.1,0-0.2c0-0.6-0.5-1-1-1
		s-1,0.5-1,1c0,0.6,0.5,1,1,1c0.1,0,0.2,0,0.3-0.1l22.7,11.7c0,0,0,0.1,0,0.1l-12.7,3.4c-0.2-0.2-0.4-0.4-0.6-0.5
		c-0.5-0.2-1,0-1.3,0.4l-19.1-8.8c0.2-0.2,0.3-0.4,0.3-0.6c0-0.4-0.4-0.8-0.9-1.1l3.6-7.8c0-0.1,0.1-0.2,0-0.3l-0.9-5.7l19.1,9.8
		c-0.2,0.5,0.3,1.2,1,1.5c0.7,0.3,1.5,0.1,1.7-0.5c0.2-0.5-0.2-1.2-0.9-1.5c-0.3-0.1-0.6-0.1-0.8-0.1l-19.2-9.9
		c0.2-0.2,0.3-0.4,0.3-0.6c0-0.7-1-1.3-2.3-1.3c-0.8,0-1.6,0.2-2,0.6l-12.1-2.3c-0.2-0.6-0.7-1-1.3-1c-0.6,0-1.1,0.4-1.3,0.9
		c0,0,0,0,0,0l-22.4-2.1c-0.2-0.3-0.5-0.4-0.8-0.4c-0.4,0-0.7,0.2-0.9,0.4l-9,4.6c-0.2-0.1-0.4-0.1-0.6-0.1c-0.6,0-1.1,0.4-1.4,0.9
		l-19.3,5c-0.3-0.4-0.7-0.6-1.1-0.6c-0.8,0-1.4,0.6-1.4,1.4s0.6,1.4,1.4,1.4c0.4,0,0.7-0.1,0.9-0.3l17.7,8.5l-11.9,7.4
		c-0.6-0.3-1.4-0.5-2.4-0.5c-1.7,0-3.1,0.6-3.1,1.4c0,0.1,0,0.1,0,0.2L164.4,46c-0.3,0.1-0.4,0.4-0.3,0.6c0.1,0.2,0.3,0.3,0.5,0.3
		c0.1,0,0.1,0,0.2,0L200.2,35L188,44.7c-0.3-0.1-0.7-0.1-1-0.1c-1.2,0-2.2,0.5-2.2,1.1c0,0.6,1,1.1,2.2,1.1c0.4,0,0.8-0.1,1.1-0.1
		c0,0.1,0.1,0.3,0.3,0.3l35.5,15.6c-0.2,0.2-0.3,0.4-0.3,0.7c0,0.1,0,0.2,0.1,0.3l-53.4,17.3c-0.4-0.2-0.8-0.3-1.3-0.3
		c-1.1,0-2,0.5-2,1.2c0,0.6,0.9,1.2,2,1.2s2-0.5,2-1.2c0,0,0,0,0-0.1l53.7-17.4c0.3,0.1,0.6,0.2,1,0.2l-12,41c-1.1,0-2,0.9-2,2
		c0,1.1,0.9,2,2,2s2-0.9,2-2c0-0.8-0.5-1.5-1.1-1.8l12.1-41.3c0.3,0,0.6-0.1,0.9-0.2l23.3,14.5c-0.1,0.2-0.2,0.3-0.2,0.5
		c0,0.5,0.5,0.9,1.2,1.1l-8.3,28.5c-0.1,0-0.2,0-0.4,0c-1.2,0-2.2,1-2.2,2.2s1,2.2,2.2,2.2s2.2-1,2.2-2.2c0-0.7-0.4-1.4-0.9-1.8
		l8.4-28.8c0.9,0,1.7-0.4,1.8-1l19.3-2.9c0.3,0.2,0.8,0.3,1.3,0.3c1,0,1.7-0.4,1.7-0.9c0-0.5-0.8-0.9-1.7-0.9
		c-0.8,0-1.4,0.3-1.6,0.6l-19.3,2.9c-0.4-0.3-1-0.5-1.6-0.5c-0.3,0-0.6,0-0.9,0.1l-23.3-14.4c0,0,0.1-0.1,0.1-0.1l43.2,1.6
		c0.2,0.4,0.9,0.7,1.7,0.7c1,0,1.8-0.4,1.8-1s-0.8-1-1.8-1c-0.5,0-0.9,0.1-1.2,0.3l-43.7-1.6c-0.4-0.5-1.3-0.9-2.5-0.9
		c-0.4,0-0.8,0-1.1,0.1l-36-15.8c0.1-0.1,0.2-0.3,0.2-0.4c0-0.2-0.1-0.3-0.2-0.5l12.6-10.1c0.4,0.1,0.9,0.1,1.4,0.1
		c1.2,0,2.3-0.3,2.8-0.8l10,5.9l-3.7,5c-0.1,0-0.2,0-0.2,0c-0.9,0-1.6,0.7-1.6,1.6c0,0.9,0.7,1.6,1.6,1.6c0.9,0,1.6-0.7,1.6-1.6
		c0-0.5-0.2-0.9-0.5-1.2l3.6-4.9l8.8,5.2c-0.2,0.1-0.4,0.3-0.4,0.4c0,0.4,0.8,0.7,1.9,0.7s1.9-0.3,1.9-0.7s-0.8-0.7-1.9-0.7
		c0,0,0,0-0.1,0c0,0-0.1-0.1-0.1-0.1l-9.5-5.6l7.2-9.9c0.2,0,0.4,0,0.6,0c0.2,0,0.3,0,0.5,0l6.8,10.4c-0.3,0.2-0.5,0.5-0.5,0.9
		c0,0.7,0.8,1.2,1.9,1.2c0.1,0,0.2,0,0.3,0c0.1,0,0.2,0,0.2,0c0.8-0.2,1.3-0.6,1.3-1.2c0-0.7-0.8-1.2-1.9-1.2c-0.1,0-0.2,0-0.4,0
		l-6.8-10.3c0.3-0.1,0.5-0.2,0.7-0.4l21.3,9.2c0,0.8,0.7,1.4,1.5,1.4c0.8,0,1.5-0.7,1.5-1.5c0-0.8-0.7-1.5-1.5-1.5
		c-0.5,0-0.9,0.2-1.2,0.6l-21-9.1c0-0.1,0-0.2,0-0.3c0-0.5-0.3-1-0.8-1.3l10.8-8.8c0,0,0,0,0.1,0c0,1,0.2,3.1,1,8c0,0,0,0.1,0,0.1
		c-0.4,0.3-0.6,0.8-0.5,1.3c0.1,0.7,0.8,1.1,1.4,1c0.5-0.1,0.8-0.5,0.9-0.9l19.8,0.8c0.3,0.5,0.8,0.7,1.3,0.5
		c0.6-0.2,0.9-0.8,0.7-1.4s-0.8-0.9-1.4-0.7c-0.3,0.1-0.5,0.3-0.7,0.6L241,26.8c3.2-2.6,13.1-10.6,15.4-12.4c0.1,0,0.3,0,0.4,0
		c0.6-0.1,0.9-0.7,0.8-1.2c-0.1-0.6-0.7-0.9-1.2-0.8c-0.6,0.1-0.9,0.7-0.8,1.2c0,0,0,0.1,0.1,0.1c-2.7,2.1-13,10.4-15.7,12.6
		c0,0-0.1,0-0.1,0c0,0,0-0.1,0-0.1c-0.5-3.1-1-6.5-1-7.7c0.5-0.2,0.9-0.6,0.9-1.2c0-0.7-0.6-1.2-1.2-1.2s-1.2,0.6-1.2,1.2
		c0,0.1,0,0.1,0,0.2l-11.3,9.2c-0.3-0.1-0.6-0.1-0.9-0.1c-0.8,0-1.6,0.2-2.1,0.6l-3.5-1.7l2-1.2c0.3,0.3,0.8,0.5,1.2,0.5
		c1,0,1.8-0.8,1.8-1.8c0-0.9-0.7-1.7-1.6-1.8l-1.5-8.8c0.5-0.3,0.9-0.8,0.9-1.4c0-0.3-0.1-0.5-0.2-0.8l8.2-4.2
		c0.2,0.3,0.5,0.6,0.9,0.6c0.4,0,0.7-0.2,0.9-0.6l14.2,4.9c0.1,0,0.2,0,0.3,0c0.1,0.2,0.4,0.4,0.7,0.4c0.5,0,0.8-0.4,0.8-0.8
		c0-0.5-0.4-0.8-0.8-0.8c-0.3,0-0.5,0.1-0.6,0.3c0,0,0,0,0,0l-11-3.8l18.6,1.8c0,0,0,0,0,0c0,0,0.1,0,0.1,0c0.2,0.5,0.7,0.9,1.3,0.9
		c0.5,0,1-0.3,1.2-0.7l11.9,2.3c0.1,0.3,0.5,0.6,0.9,0.7l-5,3.3c-0.1-0.1-0.3-0.2-0.5-0.2c-0.5,0-0.9,0.4-0.9,0.9s0.4,0.9,0.9,0.9
		c0.4,0,0.7-0.2,0.8-0.6c0,0,0,0,0,0l6.2-4.1c0,0,0,0,0.1,0l0.9,5.7l-3.6,7.9c-0.1,0-0.1,0-0.2,0c-1.2,0-2.1,0.6-2.1,1.3
		c0,0.5,0.5,0.9,1.2,1.2l0,0c0,0.1,0,0.1,0,0.2v17c-0.6,0-1.1,0.6-1.1,1.2c0,0.7,0.5,1.2,1.2,1.2c0.7,0,1.2-0.5,1.2-1.2
		c0-0.3-0.1-0.6-0.3-0.8V27.6l0.1-0.2l26.1,23.3c-0.1,0.1-0.2,0.2-0.3,0.3c-0.2,0.5,0.6,1.3,1.7,1.6s2.2,0.2,2.3-0.3
		c0.2-0.5-0.6-1.3-1.7-1.6c-0.3-0.1-0.5-0.1-0.7-0.2l-25.2-22.4l18.5,8.5c0.1,0.3,0.4,0.5,0.7,0.6c0.2,0.1,0.3,0.1,0.5,0.1l14.8,8.5
		c0,0.1-0.1,0.1-0.1,0.2c-0.3,0.7,0.2,1.6,1.2,2.1c1,0.4,2,0.2,2.3-0.5c0-0.1,0.1-0.2,0.1-0.3l16.3,3.2c0.3,0,0.5-0.1,0.6-0.4
		c0.1-0.3-0.1-0.5-0.4-0.6l-16.8-3.3c-0.1-0.2-0.3-0.3-0.5-0.5l-1.7-12c0.4,0,0.7-0.2,0.8-0.5l23.2,3.3c0.1,0.5,0.6,0.9,1.1,0.9
		c0,0,0,0,0.1,0L356,67.1c-0.1,0.1-0.1,0.3-0.1,0.5c0,0.6,0.5,1,1,1c0.6,0,1-0.5,1-1C357.9,67,357.5,66.6,356.9,66.6z M222.3,27.9
		c-0.1,0.1-0.1,0.3-0.1,0.4c0,0.6,0.5,1.2,1.2,1.5l-7.1,9.7l-10.1-5.9l12.2-7.5L222.3,27.9z M221.8,21.4c-0.6,0.3-1,0.9-1,1.6
		c0,0.1,0,0.3,0.1,0.4l-2.6,1.6l-18.2-8.7c0,0,0,0,0-0.1l18.9-4.9c0.1,0.6,0.6,1.1,1.2,1.2L221.8,21.4z M306.7,45.2
		c-0.2,0-0.3,0-0.5,0l-14.9-8.5l13.1-3.5c0.1,0.1,0.3,0.2,0.5,0.3c0,0,0.1,0,0.1,0L306.7,45.2z"/>
	<path class="st5" d="M91.4,351.1c-0.8-0.2-1.7-0.2-2.4-0.1l-22-16.9c0-0.1,0.1-0.3,0.1-0.4c0-0.9-0.9-1.6-2.1-1.6
		c-1.1,0-1.9,0.6-2.1,1.4l-7.6,2.5c-0.1-0.1-0.2-0.3-0.4-0.4c-0.5-0.4-1.1-0.6-1.6-0.7l-2.7-8.8l-4.2-18.1c0.2,0,0.3-0.1,0.4-0.2
		c0.7-0.5,0.7-1.7,0-2.7c-0.5-0.6-1.1-1-1.7-1l-7.5-13c0.1,0,0.1-0.1,0.2-0.1c0.5-0.5,0.2-1.5-0.6-2.3c-0.4-0.4-0.8-0.6-1.2-0.7
		l-8.3-17.7L50,295.5c0,0,0,0.1,0,0.1c0.3,0.9,1,1.5,1.6,1.4c0.6-0.2,0.9-1.1,0.6-2c-0.3-0.9-1-1.5-1.6-1.4
		c-0.2,0.1-0.4,0.2-0.6,0.5L27,267.8c0.1-0.2,0.1-0.4,0.2-0.6c2,0.2,4.1,0.4,6.2,0.7l16,17.6c-0.1,0.2-0.1,0.4-0.1,0.6
		c0,0.8,0.6,1.5,1.2,1.5c0.7,0,1.2-0.7,1.2-1.5c0-0.8-0.6-1.5-1.2-1.5c-0.2,0-0.4,0.1-0.5,0.2l-15.3-16.7c4.1,0.5,7.7,0.9,8.9,1
		c0.1,0.8,0.5,1.4,1.1,1.4c0.6,0,1.1-0.7,1.1-1.5s-0.5-1.5-1.1-1.5c-0.4,0-0.7,0.3-0.9,0.7c-1-0.1-3.4-0.4-9.8-1.1l-7.6-11.5
		l21.4-0.4c0,0,0,0,0,0.1c0.3,0.9,1.1,1.5,1.7,1.3c0.6-0.2,0.8-1.2,0.5-2.1c-0.3-0.9-1.1-1.5-1.7-1.3c-0.4,0.1-0.6,0.5-0.6,1
		l-21.3,0.4c0,0,0-0.1,0-0.1c0-0.5-0.2-1-0.5-1.2l2.1-25.4c0-0.1,0-0.1,0-0.1c0.5-0.2,0.9-0.8,1.2-1.5l12.4,9.4
		c0.1,1.2,0.6,2.2,1.3,2.2c0.7,0,1.3-1.1,1.3-2.5c0-1.4-0.6-2.5-1.3-2.5c-0.6,0-1,0.6-1.2,1.6L29.3,225c0-0.1,0-0.2,0-0.4
		c0-0.3,0-0.6-0.1-0.9l10.6-7.2l6,10.2c-0.1,0.2-0.2,0.5-0.2,0.8c0,1,0.6,1.7,1.3,1.7s1.3-0.8,1.3-1.7c0-1-0.6-1.7-1.3-1.7
		c-0.2,0-0.3,0-0.5,0.1l-5.8-9.9l0.9-0.6c0.2,0.6,0.6,0.9,1.1,0.9c0.7,0,1.3-0.9,1.3-1.9s-0.6-1.9-1.3-1.9c-0.7,0-1.3,0.8-1.3,1.9
		l-1.3,0.9l-5.6-9.6c0.3-0.6,0.5-1.3,0.5-2c0-0.7-0.1-1.4-0.4-1.9L47,187.7c0.2,0.1,0.5,0.1,0.8,0c0.9-0.1,1.5-0.8,1.4-1.5
		c-0.1-0.7-0.9-1.2-1.8-1c-0.9,0.1-1.5,0.8-1.4,1.5c0,0.2,0.1,0.3,0.2,0.4l-12.1,13.6c-0.3-0.3-0.6-0.5-1-0.5
		c-0.2,0-0.4,0.1-0.6,0.2l-8.3-26.3c0.1-0.2,0.2-0.4,0.2-0.7l8-5.2l2.6,25.7c0,0-0.1,0.1-0.1,0.1c-0.7,0.7-0.8,1.6-0.3,2.1
		s1.4,0.3,2.1-0.3c0.7-0.7,0.8-1.6,0.3-2.1c-0.1-0.1-0.1-0.1-0.2-0.1l11.5-24.4c0.2,0.2,0.4,0.3,0.6,0.3c0.6,0,1.1-0.6,1.1-1.4
		s-0.5-1.4-1.1-1.4c-0.6,0-1.1,0.6-1.1,1.4c-0.1,0-0.1,0.1-0.1,0.2l-11.8,24.9l-2.6-25.5l11.3-6.7c0.3,0.3,0.8,0.6,1.2,0.6
		c0.9,0,1.7-0.8,1.7-1.7c0-0.6-0.3-1.1-0.8-1.4l1.7-13.5c0.7-0.2,1.2-0.8,1.2-1.6c0-0.6-0.3-1.1-0.7-1.4l3.9-19.4
		c0.5-0.2,0.9-0.7,1.2-1.3c0.4-0.8,0.4-1.6,0.1-2.2l13-24.3c0.1,0,0.2,0,0.2,0c0.8,0,1.4-0.6,1.4-1.4S68.2,92,67.4,92
		s-1.4,0.6-1.4,1.4c0,0.1,0,0.2,0,0.3l-18.2,15.6l-11.4,8.1l-2.1,1.2c-0.2-0.1-0.4-0.1-0.7-0.1c-0.9,0-1.7,0.5-1.7,1
		c0,0.1,0,0.3,0.1,0.4c0,0-0.1,0-0.1,0.1l-6.9,13.7c-0.1,0-0.2-0.1-0.3-0.1c-0.6,0-1.1,0.5-1.1,1.1c0,0.4,0.2,0.7,0.5,0.9L17,154.3
		c0,0.1,0,0.2,0,0.3c-0.4,0.2-0.7,0.6-0.7,1c0,0.5,0.3,0.9,0.8,1.1l2.2,9c0,0.2,0.2,0.3,0.4,0.4c0.2,0,0.4-0.1,0.5-0.2l10.3-18
		l-7.4,24.3c0,0-0.1,0-0.1,0c-0.7,0-1.3,0.6-1.3,1.3c0,0.1,0,0.3,0.1,0.4c-1.6,1.5-6.1,6.1-8.5,8.6c-0.3,0.1-0.7,0.4-0.9,0.8
		c-0.2,0.3-0.2,0.6-0.2,0.8l-4.1,7.3c-0.1,0-0.1-0.1-0.2-0.1c-0.4,0-0.6,0.6-0.6,1.3s0.3,1.3,0.6,1.3c0,0,0.1,0,0.1-0.1l1.1,1.7
		l-3.6,16.6c-0.3,0.2-0.5,0.6-0.5,1c0,0.5,0.3,1,0.8,1.2L6.9,225v8.6c-0.3,0.2-0.5,0.6-0.5,1.2c0,0.7,0.4,1.3,0.9,1.3c0,0,0,0,0.1,0
		l5,21.5l-5.5-16.1c-0.1-0.3-0.4-0.4-0.6-0.3c-0.3,0.1-0.4,0.4-0.3,0.6l8,23.6c0,0.1-0.1,0.2-0.1,0.3c0,0.1,0,0.2,0.1,0.3l-3.7,4.7
		c-0.2,0.1-0.4,0.4-0.4,0.7c0,0.4,0.3,0.7,0.7,0.8l9.6,21.1c0.1,0.2,0.3,0.3,0.5,0.3c0,0,0.1,0,0.1,0c0.2-0.1,0.4-0.3,0.3-0.6
		l-3.4-20c0.1-0.2,0.2-0.4,0.2-0.7c0,0,0,0,0-0.1l6.8-4.1c0,0.1,0.1,0.2,0.2,0.3l0.9,22l-3.7-7.8c-0.1-0.3-0.4-0.4-0.7-0.2
		c-0.2,0.1-0.4,0.4-0.2,0.7l4.7,10l0.4,9.3l-10.2-12.3c-0.2-0.2-0.5-0.2-0.7-0.1c-0.2,0.2-0.2,0.5-0.1,0.7l10.5,12.8
		c-0.5,0.1-0.9,0.3-1,0.7c-0.2,0.6,0.4,1.3,1.3,1.5c0.2,0.1,0.4,0.1,0.6,0.1l3.5,15.5c-0.3,0.2-0.5,0.6-0.5,1c0,0.7,0.6,1.3,1.3,1.3
		c0.7,0,1.3-0.6,1.3-1.3c0-0.6-0.5-1.1-1-1.2l-3.5-15.6c0.2-0.1,0.3-0.3,0.4-0.5c0.1-0.5-0.2-1-0.8-1.3c0,0,0-0.1,0-0.1l0,0
		c0,0,0-0.1,0-0.1l-0.3-8.1l4.3,9.2c-0.5,0.5-0.8,1.3-0.6,2.2c0.2,0.9,0.8,1.6,1.5,1.8l1.1,9.3c0,0.1,0,0.1,0.1,0.2l8.3,16.1l-5.2-3
		c0-0.7-0.5-1.2-1.1-1.2c-0.6,0-1.1,0.6-1.1,1.3c0,0.7,0.5,1.3,1.1,1.3c0.3,0,0.6-0.2,0.8-0.4l6.4,3.6l3.5,4
		c-0.2,0.2-0.4,0.5-0.4,0.9c0,0.7,0.5,1.2,1.2,1.2c0.7,0,1.2-0.5,1.2-1.2c0-0.6-0.4-1-0.9-1.2l-3.1-3.5l7.7,0.8
		c-0.1,0.7,0.3,1.5,1,2.1c0.3,0.2,0.6,0.4,0.9,0.5l0.8,5.7l-3-2.7c0.1-0.2,0.1-0.4,0.1-0.6c0-0.8-0.5-1.4-1.2-1.4
		c-0.7,0-1.2,0.6-1.2,1.4c0,0.8,0.5,1.4,1.2,1.4c0.1,0,0.2,0,0.4-0.1l3.9,3.6l0.7,4.9c-0.1,0-0.3,0-0.4,0.1c-0.4,0.3-0.4,1.1,0,1.7
		c0.4,0.7,1.1,1,1.6,0.7s0.4-1.1,0-1.7c0,0-0.1-0.1-0.1-0.1l-0.7-4.5l10.1,9.3c-0.1,0.1-0.2,0.3-0.2,0.5c-0.1,0.7,0.5,1.4,1.3,1.5
		c0.8,0.1,1.6-0.4,1.7-1.1c0.1-0.7-0.5-1.4-1.3-1.5c-0.2,0-0.4,0-0.6,0l-11.2-10.3l-1-6.7c0.1,0,0.2,0,0.3-0.1
		c4,4.4,14.5,16.1,16.5,18.3c-0.1,0.2-0.2,0.4-0.2,0.6c0,0.7,0.6,1.2,1.4,1.2c0.8,0,1.4-0.6,1.4-1.2c0-0.7-0.6-1.2-1.4-1.2
		c-0.2,0-0.3,0-0.5,0.1c-1.6-1.7-10.6-11.7-16.5-18.3c0.3-0.4,0.3-1,0.1-1.5l7.4-2.4c0.4,0.5,1,0.8,1.8,0.8c0.5,0,1-0.2,1.4-0.4
		l21.6,16.5c-0.5,0.3-0.8,0.7-1,1.3c-0.1,0.4-0.1,0.8,0,1.2c-2.7,2-5.9,4.2-7.5,5.4c-0.2-0.2-0.5-0.2-0.8-0.2
		c-0.9,0-1.5,0.7-1.5,1.5s0.7,1.5,1.5,1.5s1.5-0.7,1.5-1.5c0-0.2,0-0.3-0.1-0.5c1.7-1.2,5-3.5,7.3-5.2c0.5,0.7,1.4,1.3,2.4,1.6
		c2,0.6,4-0.2,4.5-1.7C94.7,353.4,93.4,351.7,91.4,351.1z M44.1,160.1l-10.9,6.5l-0.6-16.9l3.7,10.2c0.1,0.2,0.2,0.3,0.4,0.3
		c-0.2,0.1-0.3,0.2-0.5,0.3c-0.7,0.7-0.9,1.6-0.4,2.2c0.5,0.5,1.5,0.4,2.2-0.2c0.7-0.7,0.9-1.6,0.4-2.2c-0.3-0.3-0.8-0.4-1.3-0.3
		c0.1-0.1,0.1-0.3,0.1-0.5l-4.7-13.2c0.4-0.1,0.8-0.4,1.1-0.8l11,13.1c-0.3,0.3-0.4,0.7-0.4,1.1C44.1,160,44.1,160,44.1,160.1z
		 M48.5,141.8c-0.1,0-0.3-0.1-0.4-0.1c-0.9,0-1.6,0.7-1.6,1.6c0,0.9,0.7,1.6,1.5,1.6l-1.7,13.3c-0.2,0-0.3-0.1-0.5-0.1
		c-0.3,0-0.6,0.1-0.9,0.2l-11.1-13.3c0.3-0.6,0.5-1.4,0.5-2.2c0-1.1-0.3-2.1-0.9-2.7l17.6-18.4c0.1,0.4,0.3,0.7,0.6,0.8
		c0.2,0.1,0.4,0.1,0.6,0.1L48.5,141.8z M33.8,138.4l12.7-23.1l4.5,5.1L33.8,138.4z M34.6,120.5c0.5-0.2,0.7-0.5,0.7-0.8
		c0-0.3-0.2-0.5-0.5-0.7l1.8-1l11.4-8.2l18.1-15.5c0.1,0.2,0.3,0.3,0.5,0.4l-12.9,24.1c0,0-0.1-0.1-0.1-0.1
		c-0.7-0.3-1.5,0.1-2.1,0.9l-4.8-5.4c-0.1-0.1-0.3-0.2-0.4-0.2c-0.2,0-0.3,0.1-0.4,0.3l-12.7,23L34.6,120.5z M20,164.2l-1.9-7.7
		c0.2-0.2,0.4-0.4,0.5-0.7l11.1-8.5L20,164.2z M18.3,154.8c-0.1-0.1-0.2-0.1-0.3-0.2l7.2-18.7c0.2,0,0.3-0.1,0.4-0.2l4.3,5.5
		c-0.2,0.5-0.3,1.1-0.3,1.8c0,1,0.3,2,0.8,2.6L18.3,154.8z M30.1,140.7l-4.3-5.4c0.1-0.1,0.1-0.3,0.1-0.4c0-0.3-0.1-0.6-0.4-0.8
		l6.9-13.7c0.3,0.2,0.7,0.3,1.1,0.3l-1.4,18.8c-0.1,0-0.1,0-0.2,0C31.2,139.4,30.6,139.9,30.1,140.7z M31.5,148.2l0.7,18.9l0,0.2
		l-8.1,5.2L31.5,148.2z M33.1,206.7c0.3,0,0.6-0.1,0.8-0.3l5.4,9.3l-10.5,7.1c-0.3-0.7-0.9-1.1-1.5-1.1c-0.8,0-1.4,0.7-1.7,1.8
		l-1.7-0.4c-0.1,0-0.1,0-0.2,0l-11.3,2.1c-0.1-0.1-0.2-0.2-0.3-0.3l3.6-13.7c0,0,0,0,0,0c0.3,0,0.5-0.1,0.7-0.3l6.8,8.9
		c0,0.1,0,0.2,0,0.3c0,0.8,0.5,1.5,1.1,1.5s1.1-0.7,1.1-1.5c0-0.2,0-0.4-0.1-0.6l6.6-13.4C32.2,206.5,32.6,206.7,33.1,206.7z
		 M25.7,225.9l-9.5,12.8c-0.1-0.1-0.3-0.1-0.4-0.1l-3.7-11.9c0.2-0.1,0.4-0.3,0.5-0.6l11.2-2.1l1.7,0.4c0,0.1,0,0.2,0,0.3
		C25.6,225.1,25.6,225.5,25.7,225.9z M31.6,201.3c-0.3,0.6-0.5,1.3-0.5,2.2c0,0.5,0.1,1,0.2,1.5l-6.7,13.6c0,0,0,0,0,0L23.3,175
		L31.6,201.3z M8.7,192.8c0-0.1,0-0.1,0-0.2l4.3-7.8c0.4,0,0.9-0.3,1.2-0.8c0.2-0.4,0.2-0.8,0.1-1.2c2.7-2.8,6.5-6.7,8-8.1l1.2,41.5
		l-7.2-16.8l4.7-12.3c0.4-0.1,0.8-0.4,0.8-0.9c0-0.5-0.4-0.9-0.9-0.9s-0.9,0.4-0.9,0.9c0,0.2,0.1,0.3,0.1,0.5l-4.8,12.6
		c0,0.1,0,0.3,0,0.4l5.6,13.1L8.7,192.8z M7.9,225.1l6-18.6c0.1-0.3-0.1-0.5-0.3-0.6c-0.3-0.1-0.5,0.1-0.6,0.3l-5.2,16.3L7,214.3
		c0.4-0.2,0.7-0.6,0.7-1.1c0-0.6-0.4-1-0.9-1.2l3.3-15.2l12.2,19.8l-5.3-7c0,0,0-0.1,0-0.1c0-0.9-0.5-1.6-1.1-1.6s-1.1,0.7-1.1,1.6
		c0,0.3,0.1,0.7,0.2,0.9l-3.8,14.3c-0.3,0.2-0.6,0.5-0.6,1c0,0.2,0,0.3,0.1,0.5l-2.8,6L7.9,225.1z M19.4,289.2l-8-17.6l4.8,0.8
		c0.1,0.4,0.2,0.6,0.5,0.8L19.4,289.2z M24.3,267l-6.9,4.2c-0.1-0.1-0.3-0.2-0.4-0.2c-0.3,0-0.5,0.2-0.6,0.5l-4.9-0.9l3.3-4.3
		c0.3-0.1,0.5-0.4,0.5-0.7c0-0.2-0.1-0.4-0.2-0.5l-7-29.9c0-0.1,0-0.1-0.1-0.2c0-0.1,0-0.2,0-0.3c0-0.2,0-0.3-0.1-0.5l3.3-7
		l3.7,11.9c-0.1,0.2-0.2,0.6-0.2,0.9c0,0.8,0.5,1.4,1.1,1.4s1.1-0.6,1.1-1.4c0-0.1,0-0.3,0-0.4l9.4-12.7c0.2,0.3,0.5,0.5,0.8,0.6
		c0,0,0,0,0,0.1L24.8,253c-0.4,0.2-0.7,0.7-0.7,1.4c0,0.8,0.5,1.5,1.1,1.5c0,0,0.1,0,0.1,0l7.3,11c-1.6-0.2-3.4-0.4-5.5-0.6
		c-0.1-1-0.7-1.8-1.4-1.8c-0.8,0-1.4,1-1.4,2.2C24.3,266.8,24.3,266.9,24.3,267z M31.7,303.2l-5-10.7l-0.9-23.6c0.1,0,0.2,0,0.3,0
		L35,288c0,0-0.1,0-0.1,0.1c-0.5,0.5-0.2,1.5,0.6,2.3c0.1,0.1,0.1,0.1,0.2,0.2C34.4,294.9,32.6,300.8,31.7,303.2z M36.5,291.3
		l7.6,13.2c-0.3,0.3-0.5,0.7-0.5,1.1l-9.8-0.6c-0.3-0.5-0.8-0.9-1.3-1.1C33,302.6,34.1,299.3,36.5,291.3z M51.9,335.4l-9-0.9
		l-8.9-17.2l-1-9L44.2,332c-0.1,0.1-0.2,0.2-0.2,0.4c0,0.4,0.4,0.6,0.9,0.6s0.9-0.3,0.9-0.6c0-0.3-0.2-0.5-0.5-0.6l-11.5-24.3
		c0.3-0.4,0.4-0.9,0.3-1.5l9.8,0.6c0.1,0.2,0.2,0.3,0.3,0.5c0.3,0.4,0.7,0.7,1.1,0.9l4.3,18.5l2.7,8.7
		C52.1,335.3,52,335.4,51.9,335.4z"/>
	<path class="st13" d="M397.2,91.5c-0.3-0.5-0.8-0.8-1.3-0.6l-16.5-16.1l0.8-5.2c0.1,0,0.1,0,0.2-0.1c0.3-0.2,0.3-0.8-0.1-1.3
		c-0.3-0.5-0.8-0.7-1.1-0.5l-9.6-5c0-0.4-0.2-0.9-0.7-1.3c-0.5-0.4-1.2-0.5-1.6-0.3l-14.2-13.5c-0.1-0.5-0.5-0.9-1-1.3
		c-0.8-0.4-1.7-0.3-2,0.2c-0.3,0.5,0.2,1.3,1,1.7c0.5,0.3,1.1,0.3,1.5,0.2l14,13.3l-4.5,0c-0.1-0.4-0.5-0.7-0.9-0.7
		c-0.5,0-0.9,0.4-0.9,0.9s0.4,0.9,0.9,0.9c0.2,0,0.4-0.1,0.6-0.2l5.2,0c0.1,0.2,0.2,0.3,0.4,0.5c0.1,0.1,0.3,0.2,0.4,0.3
		c0.7,2.2,2.3,7.6,3.3,11.2c-0.2,0.2-0.4,0.5-0.4,0.8c0,0.6,0.5,1,1,1c0.6,0,1-0.5,1-1c0-0.5-0.3-0.8-0.7-1
		c-1.2-4.4-2.1-7.3-2.7-9.2c2.2,2.6,5.7,6.3,8.8,9.6l-1.7,7.1c-0.2,0-0.4,0-0.5,0.1c-0.6,0.3-0.7,1.2-0.3,1.9c0.4,0.7,1.2,1,1.8,0.7
		c0.6-0.3,0.7-1.2,0.3-1.9c-0.1-0.2-0.2-0.3-0.3-0.4l1.6-6.7l16.2,15.8c0,0.2,0,0.4,0.1,0.6c0.3,0.6,0.9,0.8,1.4,0.6
		C397.4,92.7,397.5,92.1,397.2,91.5z M369.3,63.8l9.8,5.1c0,0.1,0.1,0.1,0.1,0.2c0,0,0,0,0,0.1l-0.8,4.8
		C374.8,70.1,371,65.9,369.3,63.8z"/>
	<polyline class="st8" points="431.7,149.6 420.2,157.3 404.1,133.2 	"/>
	<path class="st5" d="M432,148.9l-4.7-13.8c0-0.3-0.1-0.6-0.2-0.9c-0.3-0.6-0.8-1-1.1-0.8c-0.2,0.1-0.3,0.4-0.2,0.8l-7.6,5.5
		l0.2-9.1c0,0,0.1,0,0.1,0c0.3-0.2,0.3-0.8,0-1.4c-0.3-0.6-0.8-1-1.1-0.8s-0.3,0.8,0,1.4c0,0,0,0.1,0.1,0.1c0,0,0,0,0,0.1l-0.3,10.7
		c0,0.2,0.1,0.4,0.3,0.5c0.1,0,0.2,0.1,0.2,0.1c0.1,0,0.2,0,0.3-0.1l8.3-6c0,0,0,0.1,0.1,0.1L431,149c-0.2,0.2-0.4,0.4-0.4,0.7
		l-10.2,6.9L404.5,133c-0.2-0.2-0.5-0.3-0.7-0.1c-0.2,0.2-0.3,0.5-0.1,0.7l16.1,24.1c0.1,0.1,0.2,0.2,0.3,0.2c0,0,0.1,0,0.1,0
		c0.1,0,0.2,0,0.3-0.1l10.5-7.1c0.2,0.1,0.4,0.2,0.7,0.2c0.6,0,1.1-0.5,1.1-1C432.8,149.4,432.5,149,432,148.9z"/>
</g>
<g id="brain">
	<g class="st0">
		<g class="st1">
			<path class="st14" d="M287.6,402.6c2.3-21.1,17.1-35.3,27.6-37.7c19.5-4.4,29.1-0.9,40.2-12.2c9-9.1,8.7-23.4,7.4-32.9
				c0.5-5.9,11.4-19.1,12-22.4c0.6-3.3-7.2-4.8-6.6-8.2c0.6-3.3,5.3-3.6,7.2-7.6c1.9-3.9-4.7-10.6-4.4-13.3
				c0.3-2.7,15.6-9.3,17.5-20c2.4-13.5-26.8-34.2-28.5-46.8c0.3-5.1,4.6-7.6,6.5-14.3c1.9-6.7-4.4-43.2-22.5-73.5
				C310,67.9,249.2,63.1,243.7,62.6c-10.8-0.9-68.9-2.9-111.5,33.7c-9.1,7.8-34.7,28.2-43.4,61.6c-2.5,9.6-11.6,43.5,3.1,74.5
				c13.6,28.6,0.7,5.2,39.5,57.6c5.1,6.9,6.6,19.9,7.8,29.3c3.1,23.5-12.2,60.5-16.3,70.8"/>
		</g>
		<path class="st15" d="M231.3,119.3c0,0-6-5.6-8-10.6s-0.2-7-3.7-11.6c-3.6-4.6-9.9-11.2-9.9-11.2"/>
		<path class="st15" d="M232.8,132.9c0,0-1.5-3.6-4.8-6.8c-3.2-3.2-5.3-2-7.6-4.9c-2.3-2.9-0.8-5.4-4.3-6.1
			c-3.6-0.7-8.9-1.9-7.7-6.5c1.2-4.6-2.9-10.6-2.9-10.6"/>
		<path class="st15" d="M190.6,102.6c0,0,4.6,3.1,4.3,6.8c-0.3,3.7-1.7,7.3,0,9.9c1.7,2.6,6.3,1.9,8.8,6.5
			c2.6,4.6,10.4,11.1,10.4,11.1"/>
		<path class="st15" d="M180.6,133.7c0,0-4.6-1.9-4.3-6.6s1.2-5.8,0-9.9c-1.2-4.1-6.1-3.9-5.1-9.9c1-6,6.5-10,8.2-12.9"/>
		<path class="st15" d="M162.9,105.8c0,0-4.3,5.4-3.9,10.6s0.8,6.5,1.9,12.3c1.1,5.8,3,11.1,2,15.5c-1,4.4-1.8,6.6-1.8,6.6"/>
		<path class="st15" d="M175.8,139.9c0,0-4,2.2-4.7,6.3c-0.7,4.1-1.6,7.1-1.2,13.1s4.9,6.6-1.4,10.7c-6.3,4.1-7.8,2-12.4-4.4
			c-4.6-6.5-7.5-5.3-13.3-10.6s-8-8-8.2-14.3s-2.7-11.7-4.8-12.4"/>
		<path class="st15" d="M159.8,184.8c0,0-5.8-0.7-8.2-3.7s-3.4-1.2-6.6-4.6c-3.2-3.4-2.6-5.4-7.5-9.4c-4.9-3.9-5.3,1.5-11.1-3.4
			c-5.8-4.9-3.1-4.3-6.6-10.9c-3.6-6.6-3.6-6.6-3.6-6.6"/>
		<path class="st15" d="M236.2,83.7c0,0-7.2,0.5-5,4.1c2.2,3.6,7.1,0.2,6.6,14.8c-0.5,14.6-2.2,21.8,2.7,25.7c4.9,3.9,6.3,1.4,7.1,0
			c0.9-1.4,1.5,1.8,4.8,2.1s2.2-0.6,8.5-3.1c6.3-2.6,8.7,3.9,14.1,5.6s4.3-1.7,8.7,0s1.2,1.9,8,3.9c6.8,2,8.7-2.7,10.4-3.1
			c1.7-0.3,5.1-5.1,0.7-7.7c-4.4-2.6-4.4-8.7-7.1-10.6c-2.7-2-8,1.3-10-5.9c-2-7.1-7.5-16.7-7.5-16.7"/>
		<path class="st15" d="M297.8,155.4c0,0,0,3.2-1.4,7.1c-1.4,3.9-1.9,1.4-2.4,4.9c-0.5,3.6-0.3,2.7-3.4,5.4
			c-3.1,2.7-7.8,3.4-9.4,5.4"/>
		<path class="st15" d="M189.1,133.7c0,0-3.1,4.9,1.5,8.7c4.6,3.7,2.9,3.1,8,2c5.1-1,7.3-2.5,9.4,0.8c2,3.3,0.9,4,0.9,4"/>
		<path class="st15" d="M180.6,142.1c0,0,4.6,1.7,4.9,6c0.3,4.3,3.1,2.7,3.6,8.3"/>
		<path class="st15" d="M283.2,166.9c0,0,4.6,1.1,4.3-5.9c-0.3-7-1.2-9.4-7.8-12.9c-6.6-3.6-6.1-9.9-9.7-9.4s-2.7,4.6-8.9,2.8
			c-6.1-1.8-11.9-6-11.9-6s-4.6-0.2-11.4,0c-6.8,0.2-5.6,1.4-11.7,3.2c-6.1,1.9-8.9,1.9-8.9,1.9"/>
		<path class="st15" d="M121.1,211c0,0-0.7-1.4-1.2-6.1c-0.5-4.8-4.9-3.6,1.2-8.2c6.1-4.6,7.3-7.5,12.9-10.2
			c5.6-2.7,4.9-5.4,2.9-7.5"/>
		<path class="st15" d="M109.9,191.8c0,0-5.4-0.9-2.9-8.3s1.5-5.4,1.1-8.7s-2.8-9.3-2.8-9.3"/>
		<path class="st15" d="M123.9,182.4c0,0,4.3-5.1,1.5-9.2c-2.7-4.1-5.4,0.5-9.2-2.2c-3.7-2.7-5.5-6-6.3-8.7s-2.3-5.3-2.3-5.3"/>
		<path class="st16" d="M327.1,132.9c-6.1-13.4-7.2-13.6-15.3-23.3c-9.9-11.9-41.9-23.4-63.7-27.2c-30.3-5.3-58.3-1.6-80.2,8.2
			c-22,9.9-42.4,28.8-51.2,42.4c-7.8,12-20.7,48.9-18,66.2c3.4,22,12.4,32.7,20.9,40.9c10.9,10.4,26.7,17.7,43.7,26.6
			c17,8.9,20.8,16.4,23.8,29.3c3.4,14.8,0,36.7-3,51.8c-4,20.4-7.1,25.2-13.7,44.9c-2.5,7.4,2.9,3.9,4.3,2.9
			c1.4-1,4.6-14.8,9.4-29.8c4.8-15,10-44.4,8.3-67.6c-1.6-22.4-2.2-25.4-1.9-42c0.3-16.7,2.4-24.5,4.8-38.1s8-26.3,15.3-30
			c7.5-3.7,22.1-3.9,22.1-3.9s-7.7-1.5-18.9-0.1c-11.2,1.4-16.5,12.2-19,19.8c-0.8,2.5-1.6,5-2.3,7.4c-0.4-0.7-1.1-1.7-1.9-3.1
			c-1.9-3.2,0.5-5.3,0-10.9c-0.5-5.6,2-6.1,0.9-8.3c-1.2-2.2-2.4,0.6-2.4-1.4s3.9-4.3,4.8-9c0.9-4.8,4.3-8.9,9.5-12.9
			s9-0.6,16.5,1.4c7.5,2,16.7,6.9,21.8,11.8s3.7,5.1,4.7,7c1,1.9,3.3,6.1,5.5,6.8s3.5-1,3-3.7c-0.5-2.7-6.7-6.7-4.7-10.5
			s10.7,0.2,15.8,0.3c5.1,0.1,7.7-0.3,11.9-2.3c4.3-2,3.4-10.2,2.7-14.1c-0.7-3.9-7.5-7.8-12.7-11c-5.2-3.2-13.6-5.3-21-6.2
			c-1.6-0.2-3-0.3-4.2-0.4c7.1,1,14.3,3.3,19,5.6c8.7,4.3,13.6,8.9,16.5,12.5s0,9.7-3.9,12.8c-3.9,3.1-14.1,0.3-16.3-0.7
			c-2.2-1-8.3,0.2-10,1.6c-1.7,1.4,1.5,7.5,4.3,10.4s2.4,3.9,0,4.3s-4-4.8-5-6.8c-1-2-3.7-6-5.4-8c-1.7-2-7.7-6.3-9.7-7.5
			c-2-1.2-12.6-5.1-16.2-6.3c-3.6-1.2-8.7-0.5-11.2,0c-2.6,0.5-6.6,3.1-9.3,6.6c-2.7,3.5-3.5,6.5-4,10c-0.5,3.6-3.1,7-6.6,6.6
			c0,0-5.3-2.8-5.3-7.3c0-3.9,1.5-5,3.4-9.4s5.1-8.3,14.6-11.9c5.8-2.2,14.7-3.5,25.3-9.4c0.8-0.5,5-2.3,6-2.6
			c-6,0.8-12.8,3.6-16.1,5.7c-3.6,2.2-18.2,5.3-23.7,8.5c-5.4,3.2-5,6.2-7.2,8.7c-2,2.3-3.1,7.8-4.6,11.1c-1.4,3.2-6.6,6.3-11.6,6.8
			s-12.8,3.1-18.9,7c-6.1,3.9-7.7,8.7-11.6,16.5c-3.9,7.8-3.4,10.4-5.4,15.7c-1.3,3.4-5.9,6.1-9,7.6c-8-7.5-15.3-18.4-17.1-36
			c-1.5-15.3,1.8-39.3,21.4-67.9c10-14.6,25-25.6,52.3-36.9c25.3-10.5,49.9-7.6,69.6-4.9c17.7,2.4,48.2,14.1,57.7,23
			c7.1,6.6,12.7,13.9,17.2,23.7c13.1,28.6-18.4,54.5-26.9,56.2c-8.5,1.7-16.7,6.1-23.8,3.7c-7.1-2.4-9.5-6.6-12.3-2.9
			c-2.7,3.7,1.9,17.2-2,20.4c-5.3,4.3-9.5,2.4-8.2-4.3c0.9-4.4-2.7-10.2-5.1-14.6c-2.4-4.4-7.5-6.5-7.5-6.5s2.7,2.7,2.7,6.1
			s0.7,3.1,3.1,6.5s3.1,4.8,2.4,11.6c-0.7,6.8,1.7,7.6,7.5,7.1c5.7-0.4,6.1,0.5,9.2-4.6s0.7-13.6,2.7-15.3c2-1.7,11.9,2.1,16.7,1.2
			c17-3.1,29.5-11,38.8-20.8C330.5,165.6,332.2,144,327.1,132.9z M138,234.9c0.7-4.6,2.2-17.2,4.6-23.8c2.4-6.6,7.7-15.7,11.2-17.5
			c3.6-1.9,5.1,1,6,3.2s0.5,6.1,2.2,5.6c1.7-0.5-0.2-3.6-1-6.6c-0.8-3.1,1.3-4.3,4.5-3.9c3.2,0.3,1.9,3.1,0.7,7.1
			c-1.2,4.1-0.3,6.5,1.2,5.8c1.5-0.7,1-4.6,1.4-6.5c0.3-1.9,2.7-6.3,5.1-6.5c2.4-0.2,5.1,4.8,5.6,7.1s-0.7,3.1-2.7,4.4
			c-2,1.4-0.3,2.4,0.7,2.4c1,0,3.6-4.8,4.3-5.1c0.7-0.3,0.9,1.7,1.4,6.3s2.9,2.2,5,6c1,1.8,1.9,3.2,2.7,4.1
			c-1.7,12-7.4,12.8-8.7,13.9c-1,0.9,3.9,4.1,2.6,12.9c-2.2,14.1,0.4,17.3-3.4,19.9c-4.7,3.2-10.1-0.6-17.6-3
			c-7.5-2.4-15-7.1-24.9-14.6c-0.7-0.5-1.4-1-2.1-1.5C137.1,241.9,137.6,237.7,138,234.9z"/>
		<path class="st15" d="M271.2,117.3c-1.5-7.4-0.5-9.4-4.5-14.9c-4-5.5-12.9-2.5-13.8-12.1"/>
		<path class="st15" d="M186.2,216.3c0,0,1.7,3.6-1.4,6.8c-3.1,3.2-6.8,5.5-8.3,1.9c-1.5-3.6,0.3-8.9-1.5-9.6s-0.3,7.3-4.1,8.7
			c-3.7,1.4-5.4,0.2-6-4.6c-0.5-4.8-0.9-10.2-3.1-9.5s-2.9,3.7-0.7,8.4c2.2,4.7,4.1,6.6,0.9,8.4c-3.2,1.9-6.1-0.3-6.5-3
			c-0.3-2.7-0.3-6.1-1.7-6c-1.4,0.2-3.2,2.7-3.1,4.8c0.2,2,4.9,3.5,4.3,5.7c-0.7,2.3-5,3.3-4.3,5c0.7,1.7,8.9-2.7,10.4-0.9
			c1.5,1.8-5.4,13.2-2.2,14.2c3.2,1,6.3-7,6.8-11.1c0.5-4.1,3.4-4.7,4.8-3.1c1.4,1.6,0.9,11.1,2.7,13.4c1.9,2.2,2.8-5.6,2.6-9.9
			c-0.2-4.3-0.4-5.4,2.4-5.1s6.6,1.6,6.6,1.6"/>
		<path class="st15" d="M138.1,388.6c0,0,12.2-29.1,12.6-47.7c0.4-18.6,2.5-41.9-4.9-55.7c-7.4-13.8-23.5-19.7-33.2-35.2
			S88.3,209.5,93.1,179c4.9-30.5,12.3-54.8,38-75.2s46.1-25.2,74.4-29.8s63.4,1.8,85.2,11.9c36,16.7,44.2,25.6,54.1,51.4
			c9.5,24.5,7.5,15.3,9.1,23c2.2,10.6,2.5,12.9,0.7,18s-8.8-6.3-14.9-4.3s-3.3,3.6-14.6,9s-12.9,13.8-27.4,16.3
			c-14.6,2.6-16.8,6.3-21.6,11.7s-6.5,12.4-16.2,19.4c-9.7,7.1-7.8,6-18.3,8c-10.5,2-14.6,5-16.7,9.4s-7.2,5.6-5.8,1.5
			c1.4-4.1,4.9-12.8,8-17c3.1-4.2,3.7-15.4,3.7-15.4"/>
		<path class="st17" d="M271.2,173.2c-2.4,0.3-4.6-1.4-11.2,0"/>
		<path class="st17" d="M275.1,166.9c-2.8,1.2-6.7,0.8-9.5,0.9"/>
		<path class="st17" d="M274,161.7c-4.9,2.7-4.7,2.2-9.1,3.2"/>
		<path class="st17" d="M270.3,157c-3.6,3.4-4,3.3-8.3,4.1"/>
		<path class="st17" d="M264.2,153.5c-1.9,1.3-4.1,3.3-5,4.7"/>
		<path class="st17" d="M259.2,150.8c-2.7,2.5-3.8,3.7-4.5,5.1"/>
		<path class="st17" d="M252.8,148.4c-0.9,2.8-1.8,2.7-2.4,5.7"/>
		<path class="st17" d="M247,148.4c-1.1,2-2.2,3.6-1.8,5.1"/>
		<path class="st17" d="M241.5,147.5c-0.4,2-1.5,4.7-1,6.6"/>
		<path class="st17" d="M236.2,149.2c0,1.2-0.7,2.8,0,4.9"/>
		<path class="st17" d="M230.9,148.4c-1,4.1-0.3,5.8-0.7,6.9"/>
		<path class="st17" d="M222.3,150.8c0,2.1,2.5,3.1,2.7,6.2"/>
		<path class="st17" d="M217.1,151.9c1.5,2,2.8,4.7,3.9,7.1"/>
		<path class="st17" d="M213.4,154.2c1.3,3.4,3.3,5.1,3.7,6.9"/>
		<path class="st17" d="M207.8,155.9c0.9,2.5,1.7,3.3,2.7,4.1"/>
		<path class="st17" d="M202.3,157c1.2,1.8,1.2,1.3,3.8,3.1"/>
		<path class="st17" d="M198.6,159c1.5,1.8,1.6,1.6,3.2,2.7"/>
		<path class="st17" d="M193.6,161.1c0,0,0.6,0.9,3.6,2.9"/>
		<path class="st17" d="M190.8,163.3c1.8,2.1,1.9,0.6,4.1,2.2"/>
		<path class="st17" d="M188.1,165.5c1.3,1.2,2.4,1.4,4,2.3"/>
		<path class="st17" d="M185.3,169.4c2.4,2.6,3.8,2.7,4.8,3.3"/>
		<path class="st17" d="M183.8,172.6c1.3,1.4,3.8,2.1,5.3,2.8"/>
		<path class="st17" d="M182.5,176.9c2.2,1.1,1.5,0.5,5.6,1.4"/>
		<path class="st17" d="M183.8,180.9c1.1,1.1,3.1-0.4,3.9,0"/>
		<path class="st17" d="M225,161.7c-1.1-2.2,1.8-3.7,8.3-4.1s12.1-1.8,16.5,0s11,1.1,8.9,7.3c-2,6.1-7.7,3.9-9.7,6.1
			c-2,2.2-0.6,2.5-3,3.1c-2.4,0.5-1-1.6-6.7-4.7C233.6,166.3,226.6,164.9,225,161.7z"/>
		<path class="st16" d="M187.7,397.1c1.5,1.8,8.4-18.7,10.5-26.9c2-8.2,6.7-27.9,8.6-44.4c2.4-21.1,2.3-34.5,1.3-53.9
			c-0.5-8.7,5.3-15.1,6.7-22.2c1.2-5.9,5.9-12,10.3-17.3c4.4-5.3,9.6-12.4,9.9-18.2c0.3-5.9,4.1-12.3-5.9-13.8
			c-10-1.5-19.9,6.4-19.9,6.4s10.9-6.6,15.9-3.6c5,3.1,8.1,10.2,2.4,18.6s-7.7,12.3-10.5,12.3c-2.8,0-2.3-6.2-5.2-5.8
			c-2.9,0.4,1.9,2.7,0,11.1c-1.9,8.4-8.3,17.4-9.3,28.1c-1,10.7,2.8,32.2,0.3,53.1c-2.6,20.9-5.1,38.8-8.7,51.8
			S183.7,392.3,187.7,397.1z"/>
	</g>
</g>
</svg>
