<?xml version="1.0" encoding="utf-8"?>
<!-- Generator: Adobe Illustrator 23.0.2, SVG Export Plug-In . SVG Version: 6.00 Build 0)  -->
<svg version="1.1" xmlns="http://www.w3.org/2000/svg" xmlns:xlink="http://www.w3.org/1999/xlink" x="0px" y="0px"
	 viewBox="0 0 450 450" style="enable-background:new 0 0 450 450;" xml:space="preserve">
<style type="text/css">
	.st0{display:none;}
	.st1{fill:none;stroke:#EC3500;stroke-miterlimit:10;}
	.st2{fill:#EC3500;}
	.st3{fill:none;stroke:#EC3500;stroke-linecap:round;stroke-linejoin:round;stroke-miterlimit:10;}
	.st4{fill:none;stroke:#EC3500;stroke-width:0.5;stroke-linecap:round;stroke-linejoin:round;stroke-miterlimit:10;}
	.st5{fill:none;stroke:#EC3500;stroke-width:0.75;stroke-linecap:round;stroke-linejoin:round;stroke-miterlimit:10;}
</style>
<g id="Слой_1" class="st0">
	<image style="display:inline;overflow:visible;" width="450" height="450" xlink:href="brain_earth.png" >
	</image>
</g>
<g id="Слой_2">
	<polygon class="st1" points="93.4,66.2 113.7,46.1 121.8,53.2 94.4,67 	"/>
	<line class="st1" x1="143.1" y1="31.8" x2="160.5" y2="45.4"/>
	<line class="st1" x1="164.6" y1="37.7" x2="146.2" y2="32.8"/>
	<path class="st1" d="M146,30.6c1.5-0.5,27.4-7,27.4-7"/>
	<path class="st1" d="M155.4,17.3"/>
	<line class="st1" x1="156.6" y1="17.3" x2="144.5" y2="30.6"/>
	<line class="st1" x1="134.9" y1="25.7" x2="142" y2="30.6"/>
	<polyline class="st1" points="118.9,35.3 142,31.8 113.7,46.1 116.6,38.4 120.8,32.6 134.9,25.7 156.6,17.3 173.4,23.6 160.5,45.4 
		142.8,48 121.8,53.2 142,31.8 142.8,48 	"/>
	<polyline class="st1" points="61.9,84 53.4,91.7 43,104.8 63.8,76.2 73.1,67 78.3,67 77.4,67 67,77.6 63.1,83.2 74.9,77.9 78.1,75 
		82.5,63.1 91.9,53.2 104.1,42.9 	"/>
	<line class="st1" x1="74.3" y1="66" x2="90.2" y2="53.2"/>
	<ellipse class="st2" cx="94.2" cy="67.4" rx="2.3" ry="1.7"/>
	<ellipse class="st2" cx="143.4" cy="31.8" rx="4.3" ry="1.8"/>
	<circle class="st2" cx="78.4" cy="75.4" r="1.5"/>
	<circle class="st2" cx="63.1" cy="82.8" r="1.2"/>
	<ellipse class="st2" cx="43.8" cy="104.4" rx="0.8" ry="1.3"/>
	<circle class="st2" cx="104.6" cy="43.1" r="1.4"/>
	<ellipse class="st2" cx="91.6" cy="53" rx="1.8" ry="0.9"/>
	<ellipse class="st2" cx="73.8" cy="66.6" rx="1.4" ry="0.9"/>
	<circle class="st2" cx="82.6" cy="63.1" r="1"/>
	<circle class="st2" cx="77.8" cy="66.9" r="0.9"/>
	<polygon class="st3" points="48.1,109.7 67.5,93.1 52.7,120.8 48.1,143.4 46.1,159.8 32,142.9 25.3,134.6 32.5,120.3 36.7,117.9 	
		"/>
	<polyline class="st3" points="32.6,140.4 51.7,120.5 46.4,114.5 32.6,139.5 34.2,119.3 	"/>
	<line class="st3" x1="32" y1="146.5" x2="36.7" y2="159.8"/>
	<line class="st3" x1="24.7" y1="135.6" x2="17.5" y2="154.5"/>
	<ellipse class="st2" cx="33.7" cy="120.6" rx="1.7" ry="1"/>
	<circle class="st2" cx="67.5" cy="93.8" r="1.4"/>
	<circle class="st2" cx="48" cy="143.4" r="1.6"/>
	<circle class="st2" cx="46.4" cy="159" r="1.7"/>
	<ellipse class="st2" cx="32" cy="142.9" rx="2.4" ry="3.6"/>
	<ellipse transform="matrix(0.7381 -0.6746 0.6746 0.7381 -99.2994 67.3136)" class="st2" cx="37.1" cy="161.6" rx="1.8" ry="1.3"/>
	<circle class="st2" cx="17.5" cy="155.6" r="1.1"/>
	<polyline class="st3" points="47.5,162.3 35.6,195 32.7,167 32,146.5 	"/>
	<polyline class="st3" points="45.7,159.8 32.7,167.5 23.4,173.5 32.7,203 46.7,187.2 	"/>
	<polyline class="st3" points="46.7,227.2 32.7,203.3 24.4,221.6 15.8,209.1 11.4,225.9 23.9,223.6 27.5,224.3 41.9,214.6 	"/>
	<path class="st3" d="M22.7,173.8c-0.6,0.3-9.3,9.4-9.3,9.4l-5.3,9.6l16,26.1l-1.3-44.2"/>
	<circle class="st2" cx="23.1" cy="173.4" r="1.3"/>
	<ellipse transform="matrix(0.9881 -0.1541 0.1541 0.9881 -28.1546 9.5448)" class="st2" cx="47.5" cy="186.4" rx="1.6" ry="1.3"/>
	<ellipse class="st2" cx="33.1" cy="203.5" rx="2" ry="3.2"/>
	<ellipse class="st2" cx="42.8" cy="214.3" rx="1.3" ry="1.9"/>
	<ellipse class="st2" cx="15.8" cy="209.6" rx="1.1" ry="1.6"/>
	<ellipse class="st2" cx="27.4" cy="224.7" rx="1.9" ry="3"/>
	<ellipse class="st2" cx="42.8" cy="235.3" rx="1.3" ry="2.5"/>
	<ellipse class="st2" cx="47" cy="227.5" rx="1.3" ry="1.7"/>
	<ellipse transform="matrix(0.4679 -0.8838 0.8838 0.4679 -155.1498 109.5025)" class="st2" cx="13.4" cy="183.6" rx="1.3" ry="1"/>
	<ellipse class="st2" cx="8.1" cy="192.6" rx="0.6" ry="1.3"/>
	<ellipse class="st2" cx="47.8" cy="163" rx="1.1" ry="1.4"/>
	<polyline class="st3" points="42.3,235.6 27.5,224.3 15.8,240.2 11.4,225.9 7.4,234.4 7.4,225 6.3,213 	"/>
	<path class="st3" d="M39,248.8c-0.4-0.4-13-19.9-13-19.9l-10.3,21.1L10.6,229"/>
	<ellipse class="st2" cx="26.3" cy="229.4" rx="0.8" ry="1.2"/>
	<ellipse class="st2" cx="15.8" cy="249.4" rx="1.1" ry="1.4"/>
	<ellipse class="st2" cx="39" cy="249" rx="1.1" ry="1.6"/>
	<ellipse class="st2" cx="7.2" cy="234.7" rx="0.9" ry="1.3"/>
	<circle class="st2" cx="6.4" cy="213.2" r="1.2"/>
	<circle class="st2" cx="24.6" cy="221.5" r="1.1"/>
	<circle class="st2" cx="23.9" cy="223.6" r="0.8"/>
	<ellipse class="st2" cx="15.8" cy="240.1" rx="1.1" ry="1.4"/>
	<polyline class="st3" points="13.4,172.6 19.8,165.6 23.1,172.6 	"/>
	<polyline class="st3" points="20.7,186.4 15.8,199.4 24.1,218.8 	"/>
	<line class="st3" x1="9.8" y1="195.5" x2="6" y2="213"/>
	<line class="st3" x1="13.4" y1="206.3" x2="7.4" y2="225"/>
	<polyline class="st3" points="31.1,145.9 19.9,163 17.5,156 32,145 23.4,173.1 	"/>
	<line class="st3" x1="31.7" y1="252.2" x2="28.1" y2="232.1"/>
	<line class="st3" x1="25.2" y1="233.4" x2="19.9" y2="268"/>
	<polyline class="st3" points="50,259.8 35.3,253.9 47.3,288 	"/>
	<path class="st3" d="M44.1,268.6c-0.1-0.1-18.1-2-18.1-2l-9,5.4l-6.3-1.1l4.1-5.3l-7.1-30.4"/>
	<polyline class="st3" points="50.5,295.4 25.8,267.4 35.8,288.7 	"/>
	<ellipse class="st2" cx="25.8" cy="266.7" rx="1.4" ry="2.2"/>
	<ellipse transform="matrix(0.9388 -0.3445 0.3445 0.9388 -86.4809 33.227)" class="st2" cx="50.3" cy="260" rx="1.2" ry="1.8"/>
	<ellipse class="st2" cx="44.6" cy="268.9" rx="1.1" ry="1.5"/>
	<ellipse transform="matrix(0.4549 -0.8905 0.8905 0.4549 -230.216 199.205)" class="st2" cx="47.6" cy="287.7" rx="1.2" ry="1.5"/>
	
		<ellipse transform="matrix(0.7071 -0.7071 0.7071 0.7071 -194.1166 110.5119)" class="st2" cx="36.3" cy="289.6" rx="1.2" ry="2.1"/>
	<circle class="st2" cx="14.6" cy="265.6" r="0.7"/>
	<circle class="st2" cx="19.8" cy="268.1" r="0.8"/>
	<ellipse class="st2" cx="31.6" cy="252.2" rx="1.1" ry="1.5"/>
	<ellipse class="st2" cx="35.5" cy="254.4" rx="0.9" ry="1.6"/>
	<circle class="st2" cx="10.6" cy="271.2" r="0.8"/>
	<ellipse class="st2" cx="17" cy="272.1" rx="0.8" ry="1.2"/>
	<circle class="st2" cx="11.6" cy="225.8" r="1.1"/>
	<circle class="st2" cx="20.9" cy="186.2" r="0.9"/>
	<ellipse transform="matrix(0.7071 -0.7071 0.7071 0.7071 -127.4315 82.3957)" class="st2" cx="35.7" cy="195" rx="1.7" ry="1.2"/>
	<ellipse transform="matrix(0.2508 -0.968 0.968 0.2508 -144.0778 193.2388)" class="st2" cx="52.8" cy="189.7" rx="1.6" ry="1.1"/>
	<line class="st3" x1="6.3" y1="242.1" x2="14.6" y2="266.4"/>
	<polyline class="st3" points="10.6,270.9 20.6,292.9 17,272.1 	"/>
	<path class="st3" d="M31.7,304.6c0.4-0.3,4.6-14.6,4.6-14.6l9.3,16.3l-13.4-0.9l-10.7-22.8"/>
	<line class="st3" x1="25.2" y1="268.1" x2="27.2" y2="300.9"/>
	<polyline class="st3" points="15.6,290.1 26.8,303.7 30.9,322 	"/>
	<polyline class="st3" points="45,332.4 32.2,305.4 33.6,317.5 42.6,335 53,336 50,326.3 45.7,307.6 	"/>
	<polyline class="st3" points="35.1,330.8 42.6,335 46.9,340 	"/>
	<path class="st3" d="M72,357.3c-0.3-0.3-18.3-20.3-18.3-20.3l2.2,15.1"/>
	<line class="st3" x1="65" y1="333.4" x2="53.7" y2="337.1"/>
	<line class="st3" x1="66.5" y1="356.6" x2="50.5" y2="341.9"/>
	
		<ellipse transform="matrix(0.8051 -0.5932 0.5932 0.8051 -172.7501 86.6349)" class="st2" cx="45.4" cy="306.2" rx="1.6" ry="2.2"/>
	
		<ellipse transform="matrix(0.2743 -0.9616 0.9616 0.2743 -273.5102 246.1547)" class="st2" cx="26.3" cy="304.3" rx="1.1" ry="1.7"/>
	<circle class="st2" cx="30.9" cy="322" r="1.3"/>
	<ellipse transform="matrix(0.633 -0.7741 0.7741 0.633 -241.2434 165.2394)" class="st2" cx="53.7" cy="337.1" rx="1.8" ry="2.4"/>
	<ellipse class="st2" cx="64.9" cy="333.8" rx="2.1" ry="1.6"/>
	<ellipse class="st2" cx="35.1" cy="330.9" rx="1.1" ry="1.3"/>
	<ellipse class="st2" cx="50.2" cy="341.4" rx="1.2" ry="1.4"/>
	<circle class="st2" cx="46.6" cy="340.3" r="1.2"/>
	
		<ellipse transform="matrix(0.8408 -0.5414 0.5414 0.8408 -181.9693 86.2356)" class="st2" cx="55.6" cy="352.5" rx="0.9" ry="1.4"/>
	<ellipse transform="matrix(0.1393 -0.9902 0.9902 0.1393 -296.1509 373.8957)" class="st2" cx="67" cy="357.3" rx="1.3" ry="1.5"/>
	<ellipse class="st2" cx="72.5" cy="358.2" rx="1.4" ry="0.9"/>
	<ellipse class="st2" cx="44.9" cy="332.4" rx="0.9" ry="0.6"/>
	<path class="st3" d="M45.4,349.3c0.6-0.3,18.2,18.9,18.2,18.9l12.8,12.4l6.1-2.3"/>
	<polyline class="st3" points="76,372.5 65,368.9 61.2,361.5 	"/>
	<polyline class="st3" points="59.3,368 90.1,396.6 76.4,380.5 96.3,395.6 	"/>
	<path class="st3" d="M78.6,360.6c0.4-0.3,11.4-8.1,11.4-8.1l-22-17.1"/>
	<polyline class="st3" points="86.8,367 109.2,367.5 143.6,380.5 	"/>
	<line class="st3" x1="101.1" y1="280.4" x2="146.4" y2="301.1"/>
	<polyline class="st3" points="60.5,271.5 97.6,280.4 62.8,298.3 	"/>
	<polyline class="st3" points="63.9,290.8 71.1,260 109.7,332.2 111.5,332.2 133.2,310.2 	"/>
	<line class="st3" x1="55" y1="260" x2="71.1" y2="260"/>
	<line class="st3" x1="111.7" y1="335.4" x2="143.6" y2="372.5"/>
	<ellipse transform="matrix(0.9943 -0.1067 0.1067 0.9943 -29.436 12.2369)" class="st2" cx="99.7" cy="281.3" rx="4.9" ry="5.4"/>
	<ellipse class="st2" cx="71.6" cy="259.7" rx="1.7" ry="2.1"/>
	<ellipse class="st2" cx="78.9" cy="257.6" rx="1.8" ry="2.4"/>
	<ellipse class="st2" cx="60.8" cy="271.9" rx="1.5" ry="2.3"/>
	
		<ellipse transform="matrix(0.6677 -0.7445 0.7445 0.6677 -195.8898 144.1709)" class="st2" cx="63.5" cy="291.5" rx="1.4" ry="2.2"/>
	<ellipse class="st2" cx="62.6" cy="298.6" rx="1.3" ry="1.8"/>
	<ellipse transform="matrix(0.9648 -0.2631 0.2631 0.9648 -75.9349 23.8686)" class="st2" cx="51.1" cy="295.4" rx="1.1" ry="1.7"/>
	<ellipse transform="matrix(0.9784 -0.2067 0.2067 0.9784 -62.5674 13.2851)" class="st2" cx="32.3" cy="306.1" rx="1.8" ry="2.2"/>
	<ellipse class="st2" cx="68.2" cy="335.6" rx="1.2" ry="1.9"/>
	<ellipse transform="matrix(0.1632 -0.9866 0.9866 0.1632 -249.8514 340.9244)" class="st2" cx="76" cy="317.7" rx="2.1" ry="2.9"/>
	<ellipse class="st2" cx="54.4" cy="260" rx="1.4" ry="1.8"/>
	<ellipse class="st2" cx="58.6" cy="236.7" rx="1.8" ry="2.9"/>
	<ellipse class="st2" cx="111" cy="335" rx="4.2" ry="5"/>
	
		<ellipse transform="matrix(0.2743 -0.9616 0.9616 0.2743 -233.4862 376.1263)" class="st2" cx="132.5" cy="342.8" rx="4" ry="4.7"/>
	
		<ellipse transform="matrix(0.2743 -0.9616 0.9616 0.2743 -274.5129 343.8898)" class="st2" cx="90.6" cy="353.8" rx="2.8" ry="3.8"/>
	<circle class="st2" cx="78.6" cy="360.7" r="1.5"/>
	<circle class="st2" cx="87" cy="366.8" r="1.9"/>
	<ellipse class="st2" cx="107" cy="377.3" rx="2.2" ry="1.4"/>
	<circle class="st2" cx="108.6" cy="367.4" r="1.8"/>
	<ellipse class="st2" cx="118.4" cy="357.3" rx="2" ry="1.4"/>
	<ellipse class="st2" cx="83" cy="378.5" rx="2.1" ry="1.4"/>
	<ellipse class="st2" cx="61.4" cy="361.4" rx="1.4" ry="0.8"/>
	<circle class="st2" cx="76.4" cy="372" r="1.5"/>
	<circle class="st2" cx="45.9" cy="349" r="1"/>
	<ellipse class="st2" cx="59.2" cy="367.7" rx="0.7" ry="1.5"/>
	<ellipse class="st2" cx="91.2" cy="397.1" rx="2.4" ry="1.7"/>
	<circle class="st2" cx="133.6" cy="309.5" r="2.6"/>
	<ellipse class="st2" cx="147" cy="301" rx="4.1" ry="3.3"/>
	<ellipse class="st2" cx="128.1" cy="265.1" rx="4.4" ry="5.4"/>
	<ellipse class="st2" cx="85.2" cy="225.7" rx="2.7" ry="6.6"/>
	<ellipse transform="matrix(0.2508 -0.968 0.968 0.2508 -137.509 221.562)" class="st2" cx="74.4" cy="199.6" rx="4.7" ry="3.4"/>
	<ellipse class="st2" cx="53.5" cy="227.4" rx="1.5" ry="2.4"/>
	<ellipse transform="matrix(0.593 -0.8052 0.8052 0.593 -126.2607 121.3906)" class="st2" cx="56.9" cy="185.6" rx="2.5" ry="1.6"/>
	<polyline class="st3" points="56.9,185.6 74.4,199.6 53.5,227.4 	"/>
	<polyline class="st3" points="53.9,190 71.1,191.2 63,159.8 	"/>
	<polyline class="st3" points="74.3,130.5 82.6,108.7 107.6,81.6 153.7,67.4 152.1,155.6 	"/>
	<polyline class="st3" points="153.7,67.4 114.3,114.5 131.9,78.3 	"/>
	<polyline class="st3" points="108.9,87.3 110.9,114.5 86.9,109.2 	"/>
	<line class="st3" x1="82.6" y1="89.1" x2="82.6" y2="107.5"/>
	<line class="st3" x1="86.9" y1="83.5" x2="107.6" y2="81.6"/>
	<ellipse class="st2" cx="87.2" cy="82.8" rx="2" ry="1.2"/>
	<circle class="st2" cx="82.3" cy="88.6" r="1.3"/>
	<ellipse class="st2" cx="108.7" cy="87" rx="2" ry="1.6"/>
	<circle class="st2" cx="108.7" cy="81.3" r="2"/>
	<circle class="st2" cx="132.6" cy="77.7" r="1.6"/>
	<ellipse class="st2" cx="154.5" cy="66.7" rx="2" ry="1.1"/>
	<ellipse transform="matrix(0.907 -0.4212 0.4212 0.907 -38.4108 57.8683)" class="st2" cx="111.8" cy="115.9" rx="5.1" ry="3.6"/>
	<ellipse class="st2" cx="73.5" cy="132.4" rx="1.8" ry="2.4"/>
	<circle class="st2" cx="82.3" cy="108.9" r="1.3"/>
	<circle class="st2" cx="86.6" cy="108.9" r="1.3"/>
	<ellipse class="st2" cx="62.5" cy="159.2" rx="1.3" ry="2.4"/>
	<circle class="st2" cx="67.4" cy="154.1" r="1.6"/>
	<ellipse transform="matrix(0.5 -0.866 0.866 0.5 -85.7827 146.3987)" class="st2" cx="83.9" cy="147.5" rx="2.4" ry="1.3"/>
	<ellipse class="st2" cx="70.3" cy="190.6" rx="1.3" ry="2"/>
	<polyline class="st3" points="86,230.6 133.6,309.5 152.6,337.1 114,335 	"/>
	<path class="st3" d="M159.8,375.9l-27.3-33.2h33.8l-19-41L131.2,340l-31.9-58.6c0,0-22,34.3-22.2,34.6"/>
	<polyline class="st3" points="148.6,301.1 207.8,313.5 166.3,342.8 	"/>
	<polyline class="st3" points="237.1,275.7 207.8,313.5 243.5,346.2 	"/>
	<line class="st3" x1="198.1" y1="375.9" x2="152.6" y2="337.1"/>
	<polyline class="st3" points="159.8,234.7 129.9,263.2 133.6,327.2 	"/>
	<polyline class="st3" points="150.1,222.9 125.3,249.4 86.8,228.1 	"/>
	<polyline class="st3" points="86.8,222.9 123.7,202.6 153.7,229 	"/>
	<polyline class="st3" points="80,192 112.4,153.1 126.8,186.4 	"/>
	<polyline class="st3" points="132.5,142.9 128.1,185.3 86.6,221.6 	"/>
	<line class="st3" x1="112.4" y1="153.1" x2="69" y2="154.1"/>
	<circle class="st2" cx="112.8" cy="153.4" r="2"/>
	<ellipse transform="matrix(0.198 -0.9802 0.9802 0.198 -79.9675 275.145)" class="st2" cx="128.2" cy="186.4" rx="5.3" ry="3.7"/>
	<ellipse class="st2" cx="78.5" cy="193.8" rx="1.4" ry="2.5"/>
	<ellipse class="st2" cx="124.3" cy="202.6" rx="1.5" ry="2.9"/>
	<ellipse class="st2" cx="150.4" cy="222.6" rx="1" ry="1.7"/>
	<ellipse class="st2" cx="154.6" cy="228.9" rx="1" ry="1.7"/>
	<ellipse class="st2" cx="159.3" cy="233.8" rx="2.7" ry="1.5"/>
	<circle class="st2" cx="125.7" cy="248.7" r="2"/>
	<circle class="st2" cx="110.4" cy="386.6" r="1.2"/>
	<circle class="st2" cx="94.9" cy="382.8" r="1.4"/>
	<circle class="st2" cx="87.9" cy="381.4" r="0.9"/>
	<ellipse transform="matrix(0.5 -0.866 0.866 0.5 -289.1358 295.866)" class="st2" cx="111.7" cy="398.3" rx="2.1" ry="3.3"/>
	<ellipse class="st2" cx="96.7" cy="396" rx="1.7" ry="1.1"/>
	<ellipse transform="matrix(0.5 -0.866 0.866 0.5 -282.9946 304.5794)" class="st2" cx="122.3" cy="397.4" rx="1.4" ry="2.6"/>
	<ellipse class="st2" cx="114.3" cy="404.3" rx="1.4" ry="1.1"/>
	<ellipse class="st2" cx="133.1" cy="402.2" rx="1.8" ry="1"/>
	<ellipse class="st2" cx="160.5" cy="404.7" rx="2.2" ry="1.5"/>
	<ellipse class="st2" cx="168.3" cy="411.9" rx="2" ry="1.6"/>
	
		<ellipse transform="matrix(0.5521 -0.8338 0.8338 0.5521 -280.6649 319.6452)" class="st2" cx="157.2" cy="421.1" rx="1.7" ry="3.3"/>
	
		<ellipse transform="matrix(0.4399 -0.8981 0.8981 0.4399 -295.8041 362.1617)" class="st2" cx="142.4" cy="418.2" rx="1.7" ry="3.3"/>
	<polyline class="st3" points="87.9,381.4 111.2,398.3 110.4,386.6 	"/>
	<polyline class="st3" points="94.9,382.8 122.3,397.1 114.3,403.9 	"/>
	<polyline class="st3" points="103.4,406.2 114.3,415.8 134.9,423.9 114.3,411.9 	"/>
	<polyline class="st3" points="114.3,404.3 118.1,411.4 141.2,417.7 134.9,424.2 	"/>
	<polyline class="st3" points="139.9,424.2 149.7,429.1 157.2,421.1 133.1,402.2 141.2,417.1 123.4,401.1 	"/>
	<polyline class="st3" points="160,404.7 142.9,417.5 159.5,427.5 	"/>
	<path class="st3" d="M131.3,389c0.3,0,29.2,15.7,29.2,15.7l12,20.6"/>
	<polyline class="st3" points="167.3,411.9 157.6,420.6 169.5,429.1 182.5,441.1 	"/>
	<polyline class="st3" points="154.9,432.3 166.3,430.6 173.8,426.5 183.1,436.4 215,436.4 184.1,427.2 174.6,426.5 202.1,416.8 
		178.8,396 	"/>
	<line class="st3" x1="172.5" y1="436" x2="166.3" y2="430.6"/>
	<path class="st3" d="M226.4,403.2c-0.4,0.5-23.1,13.4-23.1,13.4l20.1,11l-39.2-0.3"/>
	<polyline class="st3" points="200.2,423.7 215,436.4 207.6,442.7 197.1,441.1 	"/>
	<circle class="st2" cx="150" cy="429" r="1.4"/>
	<ellipse class="st2" cx="173.4" cy="426.7" rx="1.7" ry="1.5"/>
	<ellipse class="st2" cx="172.6" cy="436.4" rx="1.7" ry="0.7"/>
	<ellipse class="st2" cx="199.2" cy="423.9" rx="2" ry="1.4"/>
	<ellipse class="st2" cx="178.2" cy="397.1" rx="2" ry="1.6"/>
	<ellipse class="st2" cx="226.8" cy="403.6" rx="1.8" ry="1.4"/>
	<ellipse class="st2" cx="223.5" cy="427.4" rx="2.3" ry="1.7"/>
	<ellipse class="st2" cx="215.6" cy="436.6" rx="2.9" ry="1.3"/>
	<ellipse class="st2" cx="207.6" cy="442.6" rx="1.5" ry="1.1"/>
	<circle class="st2" cx="197.3" cy="441.1" r="0.9"/>
	<ellipse class="st2" cx="183.7" cy="427.2" rx="1.8" ry="1.4"/>
	<ellipse class="st2" cx="198.6" cy="376.2" rx="4.2" ry="2.4"/>
	<ellipse class="st2" cx="166.1" cy="342.6" rx="2.6" ry="1.8"/>
	<ellipse class="st2" cx="243.1" cy="346.2" rx="2.8" ry="2.1"/>
	<ellipse class="st2" cx="209.1" cy="313.5" rx="4.9" ry="4.2"/>
	<circle class="st2" cx="237.5" cy="276.1" r="2.6"/>
	<ellipse class="st2" cx="152.1" cy="337.4" rx="2.4" ry="2"/>
	<ellipse class="st2" cx="158.4" cy="375.1" rx="2.4" ry="1.9"/>
	<circle class="st2" cx="143.6" cy="373.1" r="1.2"/>
	<circle class="st2" cx="144.3" cy="380.3" r="1.1"/>
	<circle class="st2" cx="187.6" cy="242.5" r="4.8"/>
	<ellipse class="st2" cx="206.3" cy="237.5" rx="4.5" ry="5.4"/>
	<circle class="st2" cx="241.3" cy="262.7" r="5.1"/>
	<ellipse class="st2" cx="262.8" cy="241.8" rx="6.5" ry="5.6"/>
	<circle class="st2" cx="206.7" cy="214" r="4.8"/>
	<circle class="st2" cx="236.5" cy="208.1" r="4.8"/>
	<ellipse class="st2" cx="241.9" cy="187.4" rx="4.5" ry="5.1"/>
	<circle class="st2" cx="152.1" cy="157.1" r="2.6"/>
	<circle class="st2" cx="175.2" cy="186.6" r="2.5"/>
	<path class="st4" d="M113.3,152.4l20.4-14c0,0-21.1-20-20.9-20.4"/>
	<path class="st3" d="M152.1,157.1c0.5-0.7,32.6-28.4,32.6-28.4l31,30.4L152.1,157.1"/>
	<polyline class="st3" points="247.9,125.7 215.7,159.1 234.7,203.7 	"/>
	<polyline class="st3" points="241.3,184.9 234,159.1 205.1,185.2 	"/>
	<line class="st4" x1="206.7" y1="209.1" x2="205.1" y2="185.2"/>
	<line class="st4" x1="176.3" y1="187.4" x2="203.2" y2="210.6"/>
	<polyline class="st4" points="186.7,240.7 206.3,214.9 240.1,260.9 	"/>
	<polyline class="st3" points="262.2,240.3 237.5,209.1 230.9,225 	"/>
	<polyline class="st4" points="166.9,272.5 147,300.2 144.3,271.5 	"/>
	<circle class="st2" cx="144.2" cy="271.1" r="1.4"/>
	<circle class="st2" cx="167" cy="271.9" r="1.4"/>
	<circle class="st2" cx="133.4" cy="327.1" r="1"/>
	<circle class="st2" cx="231.1" cy="225.2" r="1.6"/>
	<ellipse class="st2" cx="204.8" cy="185.3" rx="1.6" ry="2.1"/>
	<ellipse class="st2" cx="167.8" cy="179.9" rx="2.9" ry="2.4"/>
	<polyline class="st3" points="166.8,178.7 152.1,157.1 129.9,182.3 128.2,187.4 157.6,214.9 	"/>
	<polyline class="st5" points="204.1,294.2 187.6,244.3 172.9,259.7 	"/>
	<path class="st4" d="M-68.5,147.5"/>
	<polyline class="st3" points="162.1,290.8 241.3,262.7 283.4,291.5 	"/>
	<polyline class="st3" points="215.7,280.4 240.4,312.1 262.8,241.8 304.3,303.4 243.1,312.1 283.4,342.6 303,304.3 	"/>
	<ellipse class="st2" cx="241.4" cy="313.6" rx="5.2" ry="4.1"/>
	<ellipse class="st2" cx="283.9" cy="342.6" rx="3" ry="1.8"/>
	<circle class="st2" cx="303.5" cy="304" r="3.8"/>
	<circle class="st2" cx="234" cy="159.5" r="2.2"/>
	
		<ellipse transform="matrix(0.9388 -0.3445 0.3445 0.9388 -33.0553 71.5066)" class="st2" cx="184.7" cy="128.8" rx="5.2" ry="3.9"/>
	<circle class="st2" cx="173.9" cy="259" r="1.4"/>
	<circle class="st2" cx="167.7" cy="272" r="1.5"/>
	<circle class="st2" cx="144.3" cy="270.7" r="1.1"/>
	<circle class="st2" cx="204.7" cy="295.6" r="1.7"/>
	<circle class="st2" cx="248.5" cy="125.4" r="2.1"/>
	<ellipse class="st2" cx="133.2" cy="139.4" rx="3.4" ry="4.5"/>
	<polyline class="st3" points="219.8,402.2 228.6,415 199.2,423.9 	"/>
	<path class="st3" d="M265,407.4c-5.4,3.3-36.3,7.6-36.3,7.6l36.3,10.2l7.1,8l-1.5,4.6l-27.1,4.9l-8.7-6.1l15.5-11.3"/>
	<polyline class="st3" points="246.5,413.5 223.5,427.4 223.5,437.1 233.3,442 	"/>
	<line class="st3" x1="215.6" y1="437.8" x2="221.1" y2="442.7"/>
	<polyline class="st3" points="293.6,420.1 281,411.9 267.5,423.7 305.3,405.3 305.8,420.1 	"/>
	<line class="st3" x1="267.5" y1="425.7" x2="291.3" y2="425.7"/>
	<polyline class="st3" points="270.6,437.8 301.2,427.8 293.6,420.1 272.1,433.2 	"/>
	<line class="st3" x1="328.6" y1="418.2" x2="301.2" y2="427.8"/>
	<polyline class="st3" points="303.5,425.7 305.8,420.1 322.4,418.2 331.9,410.3 	"/>
	<polyline class="st3" points="305.3,405.3 337,397.4 333.1,408.7 	"/>
	<line class="st3" x1="269.3" y1="406.2" x2="267.5" y2="423.7"/>
	<polyline class="st3" points="356.9,379.2 339.5,396 339.5,387.6 	"/>
	<polyline class="st3" points="360.7,381.4 341.1,396.6 353.8,396.6 	"/>
	<polyline class="st5" points="345.1,405.3 359.2,397.4 372,381.4 397,359.1 	"/>
	<polyline class="st3" points="390.1,368.6 378.3,381.4 366.3,391.1 	"/>
	<polyline class="st3" points="389.1,360.6 380,374.3 378.2,367.4 	"/>
	<line class="st3" x1="373.5" y1="378.7" x2="366.3" y2="377.3"/>
	<polyline class="st3" points="331.9,382.8 353.8,359.1 360.7,372.5 	"/>
	<polyline class="st3" points="371.1,360.7 360.7,353.8 379.4,344.5 	"/>
	<path class="st3" d="M383.6,333.4c-1.2,0.3-22.9,20.4-22.9,20.4l7.1-23.9"/>
	<path class="st3" d="M291.3,373.7c1.5-0.8,26.4-31.9,26.4-31.9l12.7,27.3l23.5-10.1"/>
	<path class="st3" d="M270.6,389c0-2.2,13.3-44.5,13.3-44.5"/>
	<polyline class="st3" points="258.3,362.2 228.6,382.2 201.2,376.2 	"/>
	<path class="st3" d="M245.9,396c-2.4-1.5-16.1-14.6-16.1-14.6"/>
	<path class="st5" d="M381.1,360.6c1.8-1.9,17.6-21.8,17.6-21.8s-1.3,14.1-1.8,13.8"/>
	<path class="st5" d="M413.6,329.9c-1-0.6-14.8,8.8-14.8,8.8l3.1-19.7l19.9-26.9l6.6,8l-8.9,21.7"/>
	<polyline class="st5" points="385.7,332.4 398.8,338.8 387,338.8 	"/>
	<line class="st5" x1="405.9" y1="346.2" x2="398.8" y2="360.6"/>
	<line class="st5" x1="412.2" y1="335.6" x2="425.6" y2="315.5"/>
	<polyline class="st5" points="398.8,294.2 412.2,281.8 421.7,292.2 433.7,273.5 439.1,271.4 433.5,292.2 	"/>
	<polyline class="st5" points="405.9,267.7 425.6,267.7 411.1,282.8 	"/>
	<polyline class="st5" points="433.7,271.4 436.6,237.9 444,244.3 	"/>
	<polyline class="st5" points="425.6,265.7 436.6,237.9 424.1,249.4 415.7,224.7 	"/>
	<path class="st5" d="M413.6,250.2c0.3-1.8,2.2-27.6,2.2-27.6l-11.6,4.9"/>
	<path class="st5" d="M425.6,241.8c-0.5-0.8,0.6-18.1,0.6-18.1l12.7,2.8l5.1,9.7"/>
	<polyline class="st5" points="444,212.8 438.9,226.4 434.7,212.8 442.7,203.7 	"/>
	<polyline class="st5" points="405.9,189.1 417.7,203.3 398.8,226.6 	"/>
	<polyline class="st5" points="376.6,203.3 398.3,226.4 379.4,222.6 	"/>
	<path class="st3" d="M304.3,301.1c1.1-0.4,36.8-16.5,36.8-16.5l2.8,33l-38-10.7"/>
	<path class="st3" d="M343.9,319.1c-1.5,0-24.8,21.7-24.8,21.7l41.6,13"/>
	<polyline class="st3" points="283.4,342.6 319.1,340.8 304.3,305.3 314.3,242.9 286.9,250.2 	"/>
	<polyline class="st5" points="434.7,181 434.7,212.8 433.7,211.7 422.8,199 427.9,186.2 428.7,184.1 433.7,177.4 440.6,184.1 	"/>
	<line class="st5" x1="429.4" y1="187.4" x2="434.7" y2="210.6"/>
	<polyline class="st5" points="409.9,168.5 420.2,157.3 433.7,177.4 	"/>
	<polyline class="st5" points="438.9,172.1 429.4,165.9 417.7,140.6 404.1,159.5 426.1,173.3 417.7,203.3 426.1,223.6 	"/>
	<path class="st5" d="M433.7,153.4c-0.8,1.5-4.3,12.5-4.3,12.5l-3.3,7.4"/>
	<polyline class="st5" points="431.7,149.6 420.2,157.3 404.1,133.2 	"/>
	<polyline class="st5" points="426.1,134.5 417.7,140.6 417.9,129.9 	"/>
	<path class="st5" d="M411.3,109.7c-0.8,0,0,8.7,0,8.7l6.6,2.8"/>
	<polyline class="st5" points="383.7,95.7 397,120.2 404.1,112.8 411.3,118.4 417.7,140.6 401.6,123.3 	"/>
	<polyline class="st5" points="396.2,91.9 378.9,75 376.8,83.4 	"/>
	<path class="st3" d="M371.7,75c0,0-3.8-13.5-3.8-12.5c0,1,11,12.5,11,12.5l1-6.3l-12-6.2"/>
	<polyline class="st3" points="352.3,47.7 367.9,62.5 361.5,62.5 	"/>
	<polyline class="st3" points="356.9,67.4 330.9,36 305.3,32.4 307.4,46.4 325,49.9 	"/>
	<path class="st3" d="M334.9,45.7c-1-0.3,1.8,9.4,1.8,9.4l22,18.4"/>
	<line class="st3" x1="331.1" y1="64.8" x2="336.7" y2="55.1"/>
	<path class="st3" d="M360.1,78.6c-0.9,1.8-7.8,10.7-7.8,10.7l-15.6-20.6"/>
	<path class="st3" d="M378.6,105.9c-2.3,0-25-14-25-14l14.3,27.6l-39.6-10.1"/>
	<polyline class="st3" points="367.9,88.3 369.1,109.7 386.5,153.4 	"/>
	<path class="st3" d="M328.3,32.4c-1.3-1-34.2-15.3-34.2-15.3l10.2,11.2l14.3,3.1"/>
	<polyline class="st3" points="281.1,19.9 305.3,32.4 290,36.5 307.4,46.4 	"/>
	<polyline class="st3" points="295.6,51 267.8,26.3 290,36.5 	"/>
	<polyline class="st3" points="264.7,15 271.6,10.4 272.6,17.1 267.8,27.5 267.8,45.7 	"/>
	<polyline class="st3" points="292.6,21.1 271.6,10.4 255.8,7.4 	"/>
	<path class="st3" d="M281.7,98.5c0.9,0,35.4-23.5,35.4-23.5l34.5,13.3"/>
	<polyline class="st3" points="173.4,10.4 182.8,14.3 173.4,23.6 196,30.6 	"/>
	<polyline class="st3" points="246.4,10.4 230.9,5.1 220.4,10.4 198.6,16 222.5,27.1 	"/>
	<polyline class="st3" points="199.6,5.1 182.8,14.3 215.7,7.4 247.9,14.3 	"/>
	<line class="st3" x1="222.5" y1="22.2" x2="220.4" y2="10.4"/>
	<polyline class="st3" points="238.2,17.3 225,28 249.4,38.6 	"/>
	<polyline class="st3" points="234,41.7 225,28 211.5,46.4 	"/>
	<polyline class="st3" points="226.4,46.1 205.2,33.6 221.5,23.6 	"/>
	<path class="st3" d="M249.4,17.3c-1,0.5-19.4,9.8-19.4,9.8l20.6,5.3"/>
	<polyline class="st3" points="187,46.1 202.7,33.6 164.6,46.4 	"/>
	<polyline class="st5" points="385.7,266.4 398.8,226.6 346.7,256 	"/>
	<path class="st3" d="M336.7,191.2c-0.1-3.4,6.9-58,6.9-58l28.9,31.5"/>
	<polyline class="st3" points="281.7,132.4 343.6,133.2 295.6,179 295.6,220.9 	"/>
	<polyline class="st3" points="331.1,221.5 295.6,179 270.6,195 	"/>
	<polyline class="st3" points="169.2,81.6 226.4,63.1 213.4,107.5 	"/>
	<polyline class="st3" points="272.6,64.8 226.4,63.1 252.6,79.3 274.2,76 	"/>
	<line class="st3" x1="243.5" y1="110.2" x2="252.6" y2="79.3"/>
	<line class="st3" x1="109.7" y1="116.5" x2="85.1" y2="145.4"/>
	<polyline class="st3" points="58.6,236.7 85.2,225.7 78.9,255.1 	"/>
	<polyline class="st3" points="107,377.3 108.6,367.4 118.4,358.8 	"/>
	<line class="st3" x1="188.5" y1="46.4" x2="226.4" y2="63.1"/>
	<path class="st5" d="M366.3,281.3c0.6,1.3,10.2,25.6,10.2,25.6l27.6-1.3l20-36.3l-1.6,36.3h-18.4l-2.3,13.5"/>
	<ellipse class="st2" cx="229.6" cy="382.3" rx="3.2" ry="1.9"/>
	<circle class="st2" cx="258.4" cy="362.3" r="1.6"/>
	<ellipse class="st2" cx="246.4" cy="395.9" rx="2" ry="1.1"/>
	<ellipse class="st2" cx="269.8" cy="388.8" rx="2.3" ry="1"/>
	<circle class="st2" cx="291.5" cy="374.2" r="1.7"/>
	<circle class="st2" cx="330.1" cy="369" r="1.6"/>
	<circle class="st2" cx="319.1" cy="341.2" r="2.4"/>
	<circle class="st2" cx="343.7" cy="318.1" r="2.6"/>
	<circle class="st2" cx="368.1" cy="328.9" r="1.8"/>
	<circle class="st2" cx="384.1" cy="331.9" r="1.9"/>
	<circle class="st2" cx="380.8" cy="344.2" r="1.4"/>
	<circle class="st2" cx="387" cy="338.7" r="1.2"/>
	<circle class="st2" cx="413.7" cy="329.6" r="0.7"/>
	<circle class="st2" cx="425.8" cy="315.3" r="0.8"/>
	<circle class="st2" cx="419.1" cy="322.6" r="1"/>
	<circle class="st2" cx="422.4" cy="305.5" r="0.7"/>
	<circle class="st2" cx="376.7" cy="307" r="1.5"/>
	<circle class="st2" cx="366.4" cy="281.1" r="1.2"/>
	<circle class="st2" cx="341.3" cy="284.9" r="1.4"/>
	<circle class="st2" cx="398.5" cy="294.3" r="1.5"/>
	<circle class="st2" cx="406.2" cy="267.8" r="1.4"/>
	<ellipse class="st2" cx="433.4" cy="272.6" rx="1.5" ry="2"/>
	<ellipse class="st2" cx="424.6" cy="267.7" rx="1.5" ry="2.6"/>
	<circle class="st2" cx="412.5" cy="282.2" r="1.1"/>
	<circle class="st2" cx="427.5" cy="300.2" r="1"/>
	<circle class="st2" cx="381.1" cy="360.9" r="1.1"/>
	<circle class="st2" cx="397" cy="352.7" r="1.1"/>
	<ellipse class="st2" cx="406.1" cy="346.1" rx="1" ry="0.5"/>
	<circle class="st2" cx="397" cy="358.8" r="1"/>
	<circle class="st2" cx="374.1" cy="378.5" r="1.1"/>
	<ellipse class="st2" cx="379.1" cy="374.4" rx="0.9" ry="1.3"/>
	<circle class="st2" cx="354.3" cy="359.2" r="1.4"/>
	<circle class="st2" cx="360.6" cy="353.1" r="1.4"/>
	<circle class="st2" cx="331.8" cy="383.1" r="0.9"/>
	<ellipse class="st2" cx="336.5" cy="397" rx="1.3" ry="0.4"/>
	<ellipse class="st2" cx="340" cy="396.7" rx="1.7" ry="0.7"/>
	<circle class="st2" cx="357.3" cy="378.9" r="0.9"/>
	<circle class="st2" cx="339.7" cy="387.3" r="1.3"/>
	<circle class="st2" cx="361.8" cy="381" r="1.2"/>
	<circle class="st2" cx="353.9" cy="397" r="1"/>
	<ellipse class="st2" cx="332.6" cy="409.5" rx="1.8" ry="0.8"/>
	<circle class="st2" cx="305" cy="405.3" r="1.5"/>
	<circle class="st2" cx="305.4" cy="420.2" r="1.1"/>
	<circle class="st2" cx="269.5" cy="406.1" r="1.1"/>
	<circle class="st2" cx="265.7" cy="407.2" r="1"/>
	<circle class="st2" cx="219.9" cy="401.7" r="1.5"/>
	<circle class="st2" cx="250.1" cy="424.8" r="0.9"/>
	<circle class="st2" cx="235.1" cy="436.6" r="1.3"/>
	<ellipse class="st2" cx="234.6" cy="441.5" rx="1.8" ry="1.2"/>
	<ellipse class="st2" cx="221.2" cy="442.4" rx="1.4" ry="0.3"/>
	<ellipse class="st2" cx="243.6" cy="441.9" rx="1.7" ry="0.4"/>
	<ellipse class="st2" cx="246.8" cy="413" rx="1.5" ry="0.7"/>
	<circle class="st2" cx="265" cy="424.8" r="0.9"/>
	<ellipse class="st2" cx="267.6" cy="423.9" rx="1.7" ry="0.9"/>
	<circle class="st2" cx="281.1" cy="411.3" r="1"/>
	<ellipse class="st2" cx="293.4" cy="420.2" rx="1.4" ry="1.1"/>
	<circle class="st2" cx="300.6" cy="428" r="1.1"/>
	<circle class="st2" cx="303.3" cy="425.9" r="0.8"/>
	<circle class="st2" cx="328.6" cy="418" r="1"/>
	<circle class="st2" cx="322.2" cy="418" r="1"/>
	<ellipse class="st2" cx="344.7" cy="405.3" rx="0.4" ry="0.8"/>
	<circle class="st2" cx="358.7" cy="397.5" r="0.5"/>
	<ellipse class="st2" cx="366.4" cy="391" rx="0.6" ry="1.1"/>
	<circle class="st2" cx="366.6" cy="377.2" r="1.3"/>
	<circle class="st2" cx="215.6" cy="159.1" r="2.2"/>
	<circle class="st2" cx="158.1" cy="215.3" r="2.5"/>
	<ellipse class="st2" cx="182.4" cy="14.6" rx="2.4" ry="1.5"/>
	<ellipse class="st2" cx="199.8" cy="5.2" rx="2" ry="0.9"/>
	<ellipse class="st2" cx="215.9" cy="7.1" rx="1.6" ry="1"/>
	<circle class="st2" cx="231.1" cy="5.5" r="1.1"/>
	<circle class="st2" cx="220.9" cy="10.7" r="1.9"/>
	<circle class="st2" cx="174.3" cy="10.6" r="0.9"/>
	<ellipse class="st2" cx="173.5" cy="23.8" rx="2.6" ry="1.1"/>
	<ellipse class="st2" cx="164.7" cy="37.9" rx="1.9" ry="0.7"/>
	<ellipse class="st2" cx="157.1" cy="17.3" rx="2.6" ry="1.2"/>
	<circle class="st2" cx="134.8" cy="25.5" r="0.8"/>
	<ellipse class="st2" cx="121.1" cy="32.7" rx="2.2" ry="0.9"/>
	<circle class="st2" cx="114.1" cy="45.9" r="1.3"/>
	<ellipse class="st2" cx="121.1" cy="53.4" rx="2.2" ry="1.4"/>
	<ellipse class="st2" cx="142" cy="47" rx="1.6" ry="0.9"/>
	<circle class="st2" cx="160" cy="45.3" r="1.4"/>
	<circle class="st2" cx="164.4" cy="46.1" r="1.5"/>
	<ellipse class="st2" cx="203" cy="33.8" rx="3.1" ry="1.4"/>
	<ellipse class="st2" cx="197.3" cy="30.3" rx="1.3" ry="2.1"/>
	<circle class="st2" cx="198.7" cy="16" r="1.4"/>
	<circle class="st2" cx="238.4" cy="17.3" r="1.2"/>
	<circle class="st2" cx="249.5" cy="17.1" r="1"/>
	<circle class="st2" cx="222.7" cy="22.9" r="1.8"/>
	<ellipse class="st2" cx="223.5" cy="28.1" rx="2.8" ry="1.9"/>
	<circle class="st2" cx="229.9" cy="27.4" r="1.2"/>
	<circle class="st2" cx="251.4" cy="31.7" r="1.1"/>
	<circle class="st2" cx="247.2" cy="10.5" r="0.8"/>
	<circle class="st2" cx="255.6" cy="7.4" r="1.4"/>
	<circle class="st2" cx="264.2" cy="15.1" r="0.9"/>
	<ellipse class="st2" cx="271" cy="10.1" rx="2.3" ry="1.3"/>
	<circle class="st2" cx="280.8" cy="19.5" r="1"/>
	<ellipse class="st2" cx="268.3" cy="26.1" rx="2.1" ry="1.3"/>
	<ellipse transform="matrix(0.3008 -0.9537 0.9537 0.3008 168.383 302.0408)" class="st2" cx="290.2" cy="36.2" rx="1" ry="1.2"/>
	<circle class="st2" cx="267.4" cy="45.8" r="1.2"/>
	<circle class="st2" cx="249.9" cy="38.7" r="1.5"/>
	<ellipse class="st2" cx="233.7" cy="41.4" rx="1.9" ry="1.2"/>
	<ellipse class="st2" cx="226.9" cy="46.5" rx="1.9" ry="0.7"/>
	<circle class="st2" cx="211.8" cy="47" r="1.6"/>
	<ellipse class="st2" cx="187" cy="45.6" rx="2.2" ry="1.1"/>
	<ellipse class="st2" cx="226.1" cy="63.1" rx="2.6" ry="1.4"/>
	<ellipse class="st2" cx="252.6" cy="79.3" rx="2" ry="1.2"/>
	<ellipse class="st2" cx="273.4" cy="65" rx="1.8" ry="1"/>
	<ellipse class="st2" cx="275.1" cy="76" rx="1.7" ry="0.9"/>
	<circle class="st2" cx="244.2" cy="111" r="2.2"/>
	<circle class="st2" cx="213.6" cy="107.5" r="2"/>
	<ellipse class="st2" cx="168.8" cy="81.6" rx="2" ry="1.2"/>
	
		<ellipse transform="matrix(0.4081 -0.9129 0.9129 0.4081 138.9649 307.6746)" class="st2" cx="306.8" cy="46.7" rx="1.4" ry="1.9"/>
	<ellipse transform="matrix(0.3008 -0.9537 0.9537 0.3008 157.8595 318.6957)" class="st2" cx="296.3" cy="51.7" rx="1" ry="2.1"/>
	<ellipse transform="matrix(0.3738 -0.9275 0.9275 0.3738 163.3031 285.05)" class="st2" cx="292.8" cy="21.6" rx="1.1" ry="1.5"/>
	<circle class="st2" cx="293.4" cy="16.9" r="0.8"/>
	
		<ellipse transform="matrix(0.3008 -0.9537 0.9537 0.3008 185.4814 309.9091)" class="st2" cx="304.1" cy="28.5" rx="1.4" ry="2.1"/>
	<ellipse transform="matrix(0.4582 -0.8888 0.8888 0.4582 144.668 300.7265)" class="st2" cx="319" cy="31.7" rx="1.2" ry="1.4"/>
	
		<ellipse transform="matrix(0.4081 -0.9129 0.9129 0.4081 164.7709 319.1802)" class="st2" cx="328.5" cy="32.5" rx="0.8" ry="1.5"/>
	<circle class="st2" cx="331.2" cy="36" r="1.2"/>
	
		<ellipse transform="matrix(0.4582 -0.8888 0.8888 0.4582 148.2445 338.2337)" class="st2" cx="351.6" cy="47.5" rx="1.1" ry="1.7"/>
	
		<ellipse transform="matrix(0.4081 -0.9129 0.9129 0.4081 156.5653 332.7483)" class="st2" cx="334.9" cy="45.6" rx="1.1" ry="1.8"/>
	<ellipse transform="matrix(0.5715 -0.8206 0.8206 0.5715 98.8648 288.9395)" class="st2" cx="326.1" cy="49.8" rx="1.2" ry="2.2"/>
	<ellipse transform="matrix(0.4081 -0.9129 0.9129 0.4081 151.1302 297.931)" class="st2" cx="305.3" cy="32.4" rx="1.1" ry="1.7"/>
	<ellipse transform="matrix(0.866 -0.5 0.5 0.866 17.3571 175.7987)" class="st2" cx="336.7" cy="55.5" rx="1.2" ry="1.8"/>
	<ellipse class="st2" cx="330.9" cy="65.1" rx="0.6" ry="0.9"/>
	<circle class="st2" cx="359.2" cy="73.3" r="1.1"/>
	<circle class="st2" cx="356.9" cy="67.6" r="1"/>
	<circle class="st2" cx="361.2" cy="62.2" r="0.9"/>
	<ellipse transform="matrix(0.6232 -0.7821 0.7821 0.6232 89.8288 311.4667)" class="st2" cx="368.1" cy="62.5" rx="1.2" ry="1.6"/>
	<ellipse transform="matrix(0.8182 -0.5749 0.5749 0.8182 29.5255 230.8502)" class="st2" cx="379.8" cy="68.7" rx="0.7" ry="1.1"/>
	<ellipse class="st2" cx="317.1" cy="75.2" rx="1.3" ry="2"/>
	<circle class="st2" cx="336.1" cy="68.6" r="1.3"/>
	<circle class="st2" cx="360.2" cy="78.2" r="1"/>
	<circle class="st2" cx="351.4" cy="88.6" r="1.8"/>
	<ellipse class="st2" cx="368" cy="88.4" rx="1.1" ry="1.7"/>
	<ellipse class="st2" cx="353.4" cy="92.5" rx="1.1" ry="1.4"/>
	<circle class="st2" cx="378.5" cy="105.7" r="1.3"/>
	<circle class="st2" cx="369.4" cy="109.4" r="1.6"/>
	<circle class="st2" cx="367.9" cy="119.7" r="1.5"/>
	<polyline class="st5" points="370.8,108.6 378.5,105.7 386.8,111.3 398.8,109.7 397,97.5 	"/>
	<polyline class="st5" points="404.1,112.8 398.8,109.7 406.4,103.7 	"/>
	<ellipse class="st2" cx="327.7" cy="109.4" rx="1.6" ry="1.1"/>
	
		<ellipse transform="matrix(0.5708 -0.8211 0.8211 0.5708 37.5886 339.6146)" class="st2" cx="343.7" cy="133.9" rx="1.4" ry="1.8"/>
	<ellipse class="st2" cx="386.7" cy="154" rx="1.3" ry="2"/>
	<ellipse class="st2" cx="404.6" cy="160.1" rx="1.2" ry="2.1"/>
	<ellipse class="st2" cx="404" cy="133.3" rx="1.4" ry="2"/>
	<ellipse class="st2" cx="401.6" cy="123.5" rx="1" ry="1.7"/>
	<ellipse class="st2" cx="404.1" cy="112.4" rx="0.9" ry="1.1"/>
	<circle class="st2" cx="411.1" cy="109.5" r="0.6"/>
	
		<ellipse transform="matrix(0.8927 -0.4507 0.4507 0.8927 -9.9353 201.7065)" class="st2" cx="418.5" cy="121.7" rx="0.6" ry="1.2"/>
	<ellipse transform="matrix(0.8927 -0.4507 0.4507 0.8927 -1.2756 189.4656)" class="st2" cx="397.2" cy="97.4" rx="0.7" ry="1.2"/>
	<ellipse transform="matrix(0.8927 -0.4507 0.4507 0.8927 -1.7522 183.0877)" class="st2" cx="383.5" cy="95.2" rx="0.7" ry="1.1"/>
	<ellipse transform="matrix(0.8927 -0.4507 0.4507 0.8927 1.1749 188.6784)" class="st2" cx="396.7" cy="91.9" rx="0.6" ry="1.2"/>
	
		<ellipse transform="matrix(0.8927 -0.4507 0.4507 0.8927 -3.0983 194.4793)" class="st2" cx="406.8" cy="103.7" rx="0.6" ry="1.2"/>
	
		<ellipse transform="matrix(0.8927 -0.4507 0.4507 0.8927 -11.7124 191.9511)" class="st2" cx="397.2" cy="120.6" rx="0.9" ry="1.4"/>
	
		<ellipse transform="matrix(0.8927 -0.4507 0.4507 0.8927 -13.496 202.2657)" class="st2" cx="417.9" cy="129.5" rx="0.6" ry="1.2"/>
	
		<ellipse transform="matrix(0.8927 -0.4507 0.4507 0.8927 -14.8138 206.6736)" class="st2" cx="426.5" cy="134.4" rx="0.6" ry="1.2"/>
	<circle class="st2" cx="417.4" cy="140.7" r="1.2"/>
	<circle class="st2" cx="411.2" cy="118.6" r="1.2"/>
	<circle class="st2" cx="420.1" cy="157.3" r="1.4"/>
	<ellipse class="st2" cx="431.1" cy="149.8" rx="0.6" ry="1"/>
	<ellipse class="st2" cx="433.5" cy="153.3" rx="0.3" ry="1.3"/>
	<ellipse class="st2" cx="439" cy="172" rx="0.7" ry="1.7"/>
	<ellipse class="st2" cx="426.2" cy="173.3" rx="0.7" ry="1.2"/>
	<ellipse class="st2" cx="409.7" cy="168.6" rx="0.6" ry="0.9"/>
	<ellipse class="st2" cx="440.4" cy="184" rx="0.2" ry="1.4"/>
	<circle class="st2" cx="428.6" cy="184" r="0.8"/>
	<ellipse class="st2" cx="434.4" cy="181.2" rx="0.3" ry="1"/>
	<circle class="st2" cx="429.5" cy="187.7" r="0.9"/>
	<circle class="st2" cx="405.4" cy="189" r="0.9"/>
	<ellipse class="st2" cx="442.6" cy="203.5" rx="0.8" ry="1.3"/>
	<ellipse class="st2" cx="444.1" cy="212.8" rx="0.7" ry="0.9"/>
	<ellipse class="st2" cx="438.5" cy="226.5" rx="0.8" ry="1.5"/>
	<ellipse class="st2" cx="444.1" cy="236.6" rx="0.7" ry="1"/>
	<ellipse class="st2" cx="426" cy="224.1" rx="1.1" ry="1.5"/>
	<ellipse class="st2" cx="425.2" cy="241.7" rx="0.8" ry="1.2"/>
	<ellipse class="st2" cx="435.9" cy="238" rx="1.2" ry="1.5"/>
	<ellipse class="st2" cx="444.4" cy="244.3" rx="0.4" ry="1.4"/>
	<ellipse class="st2" cx="417.7" cy="203.1" rx="1.1" ry="1.7"/>
	<ellipse class="st2" cx="415.9" cy="223.2" rx="1.1" ry="1.8"/>
	<ellipse class="st2" cx="398.6" cy="226" rx="1.6" ry="1.9"/>
	<circle class="st2" cx="413.5" cy="250.6" r="1"/>
	<ellipse class="st2" cx="424.1" cy="250" rx="1.1" ry="1.6"/>
	<ellipse class="st2" cx="439.3" cy="271.1" rx="0.4" ry="0.8"/>
	<ellipse class="st2" cx="433.1" cy="292.9" rx="0.7" ry="1.3"/>
	<ellipse class="st2" cx="398.4" cy="338" rx="0.9" ry="1.5"/>
	<ellipse class="st2" cx="412.2" cy="335.8" rx="0.7" ry="1"/>
	<circle class="st2" cx="378" cy="367.7" r="1.1"/>
	<circle class="st2" cx="389.4" cy="360.6" r="0.7"/>
	<ellipse class="st2" cx="390.4" cy="368.8" rx="1" ry="1.4"/>
	<ellipse class="st2" cx="378.4" cy="381.3" rx="1.6" ry="0.9"/>
	<ellipse class="st2" cx="162.2" cy="291.1" rx="2" ry="1.4"/>
	<circle class="st2" cx="215.1" cy="280.4" r="1.7"/>
	<ellipse class="st2" cx="281.9" cy="98.7" rx="1.4" ry="1"/>
	
		<ellipse transform="matrix(0.9248 -0.3804 0.3804 0.9248 -29.2683 116.9406)" class="st2" cx="281.2" cy="132.5" rx="1.2" ry="1.7"/>
	<ellipse class="st2" cx="296" cy="179.5" rx="2.6" ry="2.2"/>
	<circle class="st2" cx="269.4" cy="195.1" r="1.5"/>
	<circle class="st2" cx="295.6" cy="221.3" r="1.8"/>
	<circle class="st2" cx="286.8" cy="250.1" r="1.8"/>
	<ellipse class="st2" cx="315" cy="243" rx="2.4" ry="2.7"/>
	<ellipse class="st2" cx="283.6" cy="291" rx="2.2" ry="1.9"/>
	<circle class="st2" cx="347" cy="255.8" r="1.3"/>
	<circle class="st2" cx="404.3" cy="227.5" r="0.8"/>
	<ellipse class="st2" cx="376.6" cy="202.9" rx="1.4" ry="0.8"/>
	<circle class="st2" cx="379.8" cy="222.7" r="1.2"/>
	<ellipse class="st2" cx="330.9" cy="221.8" rx="1.8" ry="0.9"/>
	<ellipse class="st2" cx="337.1" cy="191.4" rx="2" ry="1.5"/>
	<circle class="st2" cx="372.7" cy="164.8" r="1.9"/>
	<circle class="st2" cx="385.8" cy="266.8" r="1"/>
	<polyline class="st3" points="409.1,168.6 372.7,164.8 376.6,202.2 	"/>
	<polyline class="st3" points="337.1,192.9 379.8,222.7 376.6,203.7 	"/>
	<polyline class="st3" points="281.2,132.5 236.2,159.5 269.4,193.7 	"/>
</g>
<g id="Слой_3">
</g>
</svg>
